{"glyphs":{"0":{"ha":860,"x_min":50,"x_max":810,"o":"m 431 -7 q 269 28 340 -7 q 150 128 199 64 q 76 276 101 192 q 50 456 50 360 q 75 638 50 554 q 149 785 100 722 q 268 881 197 847 q 431 915 339 915 q 591 880 521 915 q 710 781 661 844 q 784 635 758 718 q 810 456 810 551 q 784 274 810 358 q 710 127 758 190 q 591 28 661 64 q 431 -7 521 -7 m 429 58 q 591 106 521 58 q 701 244 661 154 q 740 456 740 333 q 701 665 740 576 q 591 803 661 754 q 429 850 521 851 q 268 803 338 851 q 160 665 199 754 q 119 454 121 576 q 160 244 121 333 q 268 106 199 154 q 429 58 338 58 z "},"1":{"ha":438,"x_min":78,"x_max":281,"o":"m 78 907 l 281 907 l 281 0 l 213 0 l 213 842 l 78 842 l 78 907 z "},"2":{"ha":704,"x_min":64,"x_max":654,"o":"m 74 0 q 245 170 163 86 q 393 334 328 254 q 497 489 458 414 q 535 635 535 564 q 516 738 535 696 q 467 805 497 779 q 402 842 438 831 q 333 854 367 854 q 235 834 274 854 q 173 782 196 814 q 140 715 150 750 q 131 647 131 679 q 144 560 131 599 q 185 493 158 521 l 143 456 q 100 508 118 478 q 73 574 82 538 q 64 646 64 610 q 96 783 64 721 q 190 881 128 844 q 342 918 253 918 q 480 881 421 918 q 572 781 539 844 q 604 640 604 718 q 568 489 604 564 q 473 340 532 414 q 345 194 414 267 q 211 51 276 122 l 185 65 l 654 65 l 654 0 l 74 0 z "},"3":{"ha":722,"x_min":92,"x_max":629,"o":"m 581 907 l 300 521 l 249 536 q 300 556 272 550 q 358 563 328 563 q 461 551 413 565 q 548 503 510 536 q 608 421 586 471 q 629 301 629 371 q 588 137 629 207 q 474 28 546 67 q 313 -11 403 -11 q 190 15 249 -11 q 92 83 132 40 l 126 139 q 207 78 157 103 q 311 54 257 54 q 440 85 383 54 q 528 174 496 117 q 560 304 560 231 q 500 457 560 401 q 340 513 440 513 q 268 504 301 513 q 211 485 235 496 l 206 489 l 475 856 l 500 843 l 122 843 l 122 907 l 581 907 z "},"4":{"ha":719,"x_min":21,"x_max":678,"o":"m 21 240 l 21 242 l 549 918 l 550 918 l 550 294 l 678 294 l 678 240 l 550 240 l 550 0 l 482 0 l 482 240 l 21 240 m 490 753 l 128 289 l 106 294 l 482 294 l 482 793 l 490 753 z "},"5":{"ha":732,"x_min":125,"x_max":635,"o":"m 343 -11 q 222 12 279 -11 q 125 74 165 35 l 164 122 q 242 70 196 89 q 336 51 288 51 q 458 83 407 51 q 538 166 510 114 q 565 281 565 218 q 543 398 565 346 q 474 481 521 450 q 351 511 426 511 q 254 496 299 511 q 174 457 210 481 l 172 457 l 172 907 l 586 907 l 586 843 l 232 843 l 232 525 l 221 540 q 289 562 249 554 q 367 569 329 569 q 517 531 457 569 q 606 426 576 492 q 635 282 635 361 q 599 135 635 201 q 497 28 563 68 q 343 -11 431 -11 z "},"6":{"ha":735,"x_min":63,"x_max":663,"o":"m 364 -11 q 212 29 281 -11 q 103 140 143 69 q 63 303 63 211 q 102 486 63 401 q 207 644 142 571 q 351 781 272 718 q 507 897 429 843 l 551 846 q 354 705 436 778 q 223 560 272 632 q 157 421 174 488 l 139 425 q 240 528 178 493 q 383 564 303 564 q 522 526 458 564 q 624 424 585 488 q 663 279 663 360 q 622 130 663 196 q 513 26 581 64 q 364 -11 444 -11 m 361 50 q 478 80 425 50 q 562 162 531 110 q 593 279 593 214 q 562 395 593 344 q 478 476 531 446 q 361 506 425 506 q 245 477 297 506 q 162 401 193 449 q 131 292 131 353 l 131 276 q 162 163 131 215 q 245 81 193 111 q 361 50 297 50 z "},"7":{"ha":661,"x_min":31,"x_max":604,"o":"m 604 907 l 215 0 l 138 0 l 511 858 l 539 843 l 31 843 l 31 907 l 604 907 z "},"8":{"ha":714,"x_min":57,"x_max":657,"o":"m 57 278 q 84 399 57 346 q 156 490 111 453 q 253 544 200 528 q 169 610 201 567 q 136 713 136 654 q 163 818 136 772 q 240 891 190 864 q 354 918 289 918 q 467 891 418 918 q 542 818 515 864 q 569 714 569 772 q 538 611 569 654 q 456 544 506 568 q 556 490 510 528 q 629 399 601 453 q 657 278 657 346 q 616 134 657 200 q 507 28 575 68 q 354 -11 439 -11 q 203 28 271 -11 q 97 134 136 68 q 57 278 57 200 l 57 278 m 125 281 q 156 165 125 218 q 238 79 186 111 q 353 47 290 47 q 472 79 418 47 q 557 165 525 111 q 589 281 589 218 q 558 396 589 344 q 474 479 526 447 q 356 511 421 511 q 240 480 293 511 q 156 397 188 449 q 125 281 125 344 l 125 281 m 201 706 q 247 608 201 647 q 356 568 292 568 q 461 608 418 568 q 504 706 504 647 q 461 818 504 775 q 356 861 418 861 q 247 818 292 861 q 201 706 201 775 l 201 706 z "},"9":{"ha":735,"x_min":63,"x_max":663,"o":"m 342 311 q 203 349 267 311 q 101 452 140 388 q 63 596 63 517 q 103 746 63 681 q 213 849 144 811 q 361 886 281 886 q 514 850 446 886 q 622 748 582 814 q 663 592 663 682 q 621 402 663 489 q 512 242 579 315 q 364 106 444 168 q 204 -12 283 43 l 158 40 q 364 185 279 113 q 499 324 449 257 q 564 444 549 390 l 592 449 q 489 346 546 381 q 342 311 432 311 m 364 371 q 531 428 467 371 q 594 586 594 485 l 594 607 q 560 719 592 671 q 477 796 528 768 q 364 824 426 824 q 247 794 300 824 q 163 713 194 764 q 132 596 132 661 q 163 481 132 532 q 247 400 194 429 q 364 371 300 371 z "},"A":{"ha":981,"x_min":71,"x_max":910,"o":"m 71 0 l 488 1029 l 493 1029 l 910 0 l 833 0 l 471 921 l 518 947 l 139 0 l 71 0 m 272 390 l 710 390 l 729 326 l 256 326 l 272 390 z "},"Á":{"ha":981,"x_min":71,"x_max":910,"o":"m 71 0 l 488 1029 l 493 1029 l 910 0 l 833 0 l 471 921 l 518 947 l 139 0 l 71 0 m 272 390 l 710 390 l 729 326 l 256 326 l 272 390 m 661 1235 l 514 1050 l 467 1050 l 588 1235 l 661 1235 z "},"Ă":{"ha":981,"x_min":71,"x_max":910,"o":"m 71 0 l 488 1029 l 493 1029 l 910 0 l 833 0 l 471 921 l 518 947 l 139 0 l 71 0 m 272 390 l 710 390 l 729 326 l 256 326 l 272 390 m 493 1065 q 401 1094 442 1065 q 335 1174 360 1122 q 306 1294 311 1226 l 353 1294 q 375 1204 357 1246 q 424 1138 393 1163 q 493 1114 454 1114 q 563 1138 533 1114 q 609 1204 592 1163 q 629 1294 626 1246 l 678 1294 q 649 1174 674 1225 q 585 1094 625 1122 q 493 1065 544 1065 z "},"Ắ":{"ha":981,"x_min":71,"x_max":910,"o":"m 71 0 l 488 1029 l 493 1029 l 910 0 l 833 0 l 471 921 l 518 947 l 139 0 l 71 0 m 272 390 l 710 390 l 729 326 l 256 326 l 272 390 m 493 1065 q 401 1094 442 1065 q 335 1174 360 1122 q 306 1294 311 1226 l 353 1294 q 375 1204 357 1246 q 424 1138 393 1163 q 493 1114 454 1114 q 563 1138 533 1114 q 609 1204 592 1163 q 629 1294 626 1246 l 678 1294 q 649 1174 674 1225 q 585 1094 625 1122 q 493 1065 544 1065 m 660 1532 l 513 1347 l 465 1347 l 586 1532 l 660 1532 z "},"Ặ":{"ha":981,"x_min":71,"x_max":910,"o":"m 71 0 l 488 1029 l 493 1029 l 910 0 l 833 0 l 471 921 l 518 947 l 139 0 l 71 0 m 272 390 l 710 390 l 729 326 l 256 326 l 272 390 m 442 -121 q 457 -88 442 -101 q 490 -75 472 -75 q 524 -88 510 -75 q 538 -121 538 -101 q 524 -155 538 -142 q 490 -168 510 -168 q 457 -154 472 -168 q 442 -121 442 -140 m 493 1065 q 401 1094 442 1065 q 335 1174 360 1122 q 306 1294 311 1226 l 353 1294 q 375 1204 357 1246 q 424 1138 393 1163 q 493 1114 454 1114 q 563 1138 533 1114 q 609 1204 592 1163 q 629 1294 626 1246 l 678 1294 q 649 1174 674 1225 q 585 1094 625 1122 q 493 1065 544 1065 z "},"Ằ":{"ha":981,"x_min":71,"x_max":910,"o":"m 71 0 l 488 1029 l 493 1029 l 910 0 l 833 0 l 471 921 l 518 947 l 139 0 l 71 0 m 272 390 l 710 390 l 729 326 l 256 326 l 272 390 m 493 1065 q 401 1094 442 1065 q 335 1174 360 1122 q 306 1294 311 1226 l 353 1294 q 375 1204 357 1246 q 424 1138 393 1163 q 493 1114 454 1114 q 563 1138 533 1114 q 609 1204 592 1163 q 629 1294 626 1246 l 678 1294 q 649 1174 674 1225 q 585 1094 625 1122 q 493 1065 544 1065 m 328 1544 l 400 1544 l 515 1360 l 468 1360 l 328 1544 z "},"Ẳ":{"ha":981,"x_min":71,"x_max":910,"o":"m 71 0 l 488 1029 l 493 1029 l 910 0 l 833 0 l 471 921 l 518 947 l 139 0 l 71 0 m 272 390 l 710 390 l 729 326 l 256 326 l 272 390 m 493 1065 q 401 1094 442 1065 q 335 1174 360 1122 q 306 1294 311 1226 l 353 1294 q 375 1204 357 1246 q 424 1138 393 1163 q 493 1114 454 1114 q 563 1138 533 1114 q 609 1204 592 1163 q 629 1294 626 1246 l 678 1294 q 649 1174 674 1225 q 585 1094 625 1122 q 493 1065 544 1065 m 485 1369 q 535 1415 515 1394 q 554 1464 554 1436 q 540 1501 554 1488 q 504 1515 526 1515 q 463 1503 479 1515 q 429 1467 447 1492 l 400 1489 q 451 1544 424 1526 q 511 1561 478 1561 q 557 1551 538 1561 q 588 1519 576 1540 q 600 1467 600 1499 q 574 1396 600 1425 q 510 1339 547 1367 l 485 1369 z "},"Ẵ":{"ha":981,"x_min":71,"x_max":910,"o":"m 71 0 l 488 1029 l 493 1029 l 910 0 l 833 0 l 471 921 l 518 947 l 139 0 l 71 0 m 272 390 l 710 390 l 729 326 l 256 326 l 272 390 m 493 1065 q 401 1094 442 1065 q 335 1174 360 1122 q 306 1294 311 1226 l 353 1294 q 375 1204 357 1246 q 424 1138 393 1163 q 493 1114 454 1114 q 563 1138 533 1114 q 609 1204 592 1163 q 629 1294 626 1246 l 678 1294 q 649 1174 674 1225 q 585 1094 625 1122 q 493 1065 544 1065 m 593 1389 q 526 1409 551 1389 q 478 1453 500 1429 q 441 1487 460 1471 q 397 1503 422 1503 q 365 1491 381 1503 q 338 1453 349 1479 q 325 1383 326 1428 l 283 1385 q 298 1477 282 1439 q 340 1535 314 1515 q 400 1554 367 1554 q 463 1534 438 1554 q 508 1492 488 1514 q 546 1454 526 1471 q 592 1438 565 1438 q 638 1465 619 1438 q 660 1560 657 1493 l 701 1558 q 688 1465 703 1503 q 649 1408 674 1426 q 593 1389 624 1389 z "},"Â":{"ha":981,"x_min":71,"x_max":910,"o":"m 71 0 l 488 1029 l 493 1029 l 910 0 l 833 0 l 471 921 l 518 947 l 139 0 l 71 0 m 272 390 l 710 390 l 729 326 l 256 326 l 272 390 m 626 1082 l 475 1251 l 504 1256 l 351 1082 l 286 1082 l 488 1303 l 489 1303 l 692 1082 l 626 1082 z "},"Ấ":{"ha":981,"x_min":71,"x_max":910,"o":"m 71 0 l 488 1029 l 493 1029 l 910 0 l 833 0 l 471 921 l 518 947 l 139 0 l 71 0 m 272 390 l 710 390 l 729 326 l 256 326 l 272 390 m 626 1113 l 475 1282 l 504 1286 l 351 1113 l 286 1113 l 488 1333 l 489 1333 l 692 1113 l 626 1113 m 803 1421 l 656 1236 l 608 1236 l 729 1421 l 803 1421 z "},"Ậ":{"ha":981,"x_min":71,"x_max":910,"o":"m 71 0 l 488 1029 l 493 1029 l 910 0 l 833 0 l 471 921 l 518 947 l 139 0 l 71 0 m 272 390 l 710 390 l 729 326 l 256 326 l 272 390 m 442 -121 q 457 -88 442 -101 q 490 -75 472 -75 q 524 -88 510 -75 q 538 -121 538 -101 q 524 -155 538 -142 q 490 -168 510 -168 q 457 -154 472 -168 q 442 -121 442 -140 m 626 1082 l 475 1251 l 504 1256 l 351 1082 l 286 1082 l 488 1303 l 489 1303 l 692 1082 l 626 1082 z "},"Ầ":{"ha":981,"x_min":71,"x_max":910,"o":"m 71 0 l 488 1029 l 493 1029 l 910 0 l 833 0 l 471 921 l 518 947 l 139 0 l 71 0 m 272 390 l 710 390 l 729 326 l 256 326 l 272 390 m 619 1104 l 468 1274 l 497 1278 l 344 1104 l 279 1104 l 481 1325 l 482 1325 l 685 1104 l 619 1104 m 135 1432 l 207 1432 l 322 1247 l 275 1247 l 135 1432 z "},"Ẩ":{"ha":981,"x_min":71,"x_max":910,"o":"m 71 0 l 488 1029 l 493 1029 l 910 0 l 833 0 l 471 921 l 518 947 l 139 0 l 71 0 m 272 390 l 710 390 l 729 326 l 256 326 l 272 390 m 621 1113 l 469 1282 l 499 1286 l 346 1113 l 281 1113 l 482 1333 l 483 1333 l 686 1113 l 621 1113 m 651 1249 q 701 1294 682 1274 q 721 1343 721 1315 q 707 1381 721 1367 q 671 1394 693 1394 q 630 1383 646 1394 q 596 1346 614 1371 l 567 1368 q 617 1423 590 1406 q 678 1440 644 1440 q 724 1430 704 1440 q 755 1399 743 1419 q 767 1346 767 1378 q 740 1275 767 1304 q 676 1218 714 1246 l 651 1249 z "},"Ẫ":{"ha":981,"x_min":71,"x_max":910,"o":"m 71 0 l 488 1029 l 493 1029 l 910 0 l 833 0 l 471 921 l 518 947 l 139 0 l 71 0 m 272 390 l 710 390 l 729 326 l 256 326 l 272 390 m 624 1092 l 472 1261 l 501 1265 l 349 1092 l 283 1092 l 485 1313 l 486 1313 l 689 1092 l 624 1092 m 590 1342 q 523 1362 549 1342 q 475 1406 497 1382 q 438 1440 457 1424 q 394 1456 419 1456 q 362 1444 378 1456 q 335 1406 346 1432 q 322 1336 324 1381 l 281 1338 q 295 1430 279 1392 q 338 1488 311 1468 q 397 1507 364 1507 q 460 1487 435 1507 q 506 1444 485 1467 q 543 1407 524 1424 q 589 1390 563 1390 q 635 1418 617 1390 q 657 1513 654 1446 l 699 1511 q 685 1417 700 1456 q 646 1360 671 1379 q 590 1342 621 1342 z "},"Ȁ":{"ha":981,"x_min":71,"x_max":910,"o":"m 71 0 l 488 1029 l 493 1029 l 910 0 l 833 0 l 471 921 l 518 947 l 139 0 l 71 0 m 272 390 l 710 390 l 729 326 l 256 326 l 272 390 m 261 1269 l 333 1269 l 449 1085 l 401 1085 l 261 1269 m 419 1269 l 492 1269 l 607 1085 l 560 1085 l 419 1269 z "},"Ä":{"ha":981,"x_min":71,"x_max":910,"o":"m 71 0 l 488 1029 l 493 1029 l 910 0 l 833 0 l 471 921 l 518 947 l 139 0 l 71 0 m 272 390 l 710 390 l 729 326 l 256 326 l 272 390 m 321 1119 q 335 1153 321 1139 q 367 1167 349 1167 q 399 1153 385 1167 q 414 1119 414 1139 q 399 1086 414 1100 q 367 1072 385 1072 q 335 1086 349 1072 q 321 1119 321 1100 l 321 1119 m 563 1119 q 577 1153 563 1139 q 610 1167 592 1167 q 641 1153 626 1167 q 656 1119 656 1139 q 641 1086 656 1100 q 610 1072 626 1072 q 577 1086 592 1072 q 563 1119 563 1100 l 563 1119 z "},"Ạ":{"ha":981,"x_min":71,"x_max":910,"o":"m 71 0 l 488 1029 l 493 1029 l 910 0 l 833 0 l 471 921 l 518 947 l 139 0 l 71 0 m 272 390 l 710 390 l 729 326 l 256 326 l 272 390 m 442 -121 q 457 -88 442 -101 q 490 -75 472 -75 q 524 -88 510 -75 q 538 -121 538 -101 q 524 -155 538 -142 q 490 -168 510 -168 q 457 -154 472 -168 q 442 -121 442 -140 z "},"À":{"ha":981,"x_min":71,"x_max":910,"o":"m 71 0 l 488 1029 l 493 1029 l 910 0 l 833 0 l 471 921 l 518 947 l 139 0 l 71 0 m 272 390 l 710 390 l 729 326 l 256 326 l 272 390 m 329 1247 l 401 1247 l 517 1063 l 469 1063 l 329 1247 z "},"Ả":{"ha":981,"x_min":71,"x_max":910,"o":"m 71 0 l 488 1029 l 493 1029 l 910 0 l 833 0 l 471 921 l 518 947 l 139 0 l 71 0 m 272 390 l 710 390 l 729 326 l 256 326 l 272 390 m 486 1072 q 536 1118 517 1097 q 556 1167 556 1139 q 542 1204 556 1190 q 506 1218 528 1218 q 465 1206 481 1218 q 431 1169 449 1194 l 401 1192 q 452 1247 425 1229 q 513 1264 479 1264 q 558 1253 539 1264 q 590 1222 578 1243 q 601 1169 601 1201 q 575 1099 601 1128 q 511 1042 549 1069 l 486 1072 z "},"Ȃ":{"ha":981,"x_min":71,"x_max":910,"o":"m 71 0 l 488 1029 l 493 1029 l 910 0 l 833 0 l 471 921 l 518 947 l 139 0 l 71 0 m 272 390 l 710 390 l 729 326 l 256 326 l 272 390 m 486 1267 q 579 1238 539 1267 q 644 1158 619 1210 q 674 1038 669 1107 l 626 1038 q 605 1128 624 1088 q 556 1194 586 1169 q 486 1218 526 1218 q 417 1194 447 1218 q 370 1128 388 1169 q 350 1038 353 1088 l 301 1038 q 330 1158 306 1107 q 394 1238 354 1210 q 486 1267 435 1267 z "},"Ā":{"ha":981,"x_min":71,"x_max":910,"o":"m 71 0 l 488 1029 l 493 1029 l 910 0 l 833 0 l 471 921 l 518 947 l 139 0 l 71 0 m 272 390 l 710 390 l 729 326 l 256 326 l 272 390 m 325 1118 l 653 1118 l 653 1068 l 325 1068 l 325 1118 z "},"Ą":{"ha":981,"x_min":71,"x_max":963,"o":"m 71 0 l 488 1029 l 493 1029 l 910 0 l 833 0 l 471 921 l 518 947 l 139 0 l 71 0 m 272 390 l 710 390 l 729 326 l 256 326 l 272 390 m 838 -275 q 751 -241 788 -275 q 714 -151 714 -207 q 752 -56 714 -100 q 846 15 790 -11 l 911 0 q 808 -71 846 -35 q 771 -147 771 -107 q 794 -205 771 -185 q 843 -225 817 -225 q 893 -207 871 -225 q 932 -161 915 -189 l 963 -193 q 910 -251 944 -228 q 838 -275 876 -275 z "},"Å":{"ha":981,"x_min":71,"x_max":910,"o":"m 71 0 l 488 1029 l 493 1029 l 910 0 l 833 0 l 471 921 l 518 947 l 139 0 l 71 0 m 272 390 l 710 390 l 729 326 l 256 326 l 272 390 m 386 1182 q 416 1256 386 1226 q 492 1285 446 1285 q 566 1256 536 1285 q 596 1182 596 1226 q 566 1108 596 1138 q 492 1079 536 1079 q 416 1108 446 1079 q 386 1182 386 1136 m 426 1181 q 446 1135 426 1154 q 492 1115 465 1115 q 537 1135 518 1115 q 556 1181 556 1154 q 537 1227 556 1208 q 492 1246 518 1246 q 446 1227 465 1246 q 426 1181 426 1208 z "},"Ǻ":{"ha":981,"x_min":71,"x_max":910,"o":"m 71 0 l 488 1029 l 493 1029 l 910 0 l 833 0 l 471 921 l 518 947 l 139 0 l 71 0 m 272 390 l 710 390 l 729 326 l 256 326 l 272 390 m 386 1182 q 416 1256 386 1226 q 492 1285 446 1285 q 566 1256 536 1285 q 596 1182 596 1226 q 566 1108 596 1138 q 492 1079 536 1079 q 416 1108 446 1079 q 386 1182 386 1136 m 426 1181 q 446 1135 426 1154 q 492 1115 465 1115 q 537 1135 518 1115 q 556 1181 556 1154 q 537 1227 556 1208 q 492 1246 518 1246 q 446 1227 465 1246 q 426 1181 426 1208 m 661 1522 l 514 1338 l 467 1338 l 588 1522 l 661 1522 z "},"Ã":{"ha":981,"x_min":71,"x_max":910,"o":"m 71 0 l 488 1029 l 493 1029 l 910 0 l 833 0 l 471 921 l 518 947 l 139 0 l 71 0 m 272 390 l 710 390 l 729 326 l 256 326 l 272 390 m 594 1092 q 527 1112 553 1092 q 479 1156 501 1132 q 442 1190 461 1174 q 399 1206 424 1206 q 366 1194 382 1206 q 339 1156 350 1182 q 326 1086 328 1131 l 285 1088 q 299 1180 283 1142 q 342 1238 315 1218 q 401 1257 368 1257 q 464 1237 439 1257 q 510 1194 489 1217 q 547 1157 528 1174 q 593 1140 567 1140 q 640 1168 621 1140 q 661 1263 658 1196 l 703 1261 q 690 1167 704 1206 q 650 1110 675 1129 q 594 1092 625 1092 z "},"Æ":{"ha":1297,"x_min":28,"x_max":1194,"o":"m 650 986 l 1175 986 l 1175 919 l 718 919 l 718 528 l 1119 528 l 1119 463 l 718 463 l 718 65 l 1194 65 l 1194 0 l 650 0 l 650 986 m 669 922 q 663 901 667 913 q 656 882 658 889 l 104 0 l 28 0 l 650 986 l 669 922 m 264 328 l 665 328 l 665 272 l 247 272 l 264 328 z "},"Ǽ":{"ha":1297,"x_min":28,"x_max":1194,"o":"m 650 986 l 1175 986 l 1175 919 l 718 919 l 718 528 l 1119 528 l 1119 463 l 718 463 l 718 65 l 1194 65 l 1194 0 l 650 0 l 650 986 m 669 922 q 663 901 667 913 q 656 882 658 889 l 104 0 l 28 0 l 650 986 l 669 922 m 264 328 l 665 328 l 665 272 l 247 272 l 264 328 m 1051 1228 l 904 1043 l 857 1043 l 978 1228 l 1051 1228 z "},"B":{"ha":819,"x_min":157,"x_max":725,"o":"m 375 986 q 597 927 518 986 q 675 736 675 868 q 650 617 675 671 q 576 528 625 563 q 453 483 526 493 l 446 517 q 585 478 522 511 q 687 391 649 446 q 725 263 725 336 q 699 147 725 196 q 630 65 674 97 q 531 16 586 32 q 414 0 475 0 l 157 0 l 157 986 l 375 986 m 407 525 q 559 582 513 525 q 606 724 606 639 q 544 875 606 829 q 378 921 482 921 l 225 921 l 225 525 l 407 525 m 411 63 q 533 84 478 63 q 622 150 589 106 q 656 260 656 194 q 618 376 656 332 q 524 440 581 419 q 407 460 467 460 l 225 460 l 225 63 l 411 63 z "},"C":{"ha":960,"x_min":94,"x_max":865,"o":"m 865 65 q 792 28 833 46 q 700 -1 750 10 q 592 -11 650 -11 q 388 28 479 -11 q 231 137 296 68 q 130 295 165 206 q 94 486 94 385 q 132 688 94 594 q 238 850 169 781 q 396 958 306 919 q 592 997 486 997 q 738 976 669 997 q 861 922 806 956 l 832 860 q 722 911 783 890 q 593 932 661 932 q 428 898 506 932 q 291 803 350 864 q 199 663 232 743 q 165 489 165 582 q 195 321 165 400 q 281 182 225 242 q 417 88 338 122 q 593 54 496 54 q 726 74 665 54 q 833 125 786 94 l 865 65 z "},"Ć":{"ha":960,"x_min":94,"x_max":865,"o":"m 865 65 q 792 28 833 46 q 700 -1 750 10 q 592 -11 650 -11 q 388 28 479 -11 q 231 137 296 68 q 130 295 165 206 q 94 486 94 385 q 132 688 94 594 q 238 850 169 781 q 396 958 306 919 q 592 997 486 997 q 738 976 669 997 q 861 922 806 956 l 832 860 q 722 911 783 890 q 593 932 661 932 q 428 898 506 932 q 291 803 350 864 q 199 663 232 743 q 165 489 165 582 q 195 321 165 400 q 281 182 225 242 q 417 88 338 122 q 593 54 496 54 q 726 74 665 54 q 833 125 786 94 l 865 65 m 738 1238 l 590 1053 l 543 1053 l 664 1238 l 738 1238 z "},"Č":{"ha":960,"x_min":94,"x_max":865,"o":"m 865 65 q 792 28 833 46 q 700 -1 750 10 q 592 -11 650 -11 q 388 28 479 -11 q 231 137 296 68 q 130 295 165 206 q 94 486 94 385 q 132 688 94 594 q 238 850 169 781 q 396 958 306 919 q 592 997 486 997 q 738 976 669 997 q 861 922 806 956 l 832 860 q 722 911 783 890 q 593 932 661 932 q 428 898 506 932 q 291 803 350 864 q 199 663 232 743 q 165 489 165 582 q 195 321 165 400 q 281 182 225 242 q 417 88 338 122 q 593 54 496 54 q 726 74 665 54 q 833 125 786 94 l 865 65 m 426 1271 l 579 1100 l 549 1096 l 703 1271 l 768 1271 l 567 1050 l 565 1050 l 361 1271 l 426 1271 z "},"Ç":{"ha":960,"x_min":94,"x_max":865,"o":"m 865 65 q 792 28 833 46 q 700 -1 750 10 q 592 -11 650 -11 q 388 28 479 -11 q 231 137 296 68 q 130 295 165 206 q 94 486 94 385 q 132 688 94 594 q 238 850 169 781 q 396 958 306 919 q 592 997 486 997 q 738 976 669 997 q 861 922 806 956 l 832 860 q 722 911 783 890 q 593 932 661 932 q 428 898 506 932 q 291 803 350 864 q 199 663 232 743 q 165 489 165 582 q 195 321 165 400 q 281 182 225 242 q 417 88 338 122 q 593 54 496 54 q 726 74 665 54 q 833 125 786 94 l 865 65 m 461 -237 q 502 -263 476 -253 q 563 -274 528 -274 q 644 -253 611 -274 q 676 -197 676 -233 q 651 -142 676 -165 q 571 -118 626 -118 q 519 -124 549 -118 q 474 -137 490 -131 l 453 -103 l 550 6 l 600 -4 l 507 -118 l 483 -103 q 528 -87 499 -93 q 583 -81 557 -81 q 694 -109 654 -79 q 735 -196 735 -139 q 713 -262 735 -236 q 653 -301 690 -289 q 569 -314 615 -314 q 492 -301 526 -314 q 438 -271 458 -289 l 461 -237 z "},"Ĉ":{"ha":960,"x_min":94,"x_max":865,"o":"m 865 65 q 792 28 833 46 q 700 -1 750 10 q 592 -11 650 -11 q 388 28 479 -11 q 231 137 296 68 q 130 295 165 206 q 94 486 94 385 q 132 688 94 594 q 238 850 169 781 q 396 958 306 919 q 592 997 486 997 q 738 976 669 997 q 861 922 806 956 l 832 860 q 722 911 783 890 q 593 932 661 932 q 428 898 506 932 q 291 803 350 864 q 199 663 232 743 q 165 489 165 582 q 195 321 165 400 q 281 182 225 242 q 417 88 338 122 q 593 54 496 54 q 726 74 665 54 q 833 125 786 94 l 865 65 m 703 1085 l 551 1254 l 581 1258 l 428 1085 l 363 1085 l 564 1306 l 565 1306 l 768 1085 l 703 1085 z "},"Ċ":{"ha":960,"x_min":94,"x_max":865,"o":"m 865 65 q 792 28 833 46 q 700 -1 750 10 q 592 -11 650 -11 q 388 28 479 -11 q 231 137 296 68 q 130 295 165 206 q 94 486 94 385 q 132 688 94 594 q 238 850 169 781 q 396 958 306 919 q 592 997 486 997 q 738 976 669 997 q 861 922 806 956 l 832 860 q 722 911 783 890 q 593 932 661 932 q 428 898 506 932 q 291 803 350 864 q 199 663 232 743 q 165 489 165 582 q 195 321 165 400 q 281 182 225 242 q 417 88 338 122 q 593 54 496 54 q 726 74 665 54 q 833 125 786 94 l 865 65 m 519 1121 q 535 1153 519 1140 q 568 1167 550 1167 q 601 1153 588 1167 q 615 1121 615 1140 q 601 1087 615 1100 q 568 1074 588 1074 q 535 1088 550 1074 q 519 1121 519 1101 z "},"D":{"ha":1022,"x_min":157,"x_max":928,"o":"m 157 0 l 157 986 l 400 986 q 644 941 543 986 q 807 822 744 896 q 899 661 869 749 q 928 488 928 574 q 889 285 928 375 q 783 132 850 196 q 629 34 715 68 q 447 0 543 0 l 157 0 m 225 65 l 429 65 q 596 94 518 65 q 733 179 674 124 q 825 313 792 235 q 858 492 858 392 q 830 653 858 576 q 744 790 801 731 q 604 885 688 850 q 410 919 521 919 l 225 919 l 225 65 z "},"Ǆ":{"ha":1999,"x_min":157,"x_max":1918,"o":"m 157 0 l 157 986 l 400 986 q 644 941 543 986 q 807 822 744 896 q 899 661 869 749 q 928 488 928 574 q 889 285 928 375 q 783 132 850 196 q 629 34 715 68 q 447 0 543 0 l 157 0 m 225 65 l 429 65 q 596 94 518 65 q 733 179 674 124 q 825 313 792 235 q 858 492 858 392 q 830 653 858 576 q 744 790 801 731 q 604 885 688 850 q 410 919 521 919 l 225 919 l 225 65 m 1100 0 q 1171 99 1132 44 q 1253 215 1210 153 q 1344 342 1297 276 q 1439 475 1390 408 q 1534 606 1488 542 q 1624 731 1581 671 q 1707 844 1668 792 q 1778 939 1746 897 l 1790 921 l 1233 921 q 1188 928 1208 921 q 1154 950 1167 935 q 1142 992 1142 965 l 1142 1035 l 1207 1035 l 1207 1018 q 1217 993 1207 1000 q 1250 986 1226 986 l 1885 986 l 1210 54 l 1204 65 l 1918 65 l 1918 0 l 1100 0 m 1369 1254 l 1522 1083 l 1492 1079 l 1646 1254 l 1711 1254 l 1510 1033 l 1508 1033 l 1304 1254 l 1369 1254 z "},"Ð":{"ha":1022,"x_min":19,"x_max":928,"o":"m 157 0 l 157 986 l 400 986 q 644 941 543 986 q 807 822 744 896 q 899 661 869 749 q 928 488 928 574 q 889 285 928 375 q 783 132 850 196 q 629 34 715 68 q 447 0 543 0 l 157 0 m 225 65 l 429 65 q 596 94 518 65 q 733 179 674 124 q 825 313 792 235 q 858 492 858 392 q 830 653 858 576 q 744 790 801 731 q 604 885 688 850 q 410 919 521 919 l 225 919 l 225 65 m 19 522 l 354 522 l 354 460 l 19 460 l 19 522 z "},"Ď":{"ha":1022,"x_min":157,"x_max":928,"o":"m 157 0 l 157 986 l 400 986 q 644 941 543 986 q 807 822 744 896 q 899 661 869 749 q 928 488 928 574 q 889 285 928 375 q 783 132 850 196 q 629 34 715 68 q 447 0 543 0 l 157 0 m 225 65 l 429 65 q 596 94 518 65 q 733 179 674 124 q 825 313 792 235 q 858 492 858 392 q 830 653 858 576 q 744 790 801 731 q 604 885 688 850 q 410 919 521 919 l 225 919 l 225 65 m 272 1254 l 425 1083 l 394 1079 l 549 1254 l 614 1254 l 413 1033 l 411 1033 l 207 1254 l 272 1254 z "},"Đ":{"ha":1022,"x_min":19,"x_max":928,"o":"m 157 0 l 157 986 l 400 986 q 644 941 543 986 q 807 822 744 896 q 899 661 869 749 q 928 488 928 574 q 889 285 928 375 q 783 132 850 196 q 629 34 715 68 q 447 0 543 0 l 157 0 m 225 65 l 429 65 q 596 94 518 65 q 733 179 674 124 q 825 313 792 235 q 858 492 858 392 q 830 653 858 576 q 744 790 801 731 q 604 885 688 850 q 410 919 521 919 l 225 919 l 225 65 m 19 522 l 354 522 l 354 460 l 19 460 l 19 522 z "},"ǅ":{"ha":1583,"x_min":157,"x_max":1526,"o":"m 157 0 l 157 986 l 400 986 q 644 941 543 986 q 807 822 744 896 q 899 661 869 749 q 928 488 928 574 q 889 285 928 375 q 783 132 850 196 q 629 34 715 68 q 447 0 543 0 l 157 0 m 225 65 l 429 65 q 596 94 518 65 q 733 179 674 124 q 825 313 792 235 q 858 492 858 392 q 830 653 858 576 q 744 790 801 731 q 604 885 688 850 q 410 919 521 919 l 225 919 l 225 65 m 1160 489 q 1100 506 1124 489 q 1076 568 1076 524 l 1076 594 l 1128 594 l 1128 578 q 1140 552 1128 561 q 1175 543 1151 543 l 1526 543 l 1174 42 l 1160 56 l 1521 56 l 1521 0 l 1072 0 l 1429 507 l 1443 489 l 1160 489 m 1176 835 l 1329 664 l 1299 660 l 1453 835 l 1518 835 l 1317 614 l 1315 614 l 1111 835 l 1176 835 z "},"E":{"ha":888,"x_min":157,"x_max":785,"o":"m 157 986 l 765 986 l 765 921 l 225 921 l 225 529 l 711 529 l 711 464 l 225 464 l 225 65 l 785 65 l 785 0 l 157 0 l 157 986 z "},"É":{"ha":888,"x_min":157,"x_max":785,"o":"m 157 986 l 765 986 l 765 921 l 225 921 l 225 529 l 711 529 l 711 464 l 225 464 l 225 65 l 785 65 l 785 0 l 157 0 l 157 986 m 619 1228 l 472 1043 l 425 1043 l 546 1228 l 619 1228 z "},"Ĕ":{"ha":888,"x_min":157,"x_max":785,"o":"m 157 986 l 765 986 l 765 921 l 225 921 l 225 529 l 711 529 l 711 464 l 225 464 l 225 65 l 785 65 l 785 0 l 157 0 l 157 986 m 451 1058 q 359 1087 400 1058 q 294 1167 318 1115 q 264 1288 269 1219 l 311 1288 q 333 1197 315 1239 q 382 1131 351 1156 q 451 1107 413 1107 q 521 1131 492 1107 q 567 1197 550 1156 q 588 1288 585 1239 l 636 1288 q 608 1167 632 1218 q 543 1087 583 1115 q 451 1058 503 1058 z "},"Ě":{"ha":888,"x_min":157,"x_max":785,"o":"m 157 986 l 765 986 l 765 921 l 225 921 l 225 529 l 711 529 l 711 464 l 225 464 l 225 65 l 785 65 l 785 0 l 157 0 l 157 986 m 308 1261 l 461 1090 l 431 1086 l 585 1261 l 650 1261 l 449 1040 l 447 1040 l 243 1261 l 308 1261 z "},"Ê":{"ha":888,"x_min":157,"x_max":785,"o":"m 157 986 l 765 986 l 765 921 l 225 921 l 225 529 l 711 529 l 711 464 l 225 464 l 225 65 l 785 65 l 785 0 l 157 0 l 157 986 m 585 1075 l 433 1244 l 463 1249 l 310 1075 l 244 1075 l 446 1296 l 447 1296 l 650 1075 l 585 1075 z "},"Ế":{"ha":888,"x_min":157,"x_max":785,"o":"m 157 986 l 765 986 l 765 921 l 225 921 l 225 529 l 711 529 l 711 464 l 225 464 l 225 65 l 785 65 l 785 0 l 157 0 l 157 986 m 585 1106 l 433 1275 l 463 1279 l 310 1106 l 244 1106 l 446 1326 l 447 1326 l 650 1106 l 585 1106 m 761 1414 l 614 1229 l 567 1229 l 688 1414 l 761 1414 z "},"Ệ":{"ha":888,"x_min":157,"x_max":785,"o":"m 157 986 l 765 986 l 765 921 l 225 921 l 225 529 l 711 529 l 711 464 l 225 464 l 225 65 l 785 65 l 785 0 l 157 0 l 157 986 m 400 -121 q 415 -88 400 -101 q 449 -75 431 -75 q 482 -88 468 -75 q 496 -121 496 -101 q 482 -155 496 -142 q 449 -168 468 -168 q 415 -154 431 -168 q 400 -121 400 -140 m 585 1075 l 433 1244 l 463 1249 l 310 1075 l 244 1075 l 446 1296 l 447 1296 l 650 1075 l 585 1075 z "},"Ề":{"ha":888,"x_min":93,"x_max":785,"o":"m 157 986 l 765 986 l 765 921 l 225 921 l 225 529 l 711 529 l 711 464 l 225 464 l 225 65 l 785 65 l 785 0 l 157 0 l 157 986 m 578 1097 l 426 1267 l 456 1271 l 303 1097 l 238 1097 l 439 1318 l 440 1318 l 643 1097 l 578 1097 m 93 1425 l 165 1425 l 281 1240 l 233 1240 l 93 1425 z "},"Ể":{"ha":888,"x_min":157,"x_max":785,"o":"m 157 986 l 765 986 l 765 921 l 225 921 l 225 529 l 711 529 l 711 464 l 225 464 l 225 65 l 785 65 l 785 0 l 157 0 l 157 986 m 579 1106 l 428 1275 l 457 1279 l 304 1106 l 239 1106 l 440 1326 l 442 1326 l 644 1106 l 579 1106 m 610 1242 q 660 1288 640 1267 q 679 1336 679 1308 q 665 1374 679 1360 q 629 1388 651 1388 q 588 1376 604 1388 q 554 1339 572 1364 l 525 1361 q 576 1416 549 1399 q 636 1433 603 1433 q 682 1423 663 1433 q 713 1392 701 1413 q 725 1339 725 1371 q 699 1268 725 1297 q 635 1211 672 1239 l 610 1242 z "},"Ễ":{"ha":888,"x_min":157,"x_max":785,"o":"m 157 986 l 765 986 l 765 921 l 225 921 l 225 529 l 711 529 l 711 464 l 225 464 l 225 65 l 785 65 l 785 0 l 157 0 l 157 986 m 582 1085 l 431 1254 l 460 1258 l 307 1085 l 242 1085 l 443 1306 l 444 1306 l 647 1085 l 582 1085 m 549 1335 q 481 1355 507 1335 q 433 1399 456 1375 q 397 1433 415 1417 q 353 1449 378 1449 q 320 1437 336 1449 q 293 1399 304 1425 q 281 1329 282 1374 l 239 1331 q 253 1423 238 1385 q 296 1481 269 1461 q 356 1500 322 1500 q 418 1480 393 1500 q 464 1438 443 1460 q 501 1400 482 1417 q 547 1383 521 1383 q 594 1411 575 1383 q 615 1506 613 1439 l 657 1504 q 644 1410 658 1449 q 604 1353 629 1372 q 549 1335 579 1335 z "},"Ȅ":{"ha":888,"x_min":157,"x_max":785,"o":"m 157 986 l 765 986 l 765 921 l 225 921 l 225 529 l 711 529 l 711 464 l 225 464 l 225 65 l 785 65 l 785 0 l 157 0 l 157 986 m 219 1263 l 292 1263 l 407 1078 l 360 1078 l 219 1263 m 378 1263 l 450 1263 l 565 1078 l 518 1078 l 378 1263 z "},"Ë":{"ha":888,"x_min":157,"x_max":785,"o":"m 157 986 l 765 986 l 765 921 l 225 921 l 225 529 l 711 529 l 711 464 l 225 464 l 225 65 l 785 65 l 785 0 l 157 0 l 157 986 m 279 1113 q 293 1146 279 1132 q 325 1160 307 1160 q 358 1146 343 1160 q 372 1113 372 1132 q 358 1079 372 1093 q 325 1065 343 1065 q 293 1079 307 1065 q 279 1113 279 1093 l 279 1113 m 521 1113 q 535 1146 521 1132 q 568 1160 550 1160 q 599 1146 585 1160 q 614 1113 614 1132 q 599 1079 614 1093 q 568 1065 585 1065 q 535 1079 550 1065 q 521 1113 521 1093 l 521 1113 z "},"Ė":{"ha":888,"x_min":157,"x_max":785,"o":"m 157 986 l 765 986 l 765 921 l 225 921 l 225 529 l 711 529 l 711 464 l 225 464 l 225 65 l 785 65 l 785 0 l 157 0 l 157 986 m 401 1111 q 417 1144 401 1131 q 450 1157 432 1157 q 483 1144 469 1157 q 497 1111 497 1131 q 483 1077 497 1090 q 450 1064 469 1064 q 417 1078 432 1064 q 401 1111 401 1092 z "},"Ẹ":{"ha":888,"x_min":157,"x_max":785,"o":"m 157 986 l 765 986 l 765 921 l 225 921 l 225 529 l 711 529 l 711 464 l 225 464 l 225 65 l 785 65 l 785 0 l 157 0 l 157 986 m 400 -121 q 415 -88 400 -101 q 449 -75 431 -75 q 482 -88 468 -75 q 496 -121 496 -101 q 482 -155 496 -142 q 449 -168 468 -168 q 415 -154 431 -168 q 400 -121 400 -140 z "},"È":{"ha":888,"x_min":157,"x_max":785,"o":"m 157 986 l 765 986 l 765 921 l 225 921 l 225 529 l 711 529 l 711 464 l 225 464 l 225 65 l 785 65 l 785 0 l 157 0 l 157 986 m 288 1240 l 360 1240 l 475 1056 l 428 1056 l 288 1240 z "},"Ẻ":{"ha":888,"x_min":157,"x_max":785,"o":"m 157 986 l 765 986 l 765 921 l 225 921 l 225 529 l 711 529 l 711 464 l 225 464 l 225 65 l 785 65 l 785 0 l 157 0 l 157 986 m 444 1065 q 494 1111 475 1090 q 514 1160 514 1132 q 500 1197 514 1183 q 464 1211 486 1211 q 423 1199 439 1211 q 389 1163 407 1188 l 360 1185 q 410 1240 383 1222 q 471 1257 438 1257 q 517 1247 497 1257 q 548 1215 536 1236 q 560 1163 560 1194 q 533 1092 560 1121 q 469 1035 507 1063 l 444 1065 z "},"Ȇ":{"ha":888,"x_min":157,"x_max":785,"o":"m 157 986 l 765 986 l 765 921 l 225 921 l 225 529 l 711 529 l 711 464 l 225 464 l 225 65 l 785 65 l 785 0 l 157 0 l 157 986 m 444 1260 q 538 1231 497 1260 q 603 1151 578 1203 q 632 1031 628 1100 l 585 1031 q 563 1122 582 1081 q 515 1187 544 1163 q 444 1211 485 1211 q 376 1187 406 1211 q 328 1122 346 1163 q 308 1031 311 1081 l 260 1031 q 288 1151 264 1100 q 353 1231 313 1203 q 444 1260 393 1260 z "},"Ē":{"ha":888,"x_min":157,"x_max":785,"o":"m 157 986 l 765 986 l 765 921 l 225 921 l 225 529 l 711 529 l 711 464 l 225 464 l 225 65 l 785 65 l 785 0 l 157 0 l 157 986 m 283 1111 l 611 1111 l 611 1061 l 283 1061 l 283 1111 z "},"Ę":{"ha":888,"x_min":157,"x_max":836,"o":"m 157 986 l 765 986 l 765 921 l 225 921 l 225 529 l 711 529 l 711 464 l 225 464 l 225 65 l 785 65 l 785 0 l 157 0 l 157 986 m 711 -275 q 624 -241 661 -275 q 588 -151 588 -207 q 626 -56 588 -100 q 719 15 664 -11 l 785 0 q 682 -71 719 -35 q 644 -147 644 -107 q 667 -205 644 -185 q 717 -225 690 -225 q 767 -207 744 -225 q 806 -161 789 -189 l 836 -193 q 784 -251 818 -228 q 711 -275 750 -275 z "},"Ẽ":{"ha":888,"x_min":157,"x_max":785,"o":"m 157 986 l 765 986 l 765 921 l 225 921 l 225 529 l 711 529 l 711 464 l 225 464 l 225 65 l 785 65 l 785 0 l 157 0 l 157 986 m 553 1085 q 485 1105 511 1085 q 438 1149 460 1125 q 401 1183 419 1167 q 357 1199 382 1199 q 324 1187 340 1199 q 297 1149 308 1175 q 285 1079 286 1124 l 243 1081 q 258 1173 242 1135 q 300 1231 274 1211 q 360 1250 326 1250 q 422 1230 397 1250 q 468 1188 447 1210 q 506 1150 486 1167 q 551 1133 525 1133 q 598 1161 579 1133 q 619 1256 617 1189 l 661 1254 q 648 1160 663 1199 q 608 1103 633 1122 q 553 1085 583 1085 z "},"F":{"ha":803,"x_min":157,"x_max":710,"o":"m 157 986 l 710 986 l 710 921 l 225 921 l 225 514 l 654 514 l 654 450 l 225 450 l 225 0 l 157 0 l 157 986 z "},"G":{"ha":1029,"x_min":94,"x_max":901,"o":"m 901 69 q 841 38 876 53 q 765 13 806 24 q 683 -5 725 1 q 603 -11 640 -11 q 392 27 486 -11 q 232 133 299 65 q 130 290 165 200 q 94 483 94 379 q 134 690 94 596 q 243 853 174 785 q 404 960 313 922 q 599 997 496 997 q 745 978 676 997 q 869 925 814 958 l 844 864 q 772 898 813 883 q 690 921 732 913 q 606 929 647 929 q 431 896 511 929 q 290 803 350 863 q 197 663 231 743 q 164 488 164 582 q 195 317 164 396 q 284 180 226 239 q 422 88 342 121 q 601 56 503 56 q 724 69 660 56 q 833 110 788 83 l 833 383 l 611 383 l 611 449 l 901 449 l 901 69 z "},"Ğ":{"ha":1029,"x_min":94,"x_max":901,"o":"m 901 69 q 841 38 876 53 q 765 13 806 24 q 683 -5 725 1 q 603 -11 640 -11 q 392 27 486 -11 q 232 133 299 65 q 130 290 165 200 q 94 483 94 379 q 134 690 94 596 q 243 853 174 785 q 404 960 313 922 q 599 997 496 997 q 745 978 676 997 q 869 925 814 958 l 844 864 q 772 898 813 883 q 690 921 732 913 q 606 929 647 929 q 431 896 511 929 q 290 803 350 863 q 197 663 231 743 q 164 488 164 582 q 195 317 164 396 q 284 180 226 239 q 422 88 342 121 q 601 56 503 56 q 724 69 660 56 q 833 110 788 83 l 833 383 l 611 383 l 611 449 l 901 449 l 901 69 m 563 1051 q 470 1080 511 1051 q 405 1160 429 1108 q 375 1281 381 1213 l 422 1281 q 444 1190 426 1232 q 493 1124 463 1149 q 563 1100 524 1100 q 632 1124 603 1100 q 678 1190 661 1149 q 699 1281 696 1232 l 747 1281 q 719 1160 743 1211 q 654 1080 694 1108 q 563 1051 614 1051 z "},"Ǧ":{"ha":1029,"x_min":94,"x_max":901,"o":"m 901 69 q 841 38 876 53 q 765 13 806 24 q 683 -5 725 1 q 603 -11 640 -11 q 392 27 486 -11 q 232 133 299 65 q 130 290 165 200 q 94 483 94 379 q 134 690 94 596 q 243 853 174 785 q 404 960 313 922 q 599 997 496 997 q 745 978 676 997 q 869 925 814 958 l 844 864 q 772 898 813 883 q 690 921 732 913 q 606 929 647 929 q 431 896 511 929 q 290 803 350 863 q 197 663 231 743 q 164 488 164 582 q 195 317 164 396 q 284 180 226 239 q 422 88 342 121 q 601 56 503 56 q 724 69 660 56 q 833 110 788 83 l 833 383 l 611 383 l 611 449 l 901 449 l 901 69 m 419 1254 l 572 1083 l 542 1079 l 696 1254 l 761 1254 l 560 1033 l 558 1033 l 354 1254 l 419 1254 z "},"Ĝ":{"ha":1029,"x_min":94,"x_max":901,"o":"m 901 69 q 841 38 876 53 q 765 13 806 24 q 683 -5 725 1 q 603 -11 640 -11 q 392 27 486 -11 q 232 133 299 65 q 130 290 165 200 q 94 483 94 379 q 134 690 94 596 q 243 853 174 785 q 404 960 313 922 q 599 997 496 997 q 745 978 676 997 q 869 925 814 958 l 844 864 q 772 898 813 883 q 690 921 732 913 q 606 929 647 929 q 431 896 511 929 q 290 803 350 863 q 197 663 231 743 q 164 488 164 582 q 195 317 164 396 q 284 180 226 239 q 422 88 342 121 q 601 56 503 56 q 724 69 660 56 q 833 110 788 83 l 833 383 l 611 383 l 611 449 l 901 449 l 901 69 m 696 1068 l 544 1238 l 574 1242 l 421 1068 l 356 1068 l 557 1289 l 558 1289 l 761 1068 l 696 1068 z "},"Ģ":{"ha":1029,"x_min":94,"x_max":901,"o":"m 901 69 q 841 38 876 53 q 765 13 806 24 q 683 -5 725 1 q 603 -11 640 -11 q 392 27 486 -11 q 232 133 299 65 q 130 290 165 200 q 94 483 94 379 q 134 690 94 596 q 243 853 174 785 q 404 960 313 922 q 599 997 496 997 q 745 978 676 997 q 869 925 814 958 l 844 864 q 772 898 813 883 q 690 921 732 913 q 606 929 647 929 q 431 896 511 929 q 290 803 350 863 q 197 663 231 743 q 164 488 164 582 q 195 317 164 396 q 284 180 226 239 q 422 88 342 121 q 601 56 503 56 q 724 69 660 56 q 833 110 788 83 l 833 383 l 611 383 l 611 449 l 901 449 l 901 69 m 482 -271 l 449 -246 q 501 -169 486 -218 q 508 -65 515 -121 l 571 -65 q 568 -141 575 -101 q 541 -215 561 -181 q 482 -271 521 -249 z "},"Ġ":{"ha":1029,"x_min":94,"x_max":901,"o":"m 901 69 q 841 38 876 53 q 765 13 806 24 q 683 -5 725 1 q 603 -11 640 -11 q 392 27 486 -11 q 232 133 299 65 q 130 290 165 200 q 94 483 94 379 q 134 690 94 596 q 243 853 174 785 q 404 960 313 922 q 599 997 496 997 q 745 978 676 997 q 869 925 814 958 l 844 864 q 772 898 813 883 q 690 921 732 913 q 606 929 647 929 q 431 896 511 929 q 290 803 350 863 q 197 663 231 743 q 164 488 164 582 q 195 317 164 396 q 284 180 226 239 q 422 88 342 121 q 601 56 503 56 q 724 69 660 56 q 833 110 788 83 l 833 383 l 611 383 l 611 449 l 901 449 l 901 69 m 513 1104 q 528 1137 513 1124 q 561 1150 543 1150 q 594 1137 581 1150 q 608 1104 608 1124 q 594 1070 608 1083 q 561 1057 581 1057 q 528 1071 543 1057 q 513 1104 513 1085 z "},"H":{"ha":1044,"x_min":157,"x_max":888,"o":"m 888 986 l 888 0 l 819 0 l 819 464 l 225 464 l 225 0 l 157 0 l 157 986 l 225 986 l 225 528 l 819 528 l 819 986 l 888 986 z "},"Ħ":{"ha":1267,"x_min":157,"x_max":1110,"o":"m 157 739 l 1110 739 l 1110 686 l 157 686 l 157 739 m 971 986 l 971 0 l 903 0 l 903 464 l 308 464 l 308 0 l 240 0 l 240 986 l 308 986 l 308 528 l 903 528 l 903 986 l 971 986 z "},"Ĥ":{"ha":1044,"x_min":157,"x_max":888,"o":"m 888 986 l 888 0 l 819 0 l 819 464 l 225 464 l 225 0 l 157 0 l 157 986 l 225 986 l 225 528 l 819 528 l 819 986 l 888 986 m 658 1068 l 507 1238 l 536 1242 l 383 1068 l 318 1068 l 519 1289 l 521 1289 l 724 1068 l 658 1068 z "},"I":{"ha":382,"x_min":157,"x_max":225,"o":"m 157 986 l 225 986 l 225 0 l 157 0 l 157 986 z "},"Ĳ":{"ha":840,"x_min":157,"x_max":683,"o":"m 157 986 l 225 986 l 225 0 l 157 0 l 157 986 m 683 149 q 643 -39 683 39 q 535 -158 603 -117 q 383 -201 468 -199 l 383 -201 l 383 -136 q 549 -57 483 -131 q 615 153 615 17 l 615 986 l 683 986 l 683 149 z "},"Í":{"ha":382,"x_min":157,"x_max":363,"o":"m 157 986 l 225 986 l 225 0 l 157 0 l 157 986 m 363 1228 l 215 1043 l 168 1043 l 289 1228 l 363 1228 z "},"Ĭ":{"ha":382,"x_min":7,"x_max":379,"o":"m 157 986 l 225 986 l 225 0 l 157 0 l 157 986 m 194 1058 q 102 1087 143 1058 q 37 1167 61 1115 q 7 1288 13 1219 l 54 1288 q 76 1197 58 1239 q 125 1131 94 1156 q 194 1107 156 1107 q 264 1131 235 1107 q 310 1197 293 1156 q 331 1288 328 1239 l 379 1288 q 351 1167 375 1218 q 286 1087 326 1115 q 194 1058 246 1058 z "},"Î":{"ha":382,"x_min":-12,"x_max":393,"o":"m 157 986 l 225 986 l 225 0 l 157 0 l 157 986 m 328 1075 l 176 1244 l 206 1249 l 53 1075 l -12 1075 l 189 1296 l 190 1296 l 393 1075 l 328 1075 z "},"Ȉ":{"ha":382,"x_min":-37,"x_max":308,"o":"m 157 986 l 225 986 l 225 0 l 157 0 l 157 986 m -37 1263 l 35 1263 l 150 1078 l 103 1078 l -37 1263 m 121 1263 l 193 1263 l 308 1078 l 261 1078 l 121 1263 z "},"Ï":{"ha":382,"x_min":22,"x_max":357,"o":"m 157 986 l 225 986 l 225 0 l 157 0 l 157 986 m 22 1113 q 36 1146 22 1132 q 68 1160 50 1160 q 101 1146 86 1160 q 115 1113 115 1132 q 101 1079 115 1093 q 68 1065 86 1065 q 36 1079 50 1065 q 22 1113 22 1093 l 22 1113 m 264 1113 q 278 1146 264 1132 q 311 1160 293 1160 q 342 1146 328 1160 q 357 1113 357 1132 q 342 1079 357 1093 q 311 1065 328 1065 q 278 1079 293 1065 q 264 1113 264 1093 l 264 1113 z "},"İ":{"ha":382,"x_min":144,"x_max":240,"o":"m 157 986 l 225 986 l 225 0 l 157 0 l 157 986 m 144 1111 q 160 1144 144 1131 q 193 1157 175 1157 q 226 1144 213 1157 q 240 1111 240 1131 q 226 1077 240 1090 q 193 1064 213 1064 q 160 1078 175 1064 q 144 1111 144 1092 z "},"Ị":{"ha":382,"x_min":143,"x_max":239,"o":"m 157 986 l 225 986 l 225 0 l 157 0 l 157 986 m 143 -121 q 158 -88 143 -101 q 192 -75 174 -75 q 225 -88 211 -75 q 239 -121 239 -101 q 225 -155 239 -142 q 192 -168 211 -168 q 158 -154 174 -168 q 143 -121 143 -140 z "},"Ì":{"ha":382,"x_min":31,"x_max":225,"o":"m 157 986 l 225 986 l 225 0 l 157 0 l 157 986 m 31 1240 l 103 1240 l 218 1056 l 171 1056 l 31 1240 z "},"Ỉ":{"ha":382,"x_min":103,"x_max":303,"o":"m 157 986 l 225 986 l 225 0 l 157 0 l 157 986 m 188 1065 q 238 1111 218 1090 q 257 1160 257 1132 q 243 1197 257 1183 q 207 1211 229 1211 q 166 1199 182 1211 q 132 1163 150 1188 l 103 1185 q 153 1240 126 1222 q 214 1257 181 1257 q 260 1247 240 1257 q 291 1215 279 1236 q 303 1163 303 1194 q 276 1092 303 1121 q 213 1035 250 1063 l 188 1065 z "},"Ȋ":{"ha":382,"x_min":3,"x_max":375,"o":"m 157 986 l 225 986 l 225 0 l 157 0 l 157 986 m 188 1260 q 281 1231 240 1260 q 346 1151 321 1203 q 375 1031 371 1100 l 328 1031 q 306 1122 325 1081 q 258 1187 288 1163 q 188 1211 228 1211 q 119 1187 149 1211 q 72 1122 89 1163 q 51 1031 54 1081 l 3 1031 q 31 1151 7 1100 q 96 1231 56 1203 q 188 1260 136 1260 z "},"Ī":{"ha":382,"x_min":26,"x_max":354,"o":"m 157 986 l 225 986 l 225 0 l 157 0 l 157 986 m 26 1111 l 354 1111 l 354 1061 l 26 1061 l 26 1111 z "},"Į":{"ha":364,"x_min":29,"x_max":278,"o":"m 153 -275 q 66 -243 103 -275 q 29 -156 29 -211 q 67 -58 29 -103 q 161 13 106 -14 l 208 8 l 221 0 q 122 -69 157 -33 q 86 -147 86 -106 q 109 -205 86 -185 q 160 -225 132 -225 q 209 -207 188 -225 q 247 -161 231 -189 l 278 -193 q 226 -251 260 -228 q 153 -275 192 -275 m 157 986 l 225 986 l 225 0 l 157 0 l 157 986 z "},"Ĩ":{"ha":382,"x_min":-15,"x_max":406,"o":"m 157 986 l 225 986 l 225 0 l 157 0 l 157 986 m 296 1085 q 228 1105 254 1085 q 181 1149 203 1125 q 144 1183 163 1167 q 100 1199 125 1199 q 67 1187 83 1199 q 40 1149 51 1175 q 28 1079 29 1124 l -14 1081 q 1 1173 -15 1135 q 43 1231 17 1211 q 103 1250 69 1250 q 165 1230 140 1250 q 211 1188 190 1210 q 249 1150 229 1167 q 294 1133 268 1133 q 341 1161 322 1133 q 363 1256 360 1189 l 404 1254 q 391 1160 406 1199 q 351 1103 376 1122 q 296 1085 326 1085 z "},"J":{"ha":458,"x_min":1,"x_max":301,"o":"m 301 149 q 261 -39 301 39 q 153 -158 221 -117 q 1 -201 86 -199 l 1 -201 l 1 -136 q 167 -57 101 -131 q 233 153 233 17 l 233 986 l 301 986 l 301 149 z "},"Ĵ":{"ha":458,"x_min":1,"x_max":461,"o":"m 301 149 q 261 -39 301 39 q 153 -158 221 -117 q 1 -201 86 -199 l 1 -201 l 1 -136 q 167 -57 101 -131 q 233 153 233 17 l 233 986 l 301 986 l 301 149 m 396 1075 l 244 1244 l 274 1249 l 121 1075 l 56 1075 l 257 1296 l 258 1296 l 461 1075 l 396 1075 z "},"K":{"ha":910,"x_min":157,"x_max":849,"o":"m 226 542 l 224 493 l 228 506 l 715 986 l 803 986 l 394 582 l 849 0 l 763 0 l 344 539 l 225 425 l 226 0 l 157 0 l 157 986 l 226 986 l 226 542 z "},"Ķ":{"ha":910,"x_min":157,"x_max":849,"o":"m 226 542 l 224 493 l 228 506 l 715 986 l 803 986 l 394 582 l 849 0 l 763 0 l 344 539 l 225 425 l 226 0 l 157 0 l 157 986 l 226 986 l 226 542 m 375 -271 l 342 -246 q 394 -169 379 -218 q 401 -65 408 -121 l 464 -65 q 461 -141 468 -101 q 434 -215 454 -181 q 375 -271 414 -249 z "},"L":{"ha":838,"x_min":157,"x_max":765,"o":"m 157 986 l 225 986 l 225 65 l 765 65 l 765 0 l 157 0 l 157 986 z "},"Ǉ":{"ha":1296,"x_min":157,"x_max":1139,"o":"m 157 986 l 225 986 l 225 65 l 765 65 l 765 0 l 157 0 l 157 986 m 1139 149 q 1099 -39 1139 39 q 991 -158 1058 -117 q 839 -201 924 -199 l 839 -201 l 839 -136 q 1005 -57 939 -131 q 1071 153 1071 17 l 1071 986 l 1139 986 l 1139 149 z "},"Ĺ":{"ha":838,"x_min":157,"x_max":765,"o":"m 157 986 l 225 986 l 225 65 l 765 65 l 765 0 l 157 0 l 157 986 m 361 1228 l 214 1043 l 167 1043 l 288 1228 l 361 1228 z "},"Ľ":{"ha":818,"x_min":157,"x_max":765,"o":"m 157 986 l 225 986 l 225 65 l 765 65 l 765 0 l 157 0 l 157 986 m 449 790 l 417 818 q 460 890 446 846 q 465 983 475 935 l 525 993 q 525 917 533 956 q 497 846 517 879 q 449 790 478 813 l 449 790 z "},"Ļ":{"ha":838,"x_min":157,"x_max":765,"o":"m 157 986 l 225 986 l 225 65 l 765 65 l 765 0 l 157 0 l 157 986 m 381 -271 l 347 -246 q 399 -169 385 -218 q 407 -65 414 -121 l 469 -65 q 467 -141 474 -101 q 440 -215 460 -181 q 381 -271 419 -249 z "},"Ŀ":{"ha":867,"x_min":157,"x_max":803,"o":"m 157 986 l 225 986 l 225 65 l 765 65 l 765 0 l 157 0 l 157 986 m 710 524 q 724 557 710 543 q 756 571 738 571 q 788 557 774 571 q 803 524 803 543 q 788 490 803 503 q 756 476 774 476 q 724 490 738 476 q 710 524 710 503 l 710 524 z "},"ǈ":{"ha":1149,"x_min":157,"x_max":1057,"o":"m 157 986 l 225 986 l 225 65 l 765 65 l 765 0 l 157 0 l 157 986 m 938 -261 l 896 -221 q 953 -131 932 -185 q 975 -8 975 -76 l 975 543 l 1042 543 l 1042 -7 q 1016 -158 1042 -94 q 938 -261 990 -221 m 961 743 q 976 776 961 763 q 1010 789 992 789 q 1043 776 1029 789 q 1057 743 1057 763 q 1043 709 1057 722 q 1010 696 1029 696 q 976 710 992 696 q 961 743 961 724 z "},"Ł":{"ha":818,"x_min":36,"x_max":765,"o":"m 506 599 l 517 543 l 47 379 l 36 435 l 506 599 m 157 986 l 225 986 l 225 65 l 765 65 l 765 0 l 157 0 l 157 986 z "},"M":{"ha":1258,"x_min":157,"x_max":1101,"o":"m 157 0 l 157 1008 l 158 1008 l 644 318 l 615 322 l 1100 1008 l 1101 1008 l 1101 0 l 1035 0 l 1035 851 l 1040 818 l 629 239 l 626 239 l 213 818 l 224 849 l 224 0 l 157 0 z "},"N":{"ha":1142,"x_min":157,"x_max":985,"o":"m 982 -24 l 204 853 l 222 867 l 224 0 l 157 0 l 157 1007 l 161 1007 l 939 124 l 921 118 l 919 986 l 985 986 l 985 -24 l 982 -24 z "},"Ǌ":{"ha":1600,"x_min":157,"x_max":1443,"o":"m 982 -24 l 204 853 l 222 867 l 224 0 l 157 0 l 157 1007 l 161 1007 l 939 124 l 921 118 l 919 986 l 985 986 l 985 -24 l 982 -24 m 1443 149 q 1403 -39 1443 39 q 1295 -158 1363 -117 q 1143 -201 1228 -199 l 1143 -201 l 1143 -136 q 1309 -57 1243 -131 q 1375 153 1375 17 l 1375 986 l 1443 986 l 1443 149 z "},"Ń":{"ha":1142,"x_min":157,"x_max":985,"o":"m 982 -24 l 204 853 l 222 867 l 224 0 l 157 0 l 157 1007 l 161 1007 l 939 124 l 921 118 l 919 986 l 985 986 l 985 -24 l 982 -24 m 735 1221 l 588 1036 l 540 1036 l 661 1221 l 735 1221 z "},"Ň":{"ha":1142,"x_min":157,"x_max":985,"o":"m 982 -24 l 204 853 l 222 867 l 224 0 l 157 0 l 157 1007 l 161 1007 l 939 124 l 921 118 l 919 986 l 985 986 l 985 -24 l 982 -24 m 424 1254 l 576 1083 l 546 1079 l 700 1254 l 765 1254 l 564 1033 l 563 1033 l 358 1254 l 424 1254 z "},"Ņ":{"ha":1142,"x_min":157,"x_max":985,"o":"m 982 -24 l 204 853 l 222 867 l 224 0 l 157 0 l 157 1007 l 161 1007 l 939 124 l 921 118 l 919 986 l 985 986 l 985 -24 l 982 -24 m 515 -271 l 482 -246 q 534 -169 519 -218 q 542 -65 549 -121 l 604 -65 q 601 -141 608 -101 q 574 -215 594 -181 q 515 -271 554 -249 z "},"Ŋ":{"ha":1124,"x_min":149,"x_max":975,"o":"m 972 -24 l 196 857 l 213 867 l 214 0 l 149 0 l 149 1007 l 151 1007 l 931 119 l 911 118 l 910 986 l 975 986 l 975 -11 l 972 -24 m 975 75 l 975 -7 q 949 -156 975 -92 q 872 -261 922 -219 l 831 -221 q 888 -131 867 -185 q 910 -8 910 -76 l 910 124 l 975 75 z "},"Ɲ":{"ha":1132,"x_min":69,"x_max":975,"o":"m 972 -24 l 196 856 l 213 867 l 214 0 l 149 0 l 149 1007 l 151 1007 l 931 124 l 911 118 l 910 986 l 975 986 l 975 -11 l 972 -24 m 214 75 l 214 -7 q 189 -156 214 -92 q 114 -261 164 -219 l 69 -221 q 127 -131 106 -185 q 149 -8 149 -76 l 149 124 l 214 75 z "},"ǋ":{"ha":1453,"x_min":157,"x_max":1361,"o":"m 982 -24 l 204 853 l 222 867 l 224 0 l 157 0 l 157 1007 l 161 1007 l 939 124 l 921 118 l 919 986 l 985 986 l 985 -24 l 982 -24 m 1242 -261 l 1200 -221 q 1258 -131 1236 -185 q 1279 -8 1279 -76 l 1279 543 l 1346 543 l 1346 -7 q 1320 -158 1346 -94 q 1242 -261 1294 -221 m 1265 743 q 1281 776 1265 763 q 1314 789 1296 789 q 1347 776 1333 789 q 1361 743 1361 763 q 1347 709 1361 722 q 1314 696 1333 696 q 1281 710 1296 696 q 1265 743 1265 724 z "},"Ñ":{"ha":1142,"x_min":157,"x_max":985,"o":"m 982 -24 l 204 853 l 222 867 l 224 0 l 157 0 l 157 1007 l 161 1007 l 939 124 l 921 118 l 919 986 l 985 986 l 985 -24 l 982 -24 m 668 1078 q 601 1098 626 1078 q 553 1142 575 1118 q 516 1176 535 1160 q 472 1192 497 1192 q 440 1180 456 1192 q 413 1142 424 1168 q 400 1072 401 1117 l 358 1074 q 373 1166 357 1128 q 415 1224 389 1204 q 475 1243 442 1243 q 538 1223 513 1243 q 583 1181 563 1203 q 621 1143 601 1160 q 667 1126 640 1126 q 713 1154 694 1126 q 735 1249 732 1182 l 776 1247 q 763 1153 778 1192 q 724 1097 749 1115 q 668 1078 699 1078 z "},"O":{"ha":1197,"x_min":94,"x_max":1103,"o":"m 94 492 q 133 687 94 596 q 242 848 172 778 q 402 958 311 918 q 597 997 493 997 q 793 958 701 997 q 954 848 885 918 q 1063 687 1024 778 q 1103 492 1103 596 q 1063 297 1103 388 q 954 136 1024 206 q 793 28 885 67 q 597 -11 701 -11 q 402 26 493 -11 q 242 132 311 64 q 133 292 172 200 q 94 492 94 383 m 164 490 q 197 321 164 400 q 290 182 231 242 q 428 88 350 122 q 596 54 507 54 q 767 88 688 54 q 906 182 846 122 q 999 321 965 242 q 1033 492 1033 400 q 999 662 1033 582 q 906 802 965 742 q 767 897 846 863 q 597 932 688 932 q 426 897 506 932 q 288 800 347 861 q 197 659 229 739 q 164 490 164 579 z "},"Ó":{"ha":1197,"x_min":94,"x_max":1103,"o":"m 94 492 q 133 687 94 596 q 242 848 172 778 q 402 958 311 918 q 597 997 493 997 q 793 958 701 997 q 954 848 885 918 q 1063 687 1024 778 q 1103 492 1103 596 q 1063 297 1103 388 q 954 136 1024 206 q 793 28 885 67 q 597 -11 701 -11 q 402 26 493 -11 q 242 132 311 64 q 133 292 172 200 q 94 492 94 383 m 164 490 q 197 321 164 400 q 290 182 231 242 q 428 88 350 122 q 596 54 507 54 q 767 88 688 54 q 906 182 846 122 q 999 321 965 242 q 1033 492 1033 400 q 999 662 1033 582 q 906 802 965 742 q 767 897 846 863 q 597 932 688 932 q 426 897 506 932 q 288 800 347 861 q 197 659 229 739 q 164 490 164 579 m 769 1224 l 622 1039 l 575 1039 l 696 1224 l 769 1224 z "},"Ŏ":{"ha":1197,"x_min":94,"x_max":1103,"o":"m 94 492 q 133 687 94 596 q 242 848 172 778 q 402 958 311 918 q 597 997 493 997 q 793 958 701 997 q 954 848 885 918 q 1063 687 1024 778 q 1103 492 1103 596 q 1063 297 1103 388 q 954 136 1024 206 q 793 28 885 67 q 597 -11 701 -11 q 402 26 493 -11 q 242 132 311 64 q 133 292 172 200 q 94 492 94 383 m 164 490 q 197 321 164 400 q 290 182 231 242 q 428 88 350 122 q 596 54 507 54 q 767 88 688 54 q 906 182 846 122 q 999 321 965 242 q 1033 492 1033 400 q 999 662 1033 582 q 906 802 965 742 q 767 897 846 863 q 597 932 688 932 q 426 897 506 932 q 288 800 347 861 q 197 659 229 739 q 164 490 164 579 m 601 1054 q 509 1083 550 1054 q 444 1163 468 1111 q 414 1283 419 1215 l 461 1283 q 483 1193 465 1235 q 532 1127 501 1151 q 601 1103 563 1103 q 671 1127 642 1103 q 717 1193 700 1151 q 738 1283 735 1235 l 786 1283 q 758 1163 782 1214 q 693 1083 733 1111 q 601 1054 653 1054 z "},"Ô":{"ha":1197,"x_min":94,"x_max":1103,"o":"m 94 492 q 133 687 94 596 q 242 848 172 778 q 402 958 311 918 q 597 997 493 997 q 793 958 701 997 q 954 848 885 918 q 1063 687 1024 778 q 1103 492 1103 596 q 1063 297 1103 388 q 954 136 1024 206 q 793 28 885 67 q 597 -11 701 -11 q 402 26 493 -11 q 242 132 311 64 q 133 292 172 200 q 94 492 94 383 m 164 490 q 197 321 164 400 q 290 182 231 242 q 428 88 350 122 q 596 54 507 54 q 767 88 688 54 q 906 182 846 122 q 999 321 965 242 q 1033 492 1033 400 q 999 662 1033 582 q 906 802 965 742 q 767 897 846 863 q 597 932 688 932 q 426 897 506 932 q 288 800 347 861 q 197 659 229 739 q 164 490 164 579 m 735 1071 l 583 1240 l 613 1244 l 460 1071 l 394 1071 l 596 1292 l 597 1292 l 800 1071 l 735 1071 z "},"Ố":{"ha":1197,"x_min":94,"x_max":1103,"o":"m 94 492 q 133 687 94 596 q 242 848 172 778 q 402 958 311 918 q 597 997 493 997 q 793 958 701 997 q 954 848 885 918 q 1063 687 1024 778 q 1103 492 1103 596 q 1063 297 1103 388 q 954 136 1024 206 q 793 28 885 67 q 597 -11 701 -11 q 402 26 493 -11 q 242 132 311 64 q 133 292 172 200 q 94 492 94 383 m 164 490 q 197 321 164 400 q 290 182 231 242 q 428 88 350 122 q 596 54 507 54 q 767 88 688 54 q 906 182 846 122 q 999 321 965 242 q 1033 492 1033 400 q 999 662 1033 582 q 906 802 965 742 q 767 897 846 863 q 597 932 688 932 q 426 897 506 932 q 288 800 347 861 q 197 659 229 739 q 164 490 164 579 m 735 1101 l 583 1271 l 613 1275 l 460 1101 l 394 1101 l 596 1322 l 597 1322 l 800 1101 l 735 1101 m 911 1410 l 764 1225 l 717 1225 l 838 1410 l 911 1410 z "},"Ộ":{"ha":1197,"x_min":94,"x_max":1103,"o":"m 94 492 q 133 687 94 596 q 242 848 172 778 q 402 958 311 918 q 597 997 493 997 q 793 958 701 997 q 954 848 885 918 q 1063 687 1024 778 q 1103 492 1103 596 q 1063 297 1103 388 q 954 136 1024 206 q 793 28 885 67 q 597 -11 701 -11 q 402 26 493 -11 q 242 132 311 64 q 133 292 172 200 q 94 492 94 383 m 164 490 q 197 321 164 400 q 290 182 231 242 q 428 88 350 122 q 596 54 507 54 q 767 88 688 54 q 906 182 846 122 q 999 321 965 242 q 1033 492 1033 400 q 999 662 1033 582 q 906 802 965 742 q 767 897 846 863 q 597 932 688 932 q 426 897 506 932 q 288 800 347 861 q 197 659 229 739 q 164 490 164 579 m 550 -121 q 565 -88 550 -101 q 599 -75 581 -75 q 632 -88 618 -75 q 646 -121 646 -101 q 632 -155 646 -142 q 599 -168 618 -168 q 565 -154 581 -168 q 550 -121 550 -140 m 735 1071 l 583 1240 l 613 1244 l 460 1071 l 394 1071 l 596 1292 l 597 1292 l 800 1071 l 735 1071 z "},"Ồ":{"ha":1197,"x_min":94,"x_max":1103,"o":"m 94 492 q 133 687 94 596 q 242 848 172 778 q 402 958 311 918 q 597 997 493 997 q 793 958 701 997 q 954 848 885 918 q 1063 687 1024 778 q 1103 492 1103 596 q 1063 297 1103 388 q 954 136 1024 206 q 793 28 885 67 q 597 -11 701 -11 q 402 26 493 -11 q 242 132 311 64 q 133 292 172 200 q 94 492 94 383 m 164 490 q 197 321 164 400 q 290 182 231 242 q 428 88 350 122 q 596 54 507 54 q 767 88 688 54 q 906 182 846 122 q 999 321 965 242 q 1033 492 1033 400 q 999 662 1033 582 q 906 802 965 742 q 767 897 846 863 q 597 932 688 932 q 426 897 506 932 q 288 800 347 861 q 197 659 229 739 q 164 490 164 579 m 728 1093 l 576 1263 l 606 1267 l 453 1093 l 388 1093 l 589 1314 l 590 1314 l 793 1093 l 728 1093 m 243 1421 l 315 1421 l 431 1236 l 383 1236 l 243 1421 z "},"Ổ":{"ha":1197,"x_min":94,"x_max":1103,"o":"m 94 492 q 133 687 94 596 q 242 848 172 778 q 402 958 311 918 q 597 997 493 997 q 793 958 701 997 q 954 848 885 918 q 1063 687 1024 778 q 1103 492 1103 596 q 1063 297 1103 388 q 954 136 1024 206 q 793 28 885 67 q 597 -11 701 -11 q 402 26 493 -11 q 242 132 311 64 q 133 292 172 200 q 94 492 94 383 m 164 490 q 197 321 164 400 q 290 182 231 242 q 428 88 350 122 q 596 54 507 54 q 767 88 688 54 q 906 182 846 122 q 999 321 965 242 q 1033 492 1033 400 q 999 662 1033 582 q 906 802 965 742 q 767 897 846 863 q 597 932 688 932 q 426 897 506 932 q 288 800 347 861 q 197 659 229 739 q 164 490 164 579 m 729 1101 l 578 1271 l 607 1275 l 454 1101 l 389 1101 l 590 1322 l 592 1322 l 794 1101 l 729 1101 m 760 1238 q 810 1283 790 1263 q 829 1332 829 1304 q 815 1369 829 1356 q 779 1383 801 1383 q 738 1372 754 1383 q 704 1335 722 1360 l 675 1357 q 726 1412 699 1394 q 786 1429 753 1429 q 832 1419 813 1429 q 863 1388 851 1408 q 875 1335 875 1367 q 849 1264 875 1293 q 785 1207 822 1235 l 760 1238 z "},"Ỗ":{"ha":1197,"x_min":94,"x_max":1103,"o":"m 94 492 q 133 687 94 596 q 242 848 172 778 q 402 958 311 918 q 597 997 493 997 q 793 958 701 997 q 954 848 885 918 q 1063 687 1024 778 q 1103 492 1103 596 q 1063 297 1103 388 q 954 136 1024 206 q 793 28 885 67 q 597 -11 701 -11 q 402 26 493 -11 q 242 132 311 64 q 133 292 172 200 q 94 492 94 383 m 164 490 q 197 321 164 400 q 290 182 231 242 q 428 88 350 122 q 596 54 507 54 q 767 88 688 54 q 906 182 846 122 q 999 321 965 242 q 1033 492 1033 400 q 999 662 1033 582 q 906 802 965 742 q 767 897 846 863 q 597 932 688 932 q 426 897 506 932 q 288 800 347 861 q 197 659 229 739 q 164 490 164 579 m 732 1081 l 581 1250 l 610 1254 l 457 1081 l 392 1081 l 593 1301 l 594 1301 l 797 1081 l 732 1081 m 699 1331 q 631 1351 657 1331 q 583 1394 606 1371 q 547 1428 565 1413 q 503 1444 528 1444 q 470 1433 486 1444 q 443 1395 454 1421 q 431 1325 432 1369 l 389 1326 q 403 1419 388 1381 q 446 1476 419 1457 q 506 1496 472 1496 q 568 1476 543 1496 q 614 1433 593 1456 q 651 1396 632 1413 q 697 1379 671 1379 q 744 1407 725 1379 q 765 1501 763 1435 l 807 1500 q 794 1406 808 1444 q 754 1349 779 1368 q 699 1331 729 1331 z "},"Ȍ":{"ha":1197,"x_min":94,"x_max":1103,"o":"m 94 492 q 133 687 94 596 q 242 848 172 778 q 402 958 311 918 q 597 997 493 997 q 793 958 701 997 q 954 848 885 918 q 1063 687 1024 778 q 1103 492 1103 596 q 1063 297 1103 388 q 954 136 1024 206 q 793 28 885 67 q 597 -11 701 -11 q 402 26 493 -11 q 242 132 311 64 q 133 292 172 200 q 94 492 94 383 m 164 490 q 197 321 164 400 q 290 182 231 242 q 428 88 350 122 q 596 54 507 54 q 767 88 688 54 q 906 182 846 122 q 999 321 965 242 q 1033 492 1033 400 q 999 662 1033 582 q 906 802 965 742 q 767 897 846 863 q 597 932 688 932 q 426 897 506 932 q 288 800 347 861 q 197 659 229 739 q 164 490 164 579 m 369 1258 l 442 1258 l 557 1074 l 510 1074 l 369 1258 m 528 1258 l 600 1258 l 715 1074 l 668 1074 l 528 1258 z "},"Ö":{"ha":1197,"x_min":94,"x_max":1103,"o":"m 94 492 q 133 687 94 596 q 242 848 172 778 q 402 958 311 918 q 597 997 493 997 q 793 958 701 997 q 954 848 885 918 q 1063 687 1024 778 q 1103 492 1103 596 q 1063 297 1103 388 q 954 136 1024 206 q 793 28 885 67 q 597 -11 701 -11 q 402 26 493 -11 q 242 132 311 64 q 133 292 172 200 q 94 492 94 383 m 164 490 q 197 321 164 400 q 290 182 231 242 q 428 88 350 122 q 596 54 507 54 q 767 88 688 54 q 906 182 846 122 q 999 321 965 242 q 1033 492 1033 400 q 999 662 1033 582 q 906 802 965 742 q 767 897 846 863 q 597 932 688 932 q 426 897 506 932 q 288 800 347 861 q 197 659 229 739 q 164 490 164 579 m 429 1108 q 443 1142 429 1128 q 475 1156 457 1156 q 508 1142 493 1156 q 522 1108 522 1128 q 508 1075 522 1089 q 475 1061 493 1061 q 443 1075 457 1061 q 429 1108 429 1089 l 429 1108 m 671 1108 q 685 1142 671 1128 q 718 1156 700 1156 q 749 1142 735 1156 q 764 1108 764 1128 q 749 1075 764 1089 q 718 1061 735 1061 q 685 1075 700 1061 q 671 1108 671 1089 l 671 1108 z "},"Ȫ":{"ha":1197,"x_min":94,"x_max":1103,"o":"m 94 492 q 133 687 94 596 q 242 848 172 778 q 402 958 311 918 q 597 997 493 997 q 793 958 701 997 q 954 848 885 918 q 1063 687 1024 778 q 1103 492 1103 596 q 1063 297 1103 388 q 954 136 1024 206 q 793 28 885 67 q 597 -11 701 -11 q 402 26 493 -11 q 242 132 311 64 q 133 292 172 200 q 94 492 94 383 m 164 490 q 197 321 164 400 q 290 182 231 242 q 428 88 350 122 q 596 54 507 54 q 767 88 688 54 q 906 182 846 122 q 999 321 965 242 q 1033 492 1033 400 q 999 662 1033 582 q 906 802 965 742 q 767 897 846 863 q 597 932 688 932 q 426 897 506 932 q 288 800 347 861 q 197 659 229 739 q 164 490 164 579 m 429 1108 q 443 1142 429 1128 q 475 1156 457 1156 q 508 1142 493 1156 q 522 1108 522 1128 q 508 1075 522 1089 q 475 1061 493 1061 q 443 1075 457 1061 q 429 1108 429 1089 l 429 1108 m 671 1108 q 685 1142 671 1128 q 718 1156 700 1156 q 749 1142 735 1156 q 764 1108 764 1128 q 749 1075 764 1089 q 718 1061 735 1061 q 685 1075 700 1061 q 671 1108 671 1089 l 671 1108 m 433 1274 l 761 1274 l 761 1224 l 433 1224 l 433 1274 z "},"Ȱ":{"ha":1197,"x_min":94,"x_max":1103,"o":"m 94 492 q 133 687 94 596 q 242 848 172 778 q 402 958 311 918 q 597 997 493 997 q 793 958 701 997 q 954 848 885 918 q 1063 687 1024 778 q 1103 492 1103 596 q 1063 297 1103 388 q 954 136 1024 206 q 793 28 885 67 q 597 -11 701 -11 q 402 26 493 -11 q 242 132 311 64 q 133 292 172 200 q 94 492 94 383 m 164 490 q 197 321 164 400 q 290 182 231 242 q 428 88 350 122 q 596 54 507 54 q 767 88 688 54 q 906 182 846 122 q 999 321 965 242 q 1033 492 1033 400 q 999 662 1033 582 q 906 802 965 742 q 767 897 846 863 q 597 932 688 932 q 426 897 506 932 q 288 800 347 861 q 197 659 229 739 q 164 490 164 579 m 551 1107 q 567 1140 551 1126 q 600 1153 582 1153 q 633 1140 619 1153 q 647 1107 647 1126 q 633 1073 647 1086 q 600 1060 619 1060 q 567 1074 582 1060 q 551 1107 551 1088 m 433 1271 l 761 1271 l 761 1221 l 433 1221 l 433 1271 z "},"Ọ":{"ha":1197,"x_min":94,"x_max":1103,"o":"m 94 492 q 133 687 94 596 q 242 848 172 778 q 402 958 311 918 q 597 997 493 997 q 793 958 701 997 q 954 848 885 918 q 1063 687 1024 778 q 1103 492 1103 596 q 1063 297 1103 388 q 954 136 1024 206 q 793 28 885 67 q 597 -11 701 -11 q 402 26 493 -11 q 242 132 311 64 q 133 292 172 200 q 94 492 94 383 m 164 490 q 197 321 164 400 q 290 182 231 242 q 428 88 350 122 q 596 54 507 54 q 767 88 688 54 q 906 182 846 122 q 999 321 965 242 q 1033 492 1033 400 q 999 662 1033 582 q 906 802 965 742 q 767 897 846 863 q 597 932 688 932 q 426 897 506 932 q 288 800 347 861 q 197 659 229 739 q 164 490 164 579 m 550 -121 q 565 -88 550 -101 q 599 -75 581 -75 q 632 -88 618 -75 q 646 -121 646 -101 q 632 -155 646 -142 q 599 -168 618 -168 q 565 -154 581 -168 q 550 -121 550 -140 z "},"Ò":{"ha":1197,"x_min":94,"x_max":1103,"o":"m 94 492 q 133 687 94 596 q 242 848 172 778 q 402 958 311 918 q 597 997 493 997 q 793 958 701 997 q 954 848 885 918 q 1063 687 1024 778 q 1103 492 1103 596 q 1063 297 1103 388 q 954 136 1024 206 q 793 28 885 67 q 597 -11 701 -11 q 402 26 493 -11 q 242 132 311 64 q 133 292 172 200 q 94 492 94 383 m 164 490 q 197 321 164 400 q 290 182 231 242 q 428 88 350 122 q 596 54 507 54 q 767 88 688 54 q 906 182 846 122 q 999 321 965 242 q 1033 492 1033 400 q 999 662 1033 582 q 906 802 965 742 q 767 897 846 863 q 597 932 688 932 q 426 897 506 932 q 288 800 347 861 q 197 659 229 739 q 164 490 164 579 m 438 1236 l 510 1236 l 625 1051 l 578 1051 l 438 1236 z "},"Ỏ":{"ha":1197,"x_min":94,"x_max":1103,"o":"m 94 492 q 133 687 94 596 q 242 848 172 778 q 402 958 311 918 q 597 997 493 997 q 793 958 701 997 q 954 848 885 918 q 1063 687 1024 778 q 1103 492 1103 596 q 1063 297 1103 388 q 954 136 1024 206 q 793 28 885 67 q 597 -11 701 -11 q 402 26 493 -11 q 242 132 311 64 q 133 292 172 200 q 94 492 94 383 m 164 490 q 197 321 164 400 q 290 182 231 242 q 428 88 350 122 q 596 54 507 54 q 767 88 688 54 q 906 182 846 122 q 999 321 965 242 q 1033 492 1033 400 q 999 662 1033 582 q 906 802 965 742 q 767 897 846 863 q 597 932 688 932 q 426 897 506 932 q 288 800 347 861 q 197 659 229 739 q 164 490 164 579 m 594 1061 q 644 1107 625 1086 q 664 1156 664 1128 q 650 1193 664 1179 q 614 1207 636 1207 q 573 1195 589 1207 q 539 1158 557 1183 l 510 1181 q 560 1235 533 1218 q 621 1253 588 1253 q 667 1242 647 1253 q 698 1211 686 1232 q 710 1158 710 1190 q 683 1088 710 1117 q 619 1031 657 1058 l 594 1061 z "},"Ơ":{"ha":1197,"x_min":94,"x_max":1103,"o":"m 94 492 q 133 687 94 596 q 242 848 172 778 q 402 958 311 918 q 597 997 493 997 q 793 958 701 997 q 954 848 885 918 q 1063 687 1024 778 q 1103 492 1103 596 q 1063 297 1103 388 q 954 136 1024 206 q 793 28 885 67 q 597 -11 701 -11 q 402 26 493 -11 q 242 132 311 64 q 133 292 172 200 q 94 492 94 383 m 164 490 q 197 321 164 400 q 290 182 231 242 q 428 88 350 122 q 596 54 507 54 q 767 88 688 54 q 906 182 846 122 q 999 321 965 242 q 1033 492 1033 400 q 999 662 1033 582 q 906 802 965 742 q 767 897 846 863 q 597 932 688 932 q 426 897 506 932 q 288 800 347 861 q 197 659 229 739 q 164 490 164 579 m 699 986 q 797 1018 765 986 q 831 1135 828 1050 l 882 1135 q 854 1010 878 1051 q 791 955 831 968 q 699 942 751 942 l 699 986 z "},"Ớ":{"ha":1197,"x_min":94,"x_max":1103,"o":"m 94 492 q 133 687 94 596 q 242 848 172 778 q 402 958 311 918 q 597 997 493 997 q 793 958 701 997 q 954 848 885 918 q 1063 687 1024 778 q 1103 492 1103 596 q 1063 297 1103 388 q 954 136 1024 206 q 793 28 885 67 q 597 -11 701 -11 q 402 26 493 -11 q 242 132 311 64 q 133 292 172 200 q 94 492 94 383 m 164 490 q 197 321 164 400 q 290 182 231 242 q 428 88 350 122 q 596 54 507 54 q 767 88 688 54 q 906 182 846 122 q 999 321 965 242 q 1033 492 1033 400 q 999 662 1033 582 q 906 802 965 742 q 767 897 846 863 q 597 932 688 932 q 426 897 506 932 q 288 800 347 861 q 197 659 229 739 q 164 490 164 579 m 699 986 q 797 1018 765 986 q 831 1135 828 1050 l 882 1135 q 854 1010 878 1051 q 791 955 831 968 q 699 942 751 942 l 699 986 m 769 1224 l 622 1039 l 575 1039 l 696 1224 l 769 1224 z "},"Ợ":{"ha":1197,"x_min":94,"x_max":1103,"o":"m 94 492 q 133 687 94 596 q 242 848 172 778 q 402 958 311 918 q 597 997 493 997 q 793 958 701 997 q 954 848 885 918 q 1063 687 1024 778 q 1103 492 1103 596 q 1063 297 1103 388 q 954 136 1024 206 q 793 28 885 67 q 597 -11 701 -11 q 402 26 493 -11 q 242 132 311 64 q 133 292 172 200 q 94 492 94 383 m 164 490 q 197 321 164 400 q 290 182 231 242 q 428 88 350 122 q 596 54 507 54 q 767 88 688 54 q 906 182 846 122 q 999 321 965 242 q 1033 492 1033 400 q 999 662 1033 582 q 906 802 965 742 q 767 897 846 863 q 597 932 688 932 q 426 897 506 932 q 288 800 347 861 q 197 659 229 739 q 164 490 164 579 m 699 986 q 797 1018 765 986 q 831 1135 828 1050 l 882 1135 q 854 1010 878 1051 q 791 955 831 968 q 699 942 751 942 l 699 986 m 550 -121 q 565 -88 550 -101 q 599 -75 581 -75 q 632 -88 618 -75 q 646 -121 646 -101 q 632 -155 646 -142 q 599 -168 618 -168 q 565 -154 581 -168 q 550 -121 550 -140 z "},"Ờ":{"ha":1197,"x_min":94,"x_max":1103,"o":"m 94 492 q 133 687 94 596 q 242 848 172 778 q 402 958 311 918 q 597 997 493 997 q 793 958 701 997 q 954 848 885 918 q 1063 687 1024 778 q 1103 492 1103 596 q 1063 297 1103 388 q 954 136 1024 206 q 793 28 885 67 q 597 -11 701 -11 q 402 26 493 -11 q 242 132 311 64 q 133 292 172 200 q 94 492 94 383 m 164 490 q 197 321 164 400 q 290 182 231 242 q 428 88 350 122 q 596 54 507 54 q 767 88 688 54 q 906 182 846 122 q 999 321 965 242 q 1033 492 1033 400 q 999 662 1033 582 q 906 802 965 742 q 767 897 846 863 q 597 932 688 932 q 426 897 506 932 q 288 800 347 861 q 197 659 229 739 q 164 490 164 579 m 699 986 q 797 1018 765 986 q 831 1135 828 1050 l 882 1135 q 854 1010 878 1051 q 791 955 831 968 q 699 942 751 942 l 699 986 m 438 1236 l 510 1236 l 625 1051 l 578 1051 l 438 1236 z "},"Ở":{"ha":1197,"x_min":94,"x_max":1103,"o":"m 94 492 q 133 687 94 596 q 242 848 172 778 q 402 958 311 918 q 597 997 493 997 q 793 958 701 997 q 954 848 885 918 q 1063 687 1024 778 q 1103 492 1103 596 q 1063 297 1103 388 q 954 136 1024 206 q 793 28 885 67 q 597 -11 701 -11 q 402 26 493 -11 q 242 132 311 64 q 133 292 172 200 q 94 492 94 383 m 164 490 q 197 321 164 400 q 290 182 231 242 q 428 88 350 122 q 596 54 507 54 q 767 88 688 54 q 906 182 846 122 q 999 321 965 242 q 1033 492 1033 400 q 999 662 1033 582 q 906 802 965 742 q 767 897 846 863 q 597 932 688 932 q 426 897 506 932 q 288 800 347 861 q 197 659 229 739 q 164 490 164 579 m 699 986 q 797 1018 765 986 q 831 1135 828 1050 l 882 1135 q 854 1010 878 1051 q 791 955 831 968 q 699 942 751 942 l 699 986 m 594 1061 q 644 1107 625 1086 q 664 1156 664 1128 q 650 1193 664 1179 q 614 1207 636 1207 q 573 1195 589 1207 q 539 1158 557 1183 l 510 1181 q 560 1235 533 1218 q 621 1253 588 1253 q 667 1242 647 1253 q 698 1211 686 1232 q 710 1158 710 1190 q 683 1088 710 1117 q 619 1031 657 1058 l 594 1061 z "},"Ỡ":{"ha":1197,"x_min":94,"x_max":1103,"o":"m 94 492 q 133 687 94 596 q 242 848 172 778 q 402 958 311 918 q 597 997 493 997 q 793 958 701 997 q 954 848 885 918 q 1063 687 1024 778 q 1103 492 1103 596 q 1063 297 1103 388 q 954 136 1024 206 q 793 28 885 67 q 597 -11 701 -11 q 402 26 493 -11 q 242 132 311 64 q 133 292 172 200 q 94 492 94 383 m 164 490 q 197 321 164 400 q 290 182 231 242 q 428 88 350 122 q 596 54 507 54 q 767 88 688 54 q 906 182 846 122 q 999 321 965 242 q 1033 492 1033 400 q 999 662 1033 582 q 906 802 965 742 q 767 897 846 863 q 597 932 688 932 q 426 897 506 932 q 288 800 347 861 q 197 659 229 739 q 164 490 164 579 m 699 986 q 797 1018 765 986 q 831 1135 828 1050 l 882 1135 q 854 1010 878 1051 q 791 955 831 968 q 699 942 751 942 l 699 986 m 703 1081 q 635 1101 661 1081 q 588 1144 610 1121 q 551 1178 569 1163 q 507 1194 532 1194 q 474 1183 490 1194 q 447 1145 458 1171 q 435 1075 436 1119 l 393 1076 q 408 1169 392 1131 q 450 1226 424 1207 q 510 1246 476 1246 q 572 1226 547 1246 q 618 1183 597 1206 q 656 1146 636 1163 q 701 1129 675 1129 q 748 1157 729 1129 q 769 1251 767 1185 l 811 1250 q 798 1156 813 1194 q 758 1099 783 1118 q 703 1081 733 1081 z "},"Ő":{"ha":1197,"x_min":94,"x_max":1103,"o":"m 94 492 q 133 687 94 596 q 242 848 172 778 q 402 958 311 918 q 597 997 493 997 q 793 958 701 997 q 954 848 885 918 q 1063 687 1024 778 q 1103 492 1103 596 q 1063 297 1103 388 q 954 136 1024 206 q 793 28 885 67 q 597 -11 701 -11 q 402 26 493 -11 q 242 132 311 64 q 133 292 172 200 q 94 492 94 383 m 164 490 q 197 321 164 400 q 290 182 231 242 q 428 88 350 122 q 596 54 507 54 q 767 88 688 54 q 906 182 846 122 q 999 321 965 242 q 1033 492 1033 400 q 999 662 1033 582 q 906 802 965 742 q 767 897 846 863 q 597 932 688 932 q 426 897 506 932 q 288 800 347 861 q 197 659 229 739 q 164 490 164 579 m 686 1250 l 539 1065 l 492 1065 l 613 1250 l 686 1250 m 847 1249 l 700 1064 l 653 1064 l 774 1249 l 847 1249 z "},"Ȏ":{"ha":1197,"x_min":94,"x_max":1103,"o":"m 94 492 q 133 687 94 596 q 242 848 172 778 q 402 958 311 918 q 597 997 493 997 q 793 958 701 997 q 954 848 885 918 q 1063 687 1024 778 q 1103 492 1103 596 q 1063 297 1103 388 q 954 136 1024 206 q 793 28 885 67 q 597 -11 701 -11 q 402 26 493 -11 q 242 132 311 64 q 133 292 172 200 q 94 492 94 383 m 164 490 q 197 321 164 400 q 290 182 231 242 q 428 88 350 122 q 596 54 507 54 q 767 88 688 54 q 906 182 846 122 q 999 321 965 242 q 1033 492 1033 400 q 999 662 1033 582 q 906 802 965 742 q 767 897 846 863 q 597 932 688 932 q 426 897 506 932 q 288 800 347 861 q 197 659 229 739 q 164 490 164 579 m 594 1256 q 688 1227 647 1256 q 753 1147 728 1199 q 782 1026 778 1096 l 735 1026 q 713 1117 732 1076 q 665 1183 694 1158 q 594 1207 635 1207 q 526 1183 556 1207 q 478 1117 496 1158 q 458 1026 461 1076 l 410 1026 q 438 1147 414 1096 q 503 1227 463 1199 q 594 1256 543 1256 z "},"Ō":{"ha":1197,"x_min":94,"x_max":1103,"o":"m 94 492 q 133 687 94 596 q 242 848 172 778 q 402 958 311 918 q 597 997 493 997 q 793 958 701 997 q 954 848 885 918 q 1063 687 1024 778 q 1103 492 1103 596 q 1063 297 1103 388 q 954 136 1024 206 q 793 28 885 67 q 597 -11 701 -11 q 402 26 493 -11 q 242 132 311 64 q 133 292 172 200 q 94 492 94 383 m 164 490 q 197 321 164 400 q 290 182 231 242 q 428 88 350 122 q 596 54 507 54 q 767 88 688 54 q 906 182 846 122 q 999 321 965 242 q 1033 492 1033 400 q 999 662 1033 582 q 906 802 965 742 q 767 897 846 863 q 597 932 688 932 q 426 897 506 932 q 288 800 347 861 q 197 659 229 739 q 164 490 164 579 m 433 1107 l 761 1107 l 761 1057 l 433 1057 l 433 1107 z "},"Ǫ":{"ha":1197,"x_min":94,"x_max":1103,"o":"m 597 -11 q 402 26 493 -11 q 242 132 311 64 q 133 292 172 200 q 94 492 94 383 q 133 687 94 596 q 242 848 172 778 q 402 958 311 918 q 597 997 493 997 q 793 958 701 997 q 954 848 885 918 q 1063 687 1024 778 q 1103 492 1103 596 q 1074 317 1103 393 q 1001 185 1046 240 q 904 90 956 129 q 813 28 858 54 q 729 -22 767 1 q 669 -75 692 -46 q 647 -146 647 -104 q 670 -205 647 -185 q 719 -225 693 -225 q 769 -207 747 -225 q 808 -161 792 -189 l 838 -193 q 786 -251 819 -228 q 714 -275 753 -275 q 627 -243 664 -275 q 590 -156 590 -211 q 613 -76 590 -110 q 669 -19 635 -43 q 742 21 704 6 l 786 29 q 697 0 750 11 q 597 -11 644 -11 m 599 54 q 767 88 689 54 q 906 182 846 122 q 999 321 965 242 q 1033 492 1033 400 q 999 661 1033 582 q 906 801 965 740 q 767 896 846 861 q 597 931 688 931 q 426 895 506 931 q 288 799 347 860 q 197 658 229 738 q 164 490 164 578 q 197 321 164 400 q 290 182 231 242 q 429 88 350 122 q 599 54 508 54 z "},"Ø":{"ha":1190,"x_min":94,"x_max":1103,"o":"m 1021 971 l 194 -8 l 153 31 l 979 1010 l 1021 971 m 94 492 q 133 687 94 596 q 242 848 172 778 q 402 958 311 918 q 597 997 493 997 q 793 958 701 997 q 954 848 885 918 q 1063 687 1024 778 q 1103 492 1103 596 q 1063 297 1103 388 q 954 136 1024 206 q 793 28 885 67 q 597 -11 701 -11 q 402 26 493 -11 q 242 132 311 64 q 133 292 172 200 q 94 492 94 383 m 164 490 q 197 321 164 400 q 290 182 231 242 q 428 88 350 122 q 596 54 507 54 q 767 88 688 54 q 906 182 846 122 q 999 321 965 242 q 1033 492 1033 400 q 999 662 1033 582 q 906 802 965 742 q 767 897 846 863 q 597 932 688 932 q 426 897 506 932 q 288 800 347 861 q 197 659 229 739 q 164 490 164 579 z "},"Ǿ":{"ha":1190,"x_min":94,"x_max":1103,"o":"m 1021 971 l 194 -8 l 153 31 l 979 1010 l 1021 971 m 94 492 q 133 687 94 596 q 242 848 172 778 q 402 958 311 918 q 597 997 493 997 q 793 958 701 997 q 954 848 885 918 q 1063 687 1024 778 q 1103 492 1103 596 q 1063 297 1103 388 q 954 136 1024 206 q 793 28 885 67 q 597 -11 701 -11 q 402 26 493 -11 q 242 132 311 64 q 133 292 172 200 q 94 492 94 383 m 164 490 q 197 321 164 400 q 290 182 231 242 q 428 88 350 122 q 596 54 507 54 q 767 88 688 54 q 906 182 846 122 q 999 321 965 242 q 1033 492 1033 400 q 999 662 1033 582 q 906 802 965 742 q 767 897 846 863 q 597 932 688 932 q 426 897 506 932 q 288 800 347 861 q 197 659 229 739 q 164 490 164 579 m 765 1221 l 618 1036 l 571 1036 l 692 1221 l 765 1221 z "},"Õ":{"ha":1197,"x_min":94,"x_max":1103,"o":"m 94 492 q 133 687 94 596 q 242 848 172 778 q 402 958 311 918 q 597 997 493 997 q 793 958 701 997 q 954 848 885 918 q 1063 687 1024 778 q 1103 492 1103 596 q 1063 297 1103 388 q 954 136 1024 206 q 793 28 885 67 q 597 -11 701 -11 q 402 26 493 -11 q 242 132 311 64 q 133 292 172 200 q 94 492 94 383 m 164 490 q 197 321 164 400 q 290 182 231 242 q 428 88 350 122 q 596 54 507 54 q 767 88 688 54 q 906 182 846 122 q 999 321 965 242 q 1033 492 1033 400 q 999 662 1033 582 q 906 802 965 742 q 767 897 846 863 q 597 932 688 932 q 426 897 506 932 q 288 800 347 861 q 197 659 229 739 q 164 490 164 579 m 703 1081 q 635 1101 661 1081 q 588 1144 610 1121 q 551 1178 569 1163 q 507 1194 532 1194 q 474 1183 490 1194 q 447 1145 458 1171 q 435 1075 436 1119 l 393 1076 q 408 1169 392 1131 q 450 1226 424 1207 q 510 1246 476 1246 q 572 1226 547 1246 q 618 1183 597 1206 q 656 1146 636 1163 q 701 1129 675 1129 q 748 1157 729 1129 q 769 1251 767 1185 l 811 1250 q 798 1156 813 1194 q 758 1099 783 1118 q 703 1081 733 1081 z "},"Ȭ":{"ha":1197,"x_min":94,"x_max":1103,"o":"m 94 492 q 133 687 94 596 q 242 848 172 778 q 402 958 311 918 q 597 997 493 997 q 793 958 701 997 q 954 848 885 918 q 1063 687 1024 778 q 1103 492 1103 596 q 1063 297 1103 388 q 954 136 1024 206 q 793 28 885 67 q 597 -11 701 -11 q 402 26 493 -11 q 242 132 311 64 q 133 292 172 200 q 94 492 94 383 m 164 490 q 197 321 164 400 q 290 182 231 242 q 428 88 350 122 q 596 54 507 54 q 767 88 688 54 q 906 182 846 122 q 999 321 965 242 q 1033 492 1033 400 q 999 662 1033 582 q 906 802 965 742 q 767 897 846 863 q 597 932 688 932 q 426 897 506 932 q 288 800 347 861 q 197 659 229 739 q 164 490 164 579 m 703 1081 q 635 1101 661 1081 q 588 1144 610 1121 q 551 1178 569 1163 q 507 1194 532 1194 q 474 1183 490 1194 q 447 1145 458 1171 q 435 1075 436 1119 l 393 1076 q 408 1169 392 1131 q 450 1226 424 1207 q 510 1246 476 1246 q 572 1226 547 1246 q 618 1183 597 1206 q 656 1146 636 1163 q 701 1129 675 1129 q 748 1157 729 1129 q 769 1251 767 1185 l 811 1250 q 798 1156 813 1194 q 758 1099 783 1118 q 703 1081 733 1081 m 433 1378 l 761 1378 l 761 1328 l 433 1328 l 433 1378 z "},"Œ":{"ha":1404,"x_min":103,"x_max":1278,"o":"m 701 919 q 655 928 679 925 q 606 931 631 931 q 438 896 517 931 q 299 801 358 861 q 206 660 240 740 q 172 490 172 581 q 206 321 172 400 q 300 182 240 242 q 439 88 360 122 q 608 54 518 54 q 701 65 653 54 l 731 4 q 669 -7 700 -3 q 604 -11 638 -11 q 410 28 501 -11 q 250 136 319 67 q 142 297 181 206 q 103 492 103 388 q 142 687 103 596 q 250 848 181 778 q 410 958 319 918 q 606 997 501 997 q 671 992 639 997 q 733 979 703 988 l 701 919 m 692 986 l 1258 986 l 1258 922 l 761 922 l 761 528 l 1204 528 l 1204 464 l 761 464 l 761 65 l 1278 65 l 1278 0 l 692 0 l 692 986 z "},"P":{"ha":769,"x_min":157,"x_max":690,"o":"m 385 986 q 545 955 476 986 q 652 862 614 924 q 690 707 690 800 q 673 599 690 651 q 617 506 656 547 q 520 439 579 464 q 378 414 461 414 l 225 414 l 225 0 l 157 0 l 157 986 l 385 986 m 378 479 q 498 502 450 479 q 573 560 546 525 q 612 635 600 596 q 624 707 624 674 q 608 793 624 754 q 563 860 593 832 q 490 905 533 889 q 392 921 447 921 l 225 921 l 225 479 l 378 479 z "},"Þ":{"ha":769,"x_min":157,"x_max":690,"o":"m 393 772 q 501 756 447 772 q 597 707 554 740 q 665 621 639 674 q 690 494 690 568 q 673 387 690 439 q 619 293 656 335 q 524 226 583 251 q 382 201 465 201 l 226 201 l 226 0 l 157 0 l 157 978 l 226 978 l 226 772 l 393 772 m 379 267 q 495 288 449 267 q 569 345 542 310 q 609 420 597 381 q 621 494 621 460 q 591 603 621 556 q 508 679 561 651 q 381 707 454 707 l 226 707 l 226 267 l 379 267 z "},"Q":{"ha":1225,"x_min":94,"x_max":1131,"o":"m 758 65 l 1131 65 l 1131 0 l 663 0 l 758 65 m 94 492 q 133 687 94 596 q 242 848 172 778 q 402 958 311 918 q 597 997 493 997 q 793 958 701 997 q 954 848 885 918 q 1063 687 1024 778 q 1103 492 1103 596 q 1063 297 1103 388 q 954 136 1024 206 q 793 28 885 67 q 597 -11 701 -11 q 402 26 493 -11 q 242 132 311 64 q 133 292 172 200 q 94 492 94 383 m 164 490 q 197 321 164 400 q 290 182 231 242 q 428 88 350 122 q 596 54 507 54 q 767 88 688 54 q 906 182 846 122 q 999 321 965 242 q 1033 492 1033 400 q 999 661 1033 582 q 906 801 965 740 q 767 896 846 861 q 597 931 688 931 q 426 895 506 931 q 288 799 347 860 q 197 658 229 738 q 164 490 164 578 z "},"R":{"ha":879,"x_min":157,"x_max":789,"o":"m 382 986 q 492 970 438 986 q 592 920 547 954 q 665 833 638 886 q 693 707 693 781 q 676 599 693 651 q 622 506 660 547 q 525 439 585 464 q 378 414 465 414 l 225 414 l 225 0 l 157 0 l 157 986 l 382 986 m 374 479 q 496 500 447 479 q 572 554 544 521 q 612 627 600 588 q 624 704 624 667 q 608 788 624 749 q 561 856 592 826 q 488 903 531 886 q 392 921 444 921 l 225 921 l 225 479 l 374 479 m 515 449 l 789 0 l 710 0 l 435 447 l 515 449 z "},"Ŕ":{"ha":879,"x_min":157,"x_max":789,"o":"m 382 986 q 492 970 438 986 q 592 920 547 954 q 665 833 638 886 q 693 707 693 781 q 676 599 693 651 q 622 506 660 547 q 525 439 585 464 q 378 414 465 414 l 225 414 l 225 0 l 157 0 l 157 986 l 382 986 m 374 479 q 496 500 447 479 q 572 554 544 521 q 612 627 600 588 q 624 704 624 667 q 608 788 624 749 q 561 856 592 826 q 488 903 531 886 q 392 921 444 921 l 225 921 l 225 479 l 374 479 m 515 449 l 789 0 l 710 0 l 435 447 l 515 449 m 556 1228 l 408 1043 l 361 1043 l 482 1228 l 556 1228 z "},"Ř":{"ha":879,"x_min":157,"x_max":789,"o":"m 382 986 q 492 970 438 986 q 592 920 547 954 q 665 833 638 886 q 693 707 693 781 q 676 599 693 651 q 622 506 660 547 q 525 439 585 464 q 378 414 465 414 l 225 414 l 225 0 l 157 0 l 157 986 l 382 986 m 374 479 q 496 500 447 479 q 572 554 544 521 q 612 627 600 588 q 624 704 624 667 q 608 788 624 749 q 561 856 592 826 q 488 903 531 886 q 392 921 444 921 l 225 921 l 225 479 l 374 479 m 515 449 l 789 0 l 710 0 l 435 447 l 515 449 m 244 1261 l 397 1090 l 367 1086 l 521 1261 l 586 1261 l 385 1040 l 383 1040 l 179 1261 l 244 1261 z "},"Ŗ":{"ha":879,"x_min":157,"x_max":789,"o":"m 382 986 q 492 970 438 986 q 592 920 547 954 q 665 833 638 886 q 693 707 693 781 q 676 599 693 651 q 622 506 660 547 q 525 439 585 464 q 378 414 465 414 l 225 414 l 225 0 l 157 0 l 157 986 l 382 986 m 374 479 q 496 500 447 479 q 572 554 544 521 q 612 627 600 588 q 624 704 624 667 q 608 788 624 749 q 561 856 592 826 q 488 903 531 886 q 392 921 444 921 l 225 921 l 225 479 l 374 479 m 515 449 l 789 0 l 710 0 l 435 447 l 515 449 m 342 -271 l 308 -246 q 360 -169 346 -218 q 368 -65 375 -121 l 431 -65 q 428 -141 435 -101 q 401 -215 421 -181 q 342 -271 381 -249 z "},"Ȑ":{"ha":879,"x_min":156,"x_max":789,"o":"m 382 986 q 492 970 438 986 q 592 920 547 954 q 665 833 638 886 q 693 707 693 781 q 676 599 693 651 q 622 506 660 547 q 525 439 585 464 q 378 414 465 414 l 225 414 l 225 0 l 157 0 l 157 986 l 382 986 m 374 479 q 496 500 447 479 q 572 554 544 521 q 612 627 600 588 q 624 704 624 667 q 608 788 624 749 q 561 856 592 826 q 488 903 531 886 q 392 921 444 921 l 225 921 l 225 479 l 374 479 m 515 449 l 789 0 l 710 0 l 435 447 l 515 449 m 156 1263 l 228 1263 l 343 1078 l 296 1078 l 156 1263 m 314 1263 l 386 1263 l 501 1078 l 454 1078 l 314 1263 z "},"Ȓ":{"ha":879,"x_min":157,"x_max":789,"o":"m 382 986 q 492 970 438 986 q 592 920 547 954 q 665 833 638 886 q 693 707 693 781 q 676 599 693 651 q 622 506 660 547 q 525 439 585 464 q 378 414 465 414 l 225 414 l 225 0 l 157 0 l 157 986 l 382 986 m 374 479 q 496 500 447 479 q 572 554 544 521 q 612 627 600 588 q 624 704 624 667 q 608 788 624 749 q 561 856 592 826 q 488 903 531 886 q 392 921 444 921 l 225 921 l 225 479 l 374 479 m 515 449 l 789 0 l 710 0 l 435 447 l 515 449 m 381 1260 q 474 1231 433 1260 q 539 1151 514 1203 q 568 1031 564 1100 l 521 1031 q 499 1122 518 1081 q 451 1187 481 1163 q 381 1211 421 1211 q 312 1187 342 1211 q 265 1122 282 1163 q 244 1031 247 1081 l 196 1031 q 224 1151 200 1100 q 289 1231 249 1203 q 381 1260 329 1260 z "},"S":{"ha":807,"x_min":90,"x_max":710,"o":"m 650 875 q 544 914 607 896 q 419 932 482 932 q 264 883 322 932 q 206 761 206 835 q 239 669 206 706 q 326 606 272 632 q 442 557 381 581 q 538 517 490 539 q 625 463 586 494 q 687 383 664 431 q 710 267 710 336 q 671 122 710 185 q 563 24 632 58 q 401 -11 493 -11 q 267 7 328 -11 q 162 49 207 25 q 90 90 117 74 l 122 146 q 197 101 153 124 q 292 64 240 79 q 394 49 343 49 q 510 72 454 49 q 603 144 567 96 q 640 265 640 192 q 606 380 640 336 q 517 451 571 424 q 401 501 463 479 q 307 540 354 519 q 221 588 260 560 q 159 657 182 617 q 136 754 136 697 q 172 878 136 825 q 270 960 208 931 q 411 992 332 990 q 552 974 481 992 q 676 928 624 956 l 650 875 z "},"Ś":{"ha":807,"x_min":90,"x_max":710,"o":"m 650 875 q 544 914 607 896 q 419 932 482 932 q 264 883 322 932 q 206 761 206 835 q 239 669 206 706 q 326 606 272 632 q 442 557 381 581 q 538 517 490 539 q 625 463 586 494 q 687 383 664 431 q 710 267 710 336 q 671 122 710 185 q 563 24 632 58 q 401 -11 493 -11 q 267 7 328 -11 q 162 49 207 25 q 90 90 117 74 l 122 146 q 197 101 153 124 q 292 64 240 79 q 394 49 343 49 q 510 72 454 49 q 603 144 567 96 q 640 265 640 192 q 606 380 640 336 q 517 451 571 424 q 401 501 463 479 q 307 540 354 519 q 221 588 260 560 q 159 657 182 617 q 136 754 136 697 q 172 878 136 825 q 270 960 208 931 q 411 992 332 990 q 552 974 481 992 q 676 928 624 956 l 650 875 m 575 1240 l 428 1056 l 381 1056 l 501 1240 l 575 1240 z "},"Š":{"ha":807,"x_min":90,"x_max":710,"o":"m 650 875 q 544 914 607 896 q 419 932 482 932 q 264 883 322 932 q 206 761 206 835 q 239 669 206 706 q 326 606 272 632 q 442 557 381 581 q 538 517 490 539 q 625 463 586 494 q 687 383 664 431 q 710 267 710 336 q 671 122 710 185 q 563 24 632 58 q 401 -11 493 -11 q 267 7 328 -11 q 162 49 207 25 q 90 90 117 74 l 122 146 q 197 101 153 124 q 292 64 240 79 q 394 49 343 49 q 510 72 454 49 q 603 144 567 96 q 640 265 640 192 q 606 380 640 336 q 517 451 571 424 q 401 501 463 479 q 307 540 354 519 q 221 588 260 560 q 159 657 182 617 q 136 754 136 697 q 172 878 136 825 q 270 960 208 931 q 411 992 332 990 q 552 974 481 992 q 676 928 624 956 l 650 875 m 264 1274 l 417 1103 l 386 1099 l 540 1274 l 606 1274 l 404 1053 l 403 1053 l 199 1274 l 264 1274 z "},"Ş":{"ha":807,"x_min":90,"x_max":710,"o":"m 650 875 q 544 914 607 896 q 419 932 482 932 q 264 883 322 932 q 206 761 206 835 q 239 669 206 706 q 326 606 272 632 q 442 557 381 581 q 538 517 490 539 q 625 463 586 494 q 687 383 664 431 q 710 267 710 336 q 671 122 710 185 q 563 24 632 58 q 401 -11 493 -11 q 267 7 328 -11 q 162 49 207 25 q 90 90 117 74 l 122 146 q 197 101 153 124 q 292 64 240 79 q 394 49 343 49 q 510 72 454 49 q 603 144 567 96 q 640 265 640 192 q 606 380 640 336 q 517 451 571 424 q 401 501 463 479 q 307 540 354 519 q 221 588 260 560 q 159 657 182 617 q 136 754 136 697 q 172 878 136 825 q 270 960 208 931 q 411 992 332 990 q 552 974 481 992 q 676 928 624 956 l 650 875 m 294 -242 q 335 -267 310 -257 q 396 -278 361 -278 q 477 -258 444 -278 q 510 -201 510 -237 q 485 -146 510 -169 q 404 -122 460 -122 q 353 -128 382 -122 q 307 -142 324 -135 l 286 -107 l 383 1 l 433 -8 l 340 -122 l 317 -107 q 361 -91 332 -97 q 417 -85 390 -85 q 528 -113 488 -83 q 568 -200 568 -143 q 546 -267 568 -240 q 486 -306 524 -293 q 403 -318 449 -318 q 326 -306 360 -318 q 271 -275 292 -293 l 294 -242 z "},"Ŝ":{"ha":807,"x_min":90,"x_max":710,"o":"m 650 875 q 544 914 607 896 q 419 932 482 932 q 264 883 322 932 q 206 761 206 835 q 239 669 206 706 q 326 606 272 632 q 442 557 381 581 q 538 517 490 539 q 625 463 586 494 q 687 383 664 431 q 710 267 710 336 q 671 122 710 185 q 563 24 632 58 q 401 -11 493 -11 q 267 7 328 -11 q 162 49 207 25 q 90 90 117 74 l 122 146 q 197 101 153 124 q 292 64 240 79 q 394 49 343 49 q 510 72 454 49 q 603 144 567 96 q 640 265 640 192 q 606 380 640 336 q 517 451 571 424 q 401 501 463 479 q 307 540 354 519 q 221 588 260 560 q 159 657 182 617 q 136 754 136 697 q 172 878 136 825 q 270 960 208 931 q 411 992 332 990 q 552 974 481 992 q 676 928 624 956 l 650 875 m 540 1088 l 389 1257 l 418 1261 l 265 1088 l 200 1088 l 401 1308 l 403 1308 l 606 1088 l 540 1088 z "},"Ș":{"ha":807,"x_min":90,"x_max":710,"o":"m 650 875 q 544 914 607 896 q 419 932 482 932 q 264 883 322 932 q 206 761 206 835 q 239 669 206 706 q 326 606 272 632 q 442 557 381 581 q 538 517 490 539 q 625 463 586 494 q 687 383 664 431 q 710 267 710 336 q 671 122 710 185 q 563 24 632 58 q 401 -11 493 -11 q 267 7 328 -11 q 162 49 207 25 q 90 90 117 74 l 122 146 q 197 101 153 124 q 292 64 240 79 q 394 49 343 49 q 510 72 454 49 q 603 144 567 96 q 640 265 640 192 q 606 380 640 336 q 517 451 571 424 q 401 501 463 479 q 307 540 354 519 q 221 588 260 560 q 159 657 182 617 q 136 754 136 697 q 172 878 136 825 q 270 960 208 931 q 411 992 332 990 q 552 974 481 992 q 676 928 624 956 l 650 875 m 347 -275 l 314 -250 q 366 -174 351 -222 q 374 -69 381 -125 l 436 -69 q 433 -145 440 -106 q 406 -219 426 -185 q 347 -275 386 -253 z "},"ẞ":{"ha":1165,"x_min":157,"x_max":1067,"o":"m 801 -11 q 646 11 714 -11 q 529 63 578 33 l 558 118 q 670 69 607 89 q 799 49 733 49 q 888 68 842 49 q 965 126 933 88 q 997 222 997 165 q 969 304 997 272 q 897 361 940 336 q 806 414 853 386 q 694 478 747 443 q 606 562 640 514 q 571 675 571 610 q 596 785 571 735 q 673 870 621 836 q 806 908 725 904 q 878 897 854 908 q 921 874 903 885 l 899 843 q 758 927 840 897 q 592 957 675 957 q 399 909 482 957 q 271 760 317 861 q 225 500 225 658 l 225 0 l 157 0 l 157 506 q 203 770 157 656 q 344 949 249 885 q 583 1013 439 1013 q 741 990 667 1013 q 874 934 815 968 q 965 861 932 900 l 943 811 q 898 840 932 821 q 814 858 864 858 q 727 836 767 858 q 664 776 688 814 q 640 690 640 738 q 670 596 640 635 q 747 528 700 557 q 844 469 793 499 q 924 425 885 447 q 996 376 964 403 q 1047 312 1028 349 q 1067 224 1067 275 q 1034 107 1067 160 q 942 22 1001 54 q 801 -11 882 -11 z "},"Ə":{"ha":1118,"x_min":76,"x_max":1024,"o":"m 521 997 q 721 959 629 997 q 881 852 813 921 q 986 692 949 783 q 1024 496 1024 601 q 985 299 1024 390 q 876 138 946 207 q 715 31 807 69 q 519 -8 624 -8 q 321 35 408 -8 q 172 158 233 79 q 76 340 110 238 l 942 675 l 958 622 l 135 299 l 157 325 q 301 128 206 203 q 524 53 396 53 q 690 88 613 53 q 827 183 768 122 q 919 323 886 243 q 953 493 953 403 q 921 659 953 581 q 831 799 889 738 q 693 895 772 860 q 519 931 614 931 q 404 914 463 931 q 295 868 346 897 q 207 801 244 839 l 171 854 q 272 928 215 896 q 394 978 329 960 q 521 997 458 997 z "},"T":{"ha":801,"x_min":78,"x_max":724,"o":"m 78 986 l 724 986 l 724 921 l 433 921 l 433 0 l 365 0 l 365 921 l 78 921 l 78 986 z "},"Ŧ":{"ha":801,"x_min":78,"x_max":724,"o":"m 78 986 l 724 986 l 724 921 l 433 921 l 433 0 l 365 0 l 365 921 l 78 921 l 78 986 m 232 522 l 567 522 l 567 460 l 232 460 l 232 522 z "},"Ť":{"ha":801,"x_min":78,"x_max":724,"o":"m 78 986 l 724 986 l 724 921 l 433 921 l 433 0 l 365 0 l 365 921 l 78 921 l 78 986 m 261 1254 l 414 1083 l 383 1079 l 538 1254 l 603 1254 l 401 1033 l 400 1033 l 196 1254 l 261 1254 z "},"Ţ":{"ha":801,"x_min":78,"x_max":724,"o":"m 78 986 l 724 986 l 724 921 l 433 921 l 433 0 l 365 0 l 365 921 l 78 921 l 78 986 m 292 -237 q 333 -263 307 -253 q 393 -274 358 -274 q 474 -253 442 -274 q 507 -197 507 -233 q 482 -142 507 -165 q 401 -118 457 -118 q 350 -124 379 -118 q 304 -137 321 -131 l 283 -103 l 381 6 l 431 -4 l 338 -118 l 314 -103 q 358 -87 329 -93 q 414 -81 388 -81 q 525 -109 485 -79 q 565 -196 565 -139 q 543 -262 565 -236 q 483 -301 521 -289 q 400 -314 446 -314 q 323 -301 357 -314 q 268 -271 289 -289 l 292 -237 z "},"Ț":{"ha":801,"x_min":78,"x_max":724,"o":"m 78 986 l 724 986 l 724 921 l 433 921 l 433 0 l 365 0 l 365 921 l 78 921 l 78 986 m 344 -271 l 311 -246 q 363 -169 349 -218 q 371 -65 378 -121 l 433 -65 q 431 -141 438 -101 q 403 -215 424 -181 q 344 -271 383 -249 z "},"U":{"ha":982,"x_min":151,"x_max":831,"o":"m 219 333 q 255 185 219 247 q 351 88 290 122 q 490 54 413 54 q 631 88 569 54 q 728 185 693 122 q 764 333 764 247 l 764 986 l 831 986 l 831 329 q 785 146 831 222 q 663 29 740 69 q 490 -11 586 -11 l 490 -11 q 317 29 394 -11 q 196 146 240 69 q 151 329 151 222 l 151 986 l 219 986 l 219 333 z "},"Ú":{"ha":982,"x_min":151,"x_max":831,"o":"m 219 333 q 255 185 219 247 q 351 88 290 122 q 490 54 413 54 q 631 88 569 54 q 728 185 693 122 q 764 333 764 247 l 764 986 l 831 986 l 831 329 q 785 146 831 222 q 663 29 740 69 q 490 -11 586 -11 l 490 -11 q 317 29 394 -11 q 196 146 240 69 q 151 329 151 222 l 151 986 l 219 986 l 219 333 m 663 1228 l 515 1043 l 468 1043 l 589 1228 l 663 1228 z "},"Ŭ":{"ha":982,"x_min":151,"x_max":831,"o":"m 219 333 q 255 185 219 247 q 351 88 290 122 q 490 54 413 54 q 631 88 569 54 q 728 185 693 122 q 764 333 764 247 l 764 986 l 831 986 l 831 329 q 785 146 831 222 q 663 29 740 69 q 490 -11 586 -11 l 490 -11 q 317 29 394 -11 q 196 146 240 69 q 151 329 151 222 l 151 986 l 219 986 l 219 333 m 494 1058 q 402 1087 443 1058 q 337 1167 361 1115 q 307 1288 313 1219 l 354 1288 q 376 1197 358 1239 q 425 1131 394 1156 q 494 1107 456 1107 q 564 1131 535 1107 q 610 1197 593 1156 q 631 1288 628 1239 l 679 1288 q 651 1167 675 1218 q 586 1087 626 1115 q 494 1058 546 1058 z "},"Ǔ":{"ha":982,"x_min":151,"x_max":831,"o":"m 219 333 q 255 185 219 247 q 351 88 290 122 q 490 54 413 54 q 631 88 569 54 q 728 185 693 122 q 764 333 764 247 l 764 986 l 831 986 l 831 329 q 785 146 831 222 q 663 29 740 69 q 490 -11 586 -11 l 490 -11 q 317 29 394 -11 q 196 146 240 69 q 151 329 151 222 l 151 986 l 219 986 l 219 333 m 351 1261 l 504 1090 l 474 1086 l 628 1261 l 693 1261 l 492 1040 l 490 1040 l 286 1261 l 351 1261 z "},"Û":{"ha":982,"x_min":151,"x_max":831,"o":"m 219 333 q 255 185 219 247 q 351 88 290 122 q 490 54 413 54 q 631 88 569 54 q 728 185 693 122 q 764 333 764 247 l 764 986 l 831 986 l 831 329 q 785 146 831 222 q 663 29 740 69 q 490 -11 586 -11 l 490 -11 q 317 29 394 -11 q 196 146 240 69 q 151 329 151 222 l 151 986 l 219 986 l 219 333 m 628 1075 l 476 1244 l 506 1249 l 353 1075 l 288 1075 l 489 1296 l 490 1296 l 693 1075 l 628 1075 z "},"Ȕ":{"ha":982,"x_min":151,"x_max":831,"o":"m 219 333 q 255 185 219 247 q 351 88 290 122 q 490 54 413 54 q 631 88 569 54 q 728 185 693 122 q 764 333 764 247 l 764 986 l 831 986 l 831 329 q 785 146 831 222 q 663 29 740 69 q 490 -11 586 -11 l 490 -11 q 317 29 394 -11 q 196 146 240 69 q 151 329 151 222 l 151 986 l 219 986 l 219 333 m 263 1263 l 335 1263 l 450 1078 l 403 1078 l 263 1263 m 421 1263 l 493 1263 l 608 1078 l 561 1078 l 421 1263 z "},"Ü":{"ha":982,"x_min":151,"x_max":831,"o":"m 219 333 q 255 185 219 247 q 351 88 290 122 q 490 54 413 54 q 631 88 569 54 q 728 185 693 122 q 764 333 764 247 l 764 986 l 831 986 l 831 329 q 785 146 831 222 q 663 29 740 69 q 490 -11 586 -11 l 490 -11 q 317 29 394 -11 q 196 146 240 69 q 151 329 151 222 l 151 986 l 219 986 l 219 333 m 322 1113 q 336 1146 322 1132 q 368 1160 350 1160 q 401 1146 386 1160 q 415 1113 415 1132 q 401 1079 415 1093 q 368 1065 386 1065 q 336 1079 350 1065 q 322 1113 322 1093 l 322 1113 m 564 1113 q 578 1146 564 1132 q 611 1160 593 1160 q 642 1146 628 1160 q 657 1113 657 1132 q 642 1079 657 1093 q 611 1065 628 1065 q 578 1079 593 1065 q 564 1113 564 1093 l 564 1113 z "},"Ụ":{"ha":982,"x_min":151,"x_max":831,"o":"m 219 333 q 255 185 219 247 q 351 88 290 122 q 490 54 413 54 q 631 88 569 54 q 728 185 693 122 q 764 333 764 247 l 764 986 l 831 986 l 831 329 q 785 146 831 222 q 663 29 740 69 q 490 -11 586 -11 l 490 -11 q 317 29 394 -11 q 196 146 240 69 q 151 329 151 222 l 151 986 l 219 986 l 219 333 m 443 -121 q 458 -88 443 -101 q 492 -75 474 -75 q 525 -88 511 -75 q 539 -121 539 -101 q 525 -155 539 -142 q 492 -168 511 -168 q 458 -154 474 -168 q 443 -121 443 -140 z "},"Ù":{"ha":982,"x_min":151,"x_max":831,"o":"m 219 333 q 255 185 219 247 q 351 88 290 122 q 490 54 413 54 q 631 88 569 54 q 728 185 693 122 q 764 333 764 247 l 764 986 l 831 986 l 831 329 q 785 146 831 222 q 663 29 740 69 q 490 -11 586 -11 l 490 -11 q 317 29 394 -11 q 196 146 240 69 q 151 329 151 222 l 151 986 l 219 986 l 219 333 m 331 1240 l 403 1240 l 518 1056 l 471 1056 l 331 1240 z "},"Ủ":{"ha":982,"x_min":151,"x_max":831,"o":"m 219 333 q 255 185 219 247 q 351 88 290 122 q 490 54 413 54 q 631 88 569 54 q 728 185 693 122 q 764 333 764 247 l 764 986 l 831 986 l 831 329 q 785 146 831 222 q 663 29 740 69 q 490 -11 586 -11 l 490 -11 q 317 29 394 -11 q 196 146 240 69 q 151 329 151 222 l 151 986 l 219 986 l 219 333 m 488 1065 q 538 1111 518 1090 q 557 1160 557 1132 q 543 1197 557 1183 q 507 1211 529 1211 q 466 1199 482 1211 q 432 1163 450 1188 l 403 1185 q 453 1240 426 1222 q 514 1257 481 1257 q 560 1247 540 1257 q 591 1215 579 1236 q 603 1163 603 1194 q 576 1092 603 1121 q 513 1035 550 1063 l 488 1065 z "},"Ư":{"ha":982,"x_min":151,"x_max":993,"o":"m 219 333 q 255 185 219 247 q 351 88 290 122 q 490 54 413 54 q 631 88 569 54 q 728 185 693 122 q 764 333 764 247 l 764 986 l 831 986 l 831 329 q 785 146 831 222 q 663 29 740 69 q 490 -11 586 -11 l 490 -11 q 317 29 394 -11 q 196 146 240 69 q 151 329 151 222 l 151 986 l 219 986 l 219 333 m 810 960 q 908 992 876 960 q 942 1108 939 1024 l 993 1108 q 965 983 989 1025 q 902 928 942 942 q 810 915 863 915 l 810 960 z "},"Ứ":{"ha":982,"x_min":151,"x_max":993,"o":"m 219 333 q 255 185 219 247 q 351 88 290 122 q 490 54 413 54 q 631 88 569 54 q 728 185 693 122 q 764 333 764 247 l 764 986 l 831 986 l 831 329 q 785 146 831 222 q 663 29 740 69 q 490 -11 586 -11 l 490 -11 q 317 29 394 -11 q 196 146 240 69 q 151 329 151 222 l 151 986 l 219 986 l 219 333 m 810 960 q 908 992 876 960 q 942 1108 939 1024 l 993 1108 q 965 983 989 1025 q 902 928 942 942 q 810 915 863 915 l 810 960 m 663 1228 l 515 1043 l 468 1043 l 589 1228 l 663 1228 z "},"Ự":{"ha":982,"x_min":151,"x_max":993,"o":"m 219 333 q 255 185 219 247 q 351 88 290 122 q 490 54 413 54 q 631 88 569 54 q 728 185 693 122 q 764 333 764 247 l 764 986 l 831 986 l 831 329 q 785 146 831 222 q 663 29 740 69 q 490 -11 586 -11 l 490 -11 q 317 29 394 -11 q 196 146 240 69 q 151 329 151 222 l 151 986 l 219 986 l 219 333 m 810 960 q 908 992 876 960 q 942 1108 939 1024 l 993 1108 q 965 983 989 1025 q 902 928 942 942 q 810 915 863 915 l 810 960 m 443 -121 q 458 -88 443 -101 q 492 -75 474 -75 q 525 -88 511 -75 q 539 -121 539 -101 q 525 -155 539 -142 q 492 -168 511 -168 q 458 -154 474 -168 q 443 -121 443 -140 z "},"Ừ":{"ha":982,"x_min":151,"x_max":993,"o":"m 219 333 q 255 185 219 247 q 351 88 290 122 q 490 54 413 54 q 631 88 569 54 q 728 185 693 122 q 764 333 764 247 l 764 986 l 831 986 l 831 329 q 785 146 831 222 q 663 29 740 69 q 490 -11 586 -11 l 490 -11 q 317 29 394 -11 q 196 146 240 69 q 151 329 151 222 l 151 986 l 219 986 l 219 333 m 810 960 q 908 992 876 960 q 942 1108 939 1024 l 993 1108 q 965 983 989 1025 q 902 928 942 942 q 810 915 863 915 l 810 960 m 331 1240 l 403 1240 l 518 1056 l 471 1056 l 331 1240 z "},"Ử":{"ha":982,"x_min":151,"x_max":993,"o":"m 219 333 q 255 185 219 247 q 351 88 290 122 q 490 54 413 54 q 631 88 569 54 q 728 185 693 122 q 764 333 764 247 l 764 986 l 831 986 l 831 329 q 785 146 831 222 q 663 29 740 69 q 490 -11 586 -11 l 490 -11 q 317 29 394 -11 q 196 146 240 69 q 151 329 151 222 l 151 986 l 219 986 l 219 333 m 810 960 q 908 992 876 960 q 942 1108 939 1024 l 993 1108 q 965 983 989 1025 q 902 928 942 942 q 810 915 863 915 l 810 960 m 488 1065 q 538 1111 518 1090 q 557 1160 557 1132 q 543 1197 557 1183 q 507 1211 529 1211 q 466 1199 482 1211 q 432 1163 450 1188 l 403 1185 q 453 1240 426 1222 q 514 1257 481 1257 q 560 1247 540 1257 q 591 1215 579 1236 q 603 1163 603 1194 q 576 1092 603 1121 q 513 1035 550 1063 l 488 1065 z "},"Ữ":{"ha":982,"x_min":151,"x_max":993,"o":"m 219 333 q 255 185 219 247 q 351 88 290 122 q 490 54 413 54 q 631 88 569 54 q 728 185 693 122 q 764 333 764 247 l 764 986 l 831 986 l 831 329 q 785 146 831 222 q 663 29 740 69 q 490 -11 586 -11 l 490 -11 q 317 29 394 -11 q 196 146 240 69 q 151 329 151 222 l 151 986 l 219 986 l 219 333 m 810 960 q 908 992 876 960 q 942 1108 939 1024 l 993 1108 q 965 983 989 1025 q 902 928 942 942 q 810 915 863 915 l 810 960 m 596 1085 q 528 1105 554 1085 q 481 1149 503 1125 q 444 1183 463 1167 q 400 1199 425 1199 q 367 1187 383 1199 q 340 1149 351 1175 q 328 1079 329 1124 l 286 1081 q 301 1173 285 1135 q 343 1231 317 1211 q 403 1250 369 1250 q 465 1230 440 1250 q 511 1188 490 1210 q 549 1150 529 1167 q 594 1133 568 1133 q 641 1161 622 1133 q 663 1256 660 1189 l 704 1254 q 691 1160 706 1199 q 651 1103 676 1122 q 596 1085 626 1085 z "},"Ű":{"ha":982,"x_min":151,"x_max":831,"o":"m 219 333 q 255 185 219 247 q 351 88 290 122 q 490 54 413 54 q 631 88 569 54 q 728 185 693 122 q 764 333 764 247 l 764 986 l 831 986 l 831 329 q 785 146 831 222 q 663 29 740 69 q 490 -11 586 -11 l 490 -11 q 317 29 394 -11 q 196 146 240 69 q 151 329 151 222 l 151 986 l 219 986 l 219 333 m 579 1254 l 432 1069 l 385 1069 l 506 1254 l 579 1254 m 740 1253 l 593 1068 l 546 1068 l 667 1253 l 740 1253 z "},"Ȗ":{"ha":982,"x_min":151,"x_max":831,"o":"m 219 333 q 255 185 219 247 q 351 88 290 122 q 490 54 413 54 q 631 88 569 54 q 728 185 693 122 q 764 333 764 247 l 764 986 l 831 986 l 831 329 q 785 146 831 222 q 663 29 740 69 q 490 -11 586 -11 l 490 -11 q 317 29 394 -11 q 196 146 240 69 q 151 329 151 222 l 151 986 l 219 986 l 219 333 m 488 1260 q 581 1231 540 1260 q 646 1151 621 1203 q 675 1031 671 1100 l 628 1031 q 606 1122 625 1081 q 558 1187 588 1163 q 488 1211 528 1211 q 419 1187 449 1211 q 372 1122 389 1163 q 351 1031 354 1081 l 303 1031 q 331 1151 307 1100 q 396 1231 356 1203 q 488 1260 436 1260 z "},"Ū":{"ha":982,"x_min":151,"x_max":831,"o":"m 219 333 q 255 185 219 247 q 351 88 290 122 q 490 54 413 54 q 631 88 569 54 q 728 185 693 122 q 764 333 764 247 l 764 986 l 831 986 l 831 329 q 785 146 831 222 q 663 29 740 69 q 490 -11 586 -11 l 490 -11 q 317 29 394 -11 q 196 146 240 69 q 151 329 151 222 l 151 986 l 219 986 l 219 333 m 326 1111 l 654 1111 l 654 1061 l 326 1061 l 326 1111 z "},"Ų":{"ha":982,"x_min":151,"x_max":831,"o":"m 625 -275 q 538 -241 575 -275 q 501 -151 501 -207 q 528 -60 501 -106 q 597 15 554 -14 l 619 38 l 622 13 q 490 -11 564 -11 q 315 29 392 -11 q 195 146 239 69 q 151 329 151 222 l 151 986 l 219 986 l 219 333 q 255 185 219 247 q 351 88 290 122 q 490 54 413 54 q 631 88 569 54 q 728 185 693 122 q 764 333 764 247 l 764 986 l 831 986 l 831 326 q 811 203 831 257 q 758 108 792 149 q 683 39 725 68 q 592 -49 626 -4 q 558 -147 558 -94 q 581 -205 558 -185 q 631 -225 604 -225 q 681 -207 658 -225 q 719 -161 703 -189 l 750 -193 q 698 -251 732 -228 q 625 -275 664 -275 z "},"Ů":{"ha":982,"x_min":151,"x_max":831,"o":"m 219 333 q 255 185 219 247 q 351 88 290 122 q 490 54 413 54 q 631 88 569 54 q 728 185 693 122 q 764 333 764 247 l 764 986 l 831 986 l 831 329 q 785 146 831 222 q 663 29 740 69 q 490 -11 586 -11 l 490 -11 q 317 29 394 -11 q 196 146 240 69 q 151 329 151 222 l 151 986 l 219 986 l 219 333 m 388 1175 q 417 1249 388 1219 q 493 1278 447 1278 q 567 1249 538 1278 q 597 1175 597 1219 q 567 1101 597 1131 q 493 1072 538 1072 q 417 1101 447 1072 q 388 1175 388 1129 m 428 1174 q 447 1128 428 1147 q 493 1108 467 1108 q 538 1128 519 1108 q 557 1174 557 1147 q 538 1220 557 1201 q 493 1239 519 1239 q 447 1220 467 1239 q 428 1174 428 1201 z "},"Ũ":{"ha":982,"x_min":151,"x_max":831,"o":"m 219 333 q 255 185 219 247 q 351 88 290 122 q 490 54 413 54 q 631 88 569 54 q 728 185 693 122 q 764 333 764 247 l 764 986 l 831 986 l 831 329 q 785 146 831 222 q 663 29 740 69 q 490 -11 586 -11 l 490 -11 q 317 29 394 -11 q 196 146 240 69 q 151 329 151 222 l 151 986 l 219 986 l 219 333 m 596 1085 q 528 1105 554 1085 q 481 1149 503 1125 q 444 1183 463 1167 q 400 1199 425 1199 q 367 1187 383 1199 q 340 1149 351 1175 q 328 1079 329 1124 l 286 1081 q 301 1173 285 1135 q 343 1231 317 1211 q 403 1250 369 1250 q 465 1230 440 1250 q 511 1188 490 1210 q 549 1150 529 1167 q 594 1133 568 1133 q 641 1161 622 1133 q 663 1256 660 1189 l 704 1254 q 691 1160 706 1199 q 651 1103 676 1122 q 596 1085 626 1085 z "},"V":{"ha":975,"x_min":68,"x_max":907,"o":"m 147 986 l 511 63 l 474 68 l 829 986 l 907 986 l 488 -46 l 68 986 l 147 986 z "},"W":{"ha":1379,"x_min":68,"x_max":1311,"o":"m 68 983 l 146 983 l 472 92 l 457 96 l 663 651 l 694 564 l 457 -46 l 68 983 m 522 983 l 590 983 l 929 92 l 908 97 l 1239 983 l 1311 983 l 915 -44 l 522 983 z "},"Ẃ":{"ha":1379,"x_min":68,"x_max":1311,"o":"m 68 983 l 146 983 l 472 92 l 457 96 l 663 651 l 694 564 l 457 -46 l 68 983 m 522 983 l 590 983 l 929 92 l 908 97 l 1239 983 l 1311 983 l 915 -44 l 522 983 m 861 1224 l 714 1039 l 667 1039 l 788 1224 l 861 1224 z "},"Ŵ":{"ha":1379,"x_min":68,"x_max":1311,"o":"m 68 983 l 146 983 l 472 92 l 457 96 l 663 651 l 694 564 l 457 -46 l 68 983 m 522 983 l 590 983 l 929 92 l 908 97 l 1239 983 l 1311 983 l 915 -44 l 522 983 m 826 1071 l 675 1240 l 704 1244 l 551 1071 l 486 1071 l 688 1292 l 689 1292 l 892 1071 l 826 1071 z "},"Ẅ":{"ha":1379,"x_min":68,"x_max":1311,"o":"m 68 983 l 146 983 l 472 92 l 457 96 l 663 651 l 694 564 l 457 -46 l 68 983 m 522 983 l 590 983 l 929 92 l 908 97 l 1239 983 l 1311 983 l 915 -44 l 522 983 m 521 1108 q 535 1142 521 1128 q 567 1156 549 1156 q 599 1142 585 1156 q 614 1108 614 1128 q 599 1075 614 1089 q 567 1061 585 1061 q 535 1075 549 1061 q 521 1108 521 1089 l 521 1108 m 763 1108 q 777 1142 763 1128 q 810 1156 792 1156 q 841 1142 826 1156 q 856 1108 856 1128 q 841 1075 856 1089 q 810 1061 826 1061 q 777 1075 792 1061 q 763 1108 763 1089 l 763 1108 z "},"Ẁ":{"ha":1379,"x_min":68,"x_max":1311,"o":"m 68 983 l 146 983 l 472 92 l 457 96 l 663 651 l 694 564 l 457 -46 l 68 983 m 522 983 l 590 983 l 929 92 l 908 97 l 1239 983 l 1311 983 l 915 -44 l 522 983 m 529 1236 l 601 1236 l 717 1051 l 669 1051 l 529 1236 z "},"X":{"ha":861,"x_min":60,"x_max":800,"o":"m 74 986 l 158 986 l 800 0 l 714 0 l 74 986 m 60 0 l 393 521 l 429 461 l 143 0 l 60 0 m 425 543 l 701 986 l 782 986 l 464 489 l 425 543 z "},"Y":{"ha":918,"x_min":57,"x_max":861,"o":"m 425 351 l 57 986 l 140 986 l 472 408 l 449 407 l 779 986 l 861 986 l 493 351 l 493 0 l 425 0 l 425 351 z "},"Ý":{"ha":918,"x_min":57,"x_max":861,"o":"m 425 351 l 57 986 l 140 986 l 472 408 l 449 407 l 779 986 l 861 986 l 493 351 l 493 0 l 425 0 l 425 351 m 638 1221 l 490 1036 l 443 1036 l 564 1221 l 638 1221 z "},"Ŷ":{"ha":918,"x_min":57,"x_max":861,"o":"m 425 351 l 57 986 l 140 986 l 472 408 l 449 407 l 779 986 l 861 986 l 493 351 l 493 0 l 425 0 l 425 351 m 603 1068 l 451 1238 l 481 1242 l 328 1068 l 263 1068 l 464 1289 l 465 1289 l 668 1068 l 603 1068 z "},"Ÿ":{"ha":918,"x_min":57,"x_max":861,"o":"m 425 351 l 57 986 l 140 986 l 472 408 l 449 407 l 779 986 l 861 986 l 493 351 l 493 0 l 425 0 l 425 351 m 297 1106 q 311 1139 297 1125 q 343 1153 325 1153 q 376 1139 361 1153 q 390 1106 390 1125 q 376 1072 390 1086 q 343 1058 361 1058 q 311 1072 325 1058 q 297 1106 297 1086 l 297 1106 m 539 1106 q 553 1139 539 1125 q 586 1153 568 1153 q 617 1139 603 1153 q 632 1106 632 1125 q 617 1072 632 1086 q 586 1058 603 1058 q 553 1072 568 1058 q 539 1106 539 1086 l 539 1106 z "},"Ỵ":{"ha":918,"x_min":57,"x_max":861,"o":"m 425 351 l 57 986 l 140 986 l 472 408 l 449 407 l 779 986 l 861 986 l 493 351 l 493 0 l 425 0 l 425 351 m 411 -121 q 426 -88 411 -101 q 460 -75 442 -75 q 493 -88 479 -75 q 507 -121 507 -101 q 493 -155 507 -142 q 460 -168 479 -168 q 426 -154 442 -168 q 411 -121 411 -140 z "},"Ỳ":{"ha":918,"x_min":57,"x_max":861,"o":"m 425 351 l 57 986 l 140 986 l 472 408 l 449 407 l 779 986 l 861 986 l 493 351 l 493 0 l 425 0 l 425 351 m 306 1233 l 378 1233 l 493 1049 l 446 1049 l 306 1233 z "},"Ỷ":{"ha":918,"x_min":57,"x_max":861,"o":"m 425 351 l 57 986 l 140 986 l 472 408 l 449 407 l 779 986 l 861 986 l 493 351 l 493 0 l 425 0 l 425 351 m 463 1058 q 513 1104 493 1083 q 532 1153 532 1125 q 518 1190 532 1176 q 482 1204 504 1204 q 441 1192 457 1204 q 407 1156 425 1181 l 378 1178 q 428 1233 401 1215 q 489 1250 456 1250 q 535 1240 515 1250 q 566 1208 554 1229 q 578 1156 578 1188 q 551 1085 578 1114 q 488 1028 525 1056 l 463 1058 z "},"Ȳ":{"ha":918,"x_min":57,"x_max":861,"o":"m 425 351 l 57 986 l 140 986 l 472 408 l 449 407 l 779 986 l 861 986 l 493 351 l 493 0 l 425 0 l 425 351 m 301 1104 l 629 1104 l 629 1054 l 301 1054 l 301 1104 z "},"Ỹ":{"ha":918,"x_min":57,"x_max":861,"o":"m 425 351 l 57 986 l 140 986 l 472 408 l 449 407 l 779 986 l 861 986 l 493 351 l 493 0 l 425 0 l 425 351 m 571 1078 q 503 1098 529 1078 q 456 1142 478 1118 q 419 1176 438 1160 q 375 1192 400 1192 q 342 1180 358 1192 q 315 1142 326 1168 q 303 1072 304 1117 l 261 1074 q 276 1166 260 1128 q 318 1224 292 1204 q 378 1243 344 1243 q 440 1223 415 1243 q 486 1181 465 1203 q 524 1143 504 1160 q 569 1126 543 1126 q 616 1154 597 1126 q 638 1249 635 1182 l 679 1247 q 666 1153 681 1192 q 626 1097 651 1115 q 571 1078 601 1078 z "},"Z":{"ha":976,"x_min":78,"x_max":896,"o":"m 78 0 q 149 99 110 44 q 231 215 188 153 q 322 342 275 276 q 417 475 368 408 q 512 606 465 542 q 602 731 558 671 q 685 844 646 792 q 756 939 724 897 l 768 921 l 211 921 q 165 928 186 921 q 132 950 144 935 q 119 992 119 965 l 119 1035 l 185 1035 l 185 1018 q 194 993 185 1000 q 228 986 204 986 l 863 986 l 188 54 l 182 65 l 896 65 l 896 0 l 78 0 z "},"Ź":{"ha":976,"x_min":78,"x_max":896,"o":"m 78 0 q 149 99 110 44 q 231 215 188 153 q 322 342 275 276 q 417 475 368 408 q 512 606 465 542 q 602 731 558 671 q 685 844 646 792 q 756 939 724 897 l 768 921 l 211 921 q 165 928 186 921 q 132 950 144 935 q 119 992 119 965 l 119 1035 l 185 1035 l 185 1018 q 194 993 185 1000 q 228 986 204 986 l 863 986 l 188 54 l 182 65 l 896 65 l 896 0 l 78 0 m 658 1221 l 511 1036 l 464 1036 l 585 1221 l 658 1221 z "},"Ž":{"ha":976,"x_min":78,"x_max":896,"o":"m 78 0 q 149 99 110 44 q 231 215 188 153 q 322 342 275 276 q 417 475 368 408 q 512 606 465 542 q 602 731 558 671 q 685 844 646 792 q 756 939 724 897 l 768 921 l 211 921 q 165 928 186 921 q 132 950 144 935 q 119 992 119 965 l 119 1035 l 185 1035 l 185 1018 q 194 993 185 1000 q 228 986 204 986 l 863 986 l 188 54 l 182 65 l 896 65 l 896 0 l 78 0 m 347 1254 l 500 1083 l 469 1079 l 624 1254 l 689 1254 l 488 1033 l 486 1033 l 282 1254 l 347 1254 z "},"Ż":{"ha":976,"x_min":78,"x_max":896,"o":"m 78 0 q 149 99 110 44 q 231 215 188 153 q 322 342 275 276 q 417 475 368 408 q 512 606 465 542 q 602 731 558 671 q 685 844 646 792 q 756 939 724 897 l 768 921 l 211 921 q 165 928 186 921 q 132 950 144 935 q 119 992 119 965 l 119 1035 l 185 1035 l 185 1018 q 194 993 185 1000 q 228 986 204 986 l 863 986 l 188 54 l 182 65 l 896 65 l 896 0 l 78 0 m 440 1104 q 456 1137 440 1124 q 489 1150 471 1150 q 522 1137 508 1150 q 536 1104 536 1124 q 522 1070 536 1083 q 489 1057 508 1057 q 456 1071 471 1057 q 440 1104 440 1085 z "},"a":{"ha":776,"x_min":71,"x_max":653,"o":"m 349 -11 q 208 24 271 -11 q 108 124 144 60 q 71 272 71 188 q 110 427 71 363 q 215 526 149 492 q 367 560 282 560 q 503 517 439 560 q 596 408 568 474 l 586 389 l 594 543 l 653 543 l 653 0 l 588 0 l 588 168 l 601 143 q 568 88 592 115 q 510 38 544 61 q 435 2 476 15 q 349 -11 394 -11 m 363 44 q 473 70 424 44 q 553 142 522 96 q 588 247 583 188 l 588 325 q 544 417 576 376 q 464 481 511 457 q 361 504 417 504 q 249 476 300 504 q 167 396 197 447 q 136 275 136 344 q 167 159 136 211 q 249 76 197 107 q 363 44 301 44 z "},"á":{"ha":776,"x_min":71,"x_max":653,"o":"m 349 -11 q 208 24 271 -11 q 108 124 144 60 q 71 272 71 188 q 110 427 71 363 q 215 526 149 492 q 367 560 282 560 q 503 517 439 560 q 596 408 568 474 l 586 389 l 594 543 l 653 543 l 653 0 l 588 0 l 588 168 l 601 143 q 568 88 592 115 q 510 38 544 61 q 435 2 476 15 q 349 -11 394 -11 m 363 44 q 473 70 424 44 q 553 142 522 96 q 588 247 583 188 l 588 325 q 544 417 576 376 q 464 481 511 457 q 361 504 417 504 q 249 476 300 504 q 167 396 197 447 q 136 275 136 344 q 167 159 136 211 q 249 76 197 107 q 363 44 301 44 m 508 842 l 361 657 l 314 657 l 435 842 l 508 842 z "},"ă":{"ha":776,"x_min":71,"x_max":653,"o":"m 349 -11 q 208 24 271 -11 q 108 124 144 60 q 71 272 71 188 q 110 427 71 363 q 215 526 149 492 q 367 560 282 560 q 503 517 439 560 q 596 408 568 474 l 586 389 l 594 543 l 653 543 l 653 0 l 588 0 l 588 168 l 601 143 q 568 88 592 115 q 510 38 544 61 q 435 2 476 15 q 349 -11 394 -11 m 363 44 q 473 70 424 44 q 553 142 522 96 q 588 247 583 188 l 588 325 q 544 417 576 376 q 464 481 511 457 q 361 504 417 504 q 249 476 300 504 q 167 396 197 447 q 136 275 136 344 q 167 159 136 211 q 249 76 197 107 q 363 44 301 44 m 392 650 q 299 678 340 650 q 234 759 258 707 q 204 879 210 811 l 251 879 q 274 789 256 831 q 322 723 292 747 q 392 699 353 699 q 461 723 432 699 q 508 789 490 747 q 528 879 525 831 l 576 879 q 548 758 572 810 q 483 678 524 707 q 392 650 443 650 z "},"ắ":{"ha":776,"x_min":71,"x_max":653,"o":"m 349 -11 q 208 24 271 -11 q 108 124 144 60 q 71 272 71 188 q 110 427 71 363 q 215 526 149 492 q 367 560 282 560 q 503 517 439 560 q 596 408 568 474 l 586 389 l 594 543 l 653 543 l 653 0 l 588 0 l 588 168 l 601 143 q 568 88 592 115 q 510 38 544 61 q 435 2 476 15 q 349 -11 394 -11 m 363 44 q 473 70 424 44 q 553 142 522 96 q 588 247 583 188 l 588 325 q 544 417 576 376 q 464 481 511 457 q 361 504 417 504 q 249 476 300 504 q 167 396 197 447 q 136 275 136 344 q 167 159 136 211 q 249 76 197 107 q 363 44 301 44 m 392 650 q 299 678 340 650 q 234 759 258 707 q 204 879 210 811 l 251 879 q 274 789 256 831 q 322 723 292 747 q 392 699 353 699 q 461 723 432 699 q 508 789 490 747 q 528 879 525 831 l 576 879 q 548 758 572 810 q 483 678 524 707 q 392 650 443 650 m 492 1089 l 344 904 l 297 904 l 418 1089 l 492 1089 z "},"ặ":{"ha":776,"x_min":71,"x_max":653,"o":"m 349 -11 q 208 24 271 -11 q 108 124 144 60 q 71 272 71 188 q 110 427 71 363 q 215 526 149 492 q 367 560 282 560 q 503 517 439 560 q 596 408 568 474 l 586 389 l 594 543 l 653 543 l 653 0 l 588 0 l 588 168 l 601 143 q 568 88 592 115 q 510 38 544 61 q 435 2 476 15 q 349 -11 394 -11 m 363 44 q 473 70 424 44 q 553 142 522 96 q 588 247 583 188 l 588 325 q 544 417 576 376 q 464 481 511 457 q 361 504 417 504 q 249 476 300 504 q 167 396 197 447 q 136 275 136 344 q 167 159 136 211 q 249 76 197 107 q 363 44 301 44 m 342 -137 q 356 -106 342 -118 q 389 -93 371 -93 q 419 -106 406 -93 q 433 -137 433 -118 q 419 -169 433 -157 q 389 -182 406 -182 q 356 -169 371 -182 q 342 -137 342 -156 m 392 650 q 299 678 340 650 q 234 759 258 707 q 204 879 210 811 l 251 879 q 274 789 256 831 q 322 723 292 747 q 392 699 353 699 q 461 723 432 699 q 508 789 490 747 q 528 879 525 831 l 576 879 q 548 758 572 810 q 483 678 524 707 q 392 650 443 650 z "},"ằ":{"ha":776,"x_min":71,"x_max":653,"o":"m 349 -11 q 208 24 271 -11 q 108 124 144 60 q 71 272 71 188 q 110 427 71 363 q 215 526 149 492 q 367 560 282 560 q 503 517 439 560 q 596 408 568 474 l 586 389 l 594 543 l 653 543 l 653 0 l 588 0 l 588 168 l 601 143 q 568 88 592 115 q 510 38 544 61 q 435 2 476 15 q 349 -11 394 -11 m 363 44 q 473 70 424 44 q 553 142 522 96 q 588 247 583 188 l 588 325 q 544 417 576 376 q 464 481 511 457 q 361 504 417 504 q 249 476 300 504 q 167 396 197 447 q 136 275 136 344 q 167 159 136 211 q 249 76 197 107 q 363 44 301 44 m 392 650 q 299 678 340 650 q 234 759 258 707 q 204 879 210 811 l 251 879 q 274 789 256 831 q 322 723 292 747 q 392 699 353 699 q 461 723 432 699 q 508 789 490 747 q 528 879 525 831 l 576 879 q 548 758 572 810 q 483 678 524 707 q 392 650 443 650 m 226 1081 l 299 1081 l 414 896 l 367 896 l 226 1081 z "},"ẳ":{"ha":776,"x_min":71,"x_max":653,"o":"m 349 -11 q 208 24 271 -11 q 108 124 144 60 q 71 272 71 188 q 110 427 71 363 q 215 526 149 492 q 367 560 282 560 q 503 517 439 560 q 596 408 568 474 l 586 389 l 594 543 l 653 543 l 653 0 l 588 0 l 588 168 l 601 143 q 568 88 592 115 q 510 38 544 61 q 435 2 476 15 q 349 -11 394 -11 m 363 44 q 473 70 424 44 q 553 142 522 96 q 588 247 583 188 l 588 325 q 544 417 576 376 q 464 481 511 457 q 361 504 417 504 q 249 476 300 504 q 167 396 197 447 q 136 275 136 344 q 167 159 136 211 q 249 76 197 107 q 363 44 301 44 m 392 650 q 299 678 340 650 q 234 759 258 707 q 204 879 210 811 l 251 879 q 274 789 256 831 q 322 723 292 747 q 392 699 353 699 q 461 723 432 699 q 508 789 490 747 q 528 879 525 831 l 576 879 q 548 758 572 810 q 483 678 524 707 q 392 650 443 650 m 376 893 q 426 939 407 918 q 446 988 446 960 q 432 1025 446 1011 q 396 1039 418 1039 q 355 1027 371 1039 q 321 990 339 1015 l 292 1013 q 342 1067 315 1050 q 403 1085 369 1085 q 449 1074 429 1085 q 480 1043 468 1064 q 492 990 492 1022 q 465 919 492 949 q 401 863 439 890 l 376 893 z "},"ẵ":{"ha":776,"x_min":71,"x_max":653,"o":"m 349 -11 q 208 24 271 -11 q 108 124 144 60 q 71 272 71 188 q 110 427 71 363 q 215 526 149 492 q 367 560 282 560 q 503 517 439 560 q 596 408 568 474 l 586 389 l 594 543 l 653 543 l 653 0 l 588 0 l 588 168 l 601 143 q 568 88 592 115 q 510 38 544 61 q 435 2 476 15 q 349 -11 394 -11 m 363 44 q 473 70 424 44 q 553 142 522 96 q 588 247 583 188 l 588 325 q 544 417 576 376 q 464 481 511 457 q 361 504 417 504 q 249 476 300 504 q 167 396 197 447 q 136 275 136 344 q 167 159 136 211 q 249 76 197 107 q 363 44 301 44 m 392 650 q 299 678 340 650 q 234 759 258 707 q 204 879 210 811 l 251 879 q 274 789 256 831 q 322 723 292 747 q 392 699 353 699 q 461 723 432 699 q 508 789 490 747 q 528 879 525 831 l 576 879 q 548 758 572 810 q 483 678 524 707 q 392 650 443 650 m 510 932 q 442 952 468 932 q 394 996 417 972 q 358 1030 376 1014 q 314 1046 339 1046 q 281 1034 297 1046 q 254 997 265 1022 q 242 926 243 971 l 200 928 q 215 1020 199 982 q 257 1078 231 1058 q 317 1097 283 1097 q 379 1077 354 1097 q 425 1035 404 1057 q 463 997 443 1014 q 508 981 482 981 q 555 1008 536 981 q 576 1103 574 1036 l 618 1101 q 605 1008 619 1046 q 565 951 590 969 q 510 932 540 932 z "},"â":{"ha":776,"x_min":71,"x_max":653,"o":"m 349 -11 q 208 24 271 -11 q 108 124 144 60 q 71 272 71 188 q 110 427 71 363 q 215 526 149 492 q 367 560 282 560 q 503 517 439 560 q 596 408 568 474 l 586 389 l 594 543 l 653 543 l 653 0 l 588 0 l 588 168 l 601 143 q 568 88 592 115 q 510 38 544 61 q 435 2 476 15 q 349 -11 394 -11 m 363 44 q 473 70 424 44 q 553 142 522 96 q 588 247 583 188 l 588 325 q 544 417 576 376 q 464 481 511 457 q 361 504 417 504 q 249 476 300 504 q 167 396 197 447 q 136 275 136 344 q 167 159 136 211 q 249 76 197 107 q 363 44 301 44 m 535 678 l 383 847 l 413 851 l 260 678 l 194 678 l 396 899 l 397 899 l 600 678 l 535 678 z "},"ấ":{"ha":776,"x_min":71,"x_max":708,"o":"m 349 -11 q 208 24 271 -11 q 108 124 144 60 q 71 272 71 188 q 110 427 71 363 q 215 526 149 492 q 367 560 282 560 q 503 517 439 560 q 596 408 568 474 l 586 389 l 594 543 l 653 543 l 653 0 l 588 0 l 588 168 l 601 143 q 568 88 592 115 q 510 38 544 61 q 435 2 476 15 q 349 -11 394 -11 m 363 44 q 473 70 424 44 q 553 142 522 96 q 588 247 583 188 l 588 325 q 544 417 576 376 q 464 481 511 457 q 361 504 417 504 q 249 476 300 504 q 167 396 197 447 q 136 275 136 344 q 167 159 136 211 q 249 76 197 107 q 363 44 301 44 m 532 664 l 381 833 l 410 838 l 257 664 l 192 664 l 393 885 l 394 885 l 597 664 l 532 664 m 708 972 l 561 788 l 514 788 l 635 972 l 708 972 z "},"ậ":{"ha":776,"x_min":71,"x_max":653,"o":"m 349 -11 q 208 24 271 -11 q 108 124 144 60 q 71 272 71 188 q 110 427 71 363 q 215 526 149 492 q 367 560 282 560 q 503 517 439 560 q 596 408 568 474 l 586 389 l 594 543 l 653 543 l 653 0 l 588 0 l 588 168 l 601 143 q 568 88 592 115 q 510 38 544 61 q 435 2 476 15 q 349 -11 394 -11 m 363 44 q 473 70 424 44 q 553 142 522 96 q 588 247 583 188 l 588 325 q 544 417 576 376 q 464 481 511 457 q 361 504 417 504 q 249 476 300 504 q 167 396 197 447 q 136 275 136 344 q 167 159 136 211 q 249 76 197 107 q 363 44 301 44 m 342 -137 q 356 -106 342 -118 q 389 -93 371 -93 q 419 -106 406 -93 q 433 -137 433 -118 q 419 -169 433 -157 q 389 -182 406 -182 q 356 -169 371 -182 q 342 -137 342 -156 m 535 678 l 383 847 l 413 851 l 260 678 l 194 678 l 396 899 l 397 899 l 600 678 l 535 678 z "},"ầ":{"ha":776,"x_min":40,"x_max":653,"o":"m 349 -11 q 208 24 271 -11 q 108 124 144 60 q 71 272 71 188 q 110 427 71 363 q 215 526 149 492 q 367 560 282 560 q 503 517 439 560 q 596 408 568 474 l 586 389 l 594 543 l 653 543 l 653 0 l 588 0 l 588 168 l 601 143 q 568 88 592 115 q 510 38 544 61 q 435 2 476 15 q 349 -11 394 -11 m 363 44 q 473 70 424 44 q 553 142 522 96 q 588 247 583 188 l 588 325 q 544 417 576 376 q 464 481 511 457 q 361 504 417 504 q 249 476 300 504 q 167 396 197 447 q 136 275 136 344 q 167 159 136 211 q 249 76 197 107 q 363 44 301 44 m 525 656 l 374 825 l 403 829 l 250 656 l 185 656 l 386 876 l 388 876 l 590 656 l 525 656 m 40 983 l 113 983 l 228 799 l 181 799 l 40 983 z "},"ẩ":{"ha":776,"x_min":71,"x_max":672,"o":"m 349 -11 q 208 24 271 -11 q 108 124 144 60 q 71 272 71 188 q 110 427 71 363 q 215 526 149 492 q 367 560 282 560 q 503 517 439 560 q 596 408 568 474 l 586 389 l 594 543 l 653 543 l 653 0 l 588 0 l 588 168 l 601 143 q 568 88 592 115 q 510 38 544 61 q 435 2 476 15 q 349 -11 394 -11 m 363 44 q 473 70 424 44 q 553 142 522 96 q 588 247 583 188 l 588 325 q 544 417 576 376 q 464 481 511 457 q 361 504 417 504 q 249 476 300 504 q 167 396 197 447 q 136 275 136 344 q 167 159 136 211 q 249 76 197 107 q 363 44 301 44 m 526 664 l 375 833 l 404 838 l 251 664 l 186 664 l 388 885 l 389 885 l 592 664 l 526 664 m 557 800 q 607 846 588 825 q 626 894 626 867 q 613 932 626 918 q 576 946 599 946 q 535 934 551 946 q 501 897 519 922 l 472 919 q 523 974 496 957 q 583 992 550 992 q 629 981 610 992 q 660 950 649 971 q 672 897 672 929 q 646 826 672 856 q 582 769 619 797 l 557 800 z "},"ẫ":{"ha":776,"x_min":71,"x_max":653,"o":"m 349 -11 q 208 24 271 -11 q 108 124 144 60 q 71 272 71 188 q 110 427 71 363 q 215 526 149 492 q 367 560 282 560 q 503 517 439 560 q 596 408 568 474 l 586 389 l 594 543 l 653 543 l 653 0 l 588 0 l 588 168 l 601 143 q 568 88 592 115 q 510 38 544 61 q 435 2 476 15 q 349 -11 394 -11 m 363 44 q 473 70 424 44 q 553 142 522 96 q 588 247 583 188 l 588 325 q 544 417 576 376 q 464 481 511 457 q 361 504 417 504 q 249 476 300 504 q 167 396 197 447 q 136 275 136 344 q 167 159 136 211 q 249 76 197 107 q 363 44 301 44 m 529 643 l 378 813 l 407 817 l 254 643 l 189 643 l 390 864 l 392 864 l 594 643 l 529 643 m 496 893 q 428 913 454 893 q 381 957 403 933 q 344 991 363 975 q 300 1007 325 1007 q 267 995 283 1007 q 240 958 251 983 q 228 888 229 932 l 186 889 q 201 981 185 943 q 243 1039 217 1019 q 303 1058 269 1058 q 365 1038 340 1058 q 411 996 390 1018 q 449 958 429 975 q 494 942 468 942 q 541 969 522 942 q 563 1064 560 997 l 604 1063 q 591 969 606 1007 q 551 912 576 931 q 496 893 526 893 z "},"ȁ":{"ha":776,"x_min":71,"x_max":653,"o":"m 349 -11 q 208 24 271 -11 q 108 124 144 60 q 71 272 71 188 q 110 427 71 363 q 215 526 149 492 q 367 560 282 560 q 503 517 439 560 q 596 408 568 474 l 586 389 l 594 543 l 653 543 l 653 0 l 588 0 l 588 168 l 601 143 q 568 88 592 115 q 510 38 544 61 q 435 2 476 15 q 349 -11 394 -11 m 363 44 q 473 70 424 44 q 553 142 522 96 q 588 247 583 188 l 588 325 q 544 417 576 376 q 464 481 511 457 q 361 504 417 504 q 249 476 300 504 q 167 396 197 447 q 136 275 136 344 q 167 159 136 211 q 249 76 197 107 q 363 44 301 44 m 163 863 l 235 863 l 350 678 l 303 678 l 163 863 m 321 863 l 393 863 l 508 678 l 461 678 l 321 863 z "},"ä":{"ha":776,"x_min":71,"x_max":653,"o":"m 349 -11 q 208 24 271 -11 q 108 124 144 60 q 71 272 71 188 q 110 427 71 363 q 215 526 149 492 q 367 560 282 560 q 503 517 439 560 q 596 408 568 474 l 586 389 l 594 543 l 653 543 l 653 0 l 588 0 l 588 168 l 601 143 q 568 88 592 115 q 510 38 544 61 q 435 2 476 15 q 349 -11 394 -11 m 363 44 q 473 70 424 44 q 553 142 522 96 q 588 247 583 188 l 588 325 q 544 417 576 376 q 464 481 511 457 q 361 504 417 504 q 249 476 300 504 q 167 396 197 447 q 136 275 136 344 q 167 159 136 211 q 249 76 197 107 q 363 44 301 44 m 228 718 q 242 751 228 738 q 274 765 256 765 q 306 751 292 765 q 321 718 321 738 q 306 685 321 699 q 274 671 292 671 q 242 685 256 671 q 228 718 228 699 l 228 718 m 469 718 q 484 751 469 738 q 517 765 499 765 q 548 751 533 765 q 563 718 563 738 q 548 685 563 699 q 517 671 533 671 q 484 685 499 671 q 469 718 469 699 l 469 718 z "},"ạ":{"ha":776,"x_min":71,"x_max":653,"o":"m 349 -11 q 208 24 271 -11 q 108 124 144 60 q 71 272 71 188 q 110 427 71 363 q 215 526 149 492 q 367 560 282 560 q 503 517 439 560 q 596 408 568 474 l 586 389 l 594 543 l 653 543 l 653 0 l 588 0 l 588 168 l 601 143 q 568 88 592 115 q 510 38 544 61 q 435 2 476 15 q 349 -11 394 -11 m 363 44 q 473 70 424 44 q 553 142 522 96 q 588 247 583 188 l 588 325 q 544 417 576 376 q 464 481 511 457 q 361 504 417 504 q 249 476 300 504 q 167 396 197 447 q 136 275 136 344 q 167 159 136 211 q 249 76 197 107 q 363 44 301 44 m 342 -137 q 356 -106 342 -118 q 389 -93 371 -93 q 419 -106 406 -93 q 433 -137 433 -118 q 419 -169 433 -157 q 389 -182 406 -182 q 356 -169 371 -182 q 342 -137 342 -156 z "},"à":{"ha":776,"x_min":71,"x_max":653,"o":"m 349 -11 q 208 24 271 -11 q 108 124 144 60 q 71 272 71 188 q 110 427 71 363 q 215 526 149 492 q 367 560 282 560 q 503 517 439 560 q 596 408 568 474 l 586 389 l 594 543 l 653 543 l 653 0 l 588 0 l 588 168 l 601 143 q 568 88 592 115 q 510 38 544 61 q 435 2 476 15 q 349 -11 394 -11 m 363 44 q 473 70 424 44 q 553 142 522 96 q 588 247 583 188 l 588 325 q 544 417 576 376 q 464 481 511 457 q 361 504 417 504 q 249 476 300 504 q 167 396 197 447 q 136 275 136 344 q 167 159 136 211 q 249 76 197 107 q 363 44 301 44 m 236 863 l 308 863 l 424 678 l 376 678 l 236 863 z "},"ả":{"ha":776,"x_min":71,"x_max":653,"o":"m 349 -11 q 208 24 271 -11 q 108 124 144 60 q 71 272 71 188 q 110 427 71 363 q 215 526 149 492 q 367 560 282 560 q 503 517 439 560 q 596 408 568 474 l 586 389 l 594 543 l 653 543 l 653 0 l 588 0 l 588 168 l 601 143 q 568 88 592 115 q 510 38 544 61 q 435 2 476 15 q 349 -11 394 -11 m 363 44 q 473 70 424 44 q 553 142 522 96 q 588 247 583 188 l 588 325 q 544 417 576 376 q 464 481 511 457 q 361 504 417 504 q 249 476 300 504 q 167 396 197 447 q 136 275 136 344 q 167 159 136 211 q 249 76 197 107 q 363 44 301 44 m 379 650 q 429 696 410 675 q 449 744 449 717 q 435 782 449 768 q 399 796 421 796 q 358 784 374 796 q 324 747 342 772 l 294 769 q 345 824 318 807 q 406 842 372 842 q 451 831 432 842 q 483 800 471 821 q 494 747 494 779 q 468 676 494 706 q 404 619 442 647 l 379 650 z "},"ȃ":{"ha":776,"x_min":71,"x_max":653,"o":"m 349 -11 q 208 24 271 -11 q 108 124 144 60 q 71 272 71 188 q 110 427 71 363 q 215 526 149 492 q 367 560 282 560 q 503 517 439 560 q 596 408 568 474 l 586 389 l 594 543 l 653 543 l 653 0 l 588 0 l 588 168 l 601 143 q 568 88 592 115 q 510 38 544 61 q 435 2 476 15 q 349 -11 394 -11 m 363 44 q 473 70 424 44 q 553 142 522 96 q 588 247 583 188 l 588 325 q 544 417 576 376 q 464 481 511 457 q 361 504 417 504 q 249 476 300 504 q 167 396 197 447 q 136 275 136 344 q 167 159 136 211 q 249 76 197 107 q 363 44 301 44 m 400 860 q 493 831 453 860 q 558 751 533 803 q 588 631 583 700 l 540 631 q 519 722 538 681 q 470 787 500 763 q 400 811 440 811 q 331 787 361 811 q 284 722 301 763 q 264 631 267 681 l 215 631 q 244 751 219 700 q 308 831 268 803 q 400 860 349 860 z "},"ā":{"ha":776,"x_min":71,"x_max":653,"o":"m 349 -11 q 208 24 271 -11 q 108 124 144 60 q 71 272 71 188 q 110 427 71 363 q 215 526 149 492 q 367 560 282 560 q 503 517 439 560 q 596 408 568 474 l 586 389 l 594 543 l 653 543 l 653 0 l 588 0 l 588 168 l 601 143 q 568 88 592 115 q 510 38 544 61 q 435 2 476 15 q 349 -11 394 -11 m 363 44 q 473 70 424 44 q 553 142 522 96 q 588 247 583 188 l 588 325 q 544 417 576 376 q 464 481 511 457 q 361 504 417 504 q 249 476 300 504 q 167 396 197 447 q 136 275 136 344 q 167 159 136 211 q 249 76 197 107 q 363 44 301 44 m 232 732 l 560 732 l 560 682 l 232 682 l 232 732 z "},"ą":{"ha":779,"x_min":72,"x_max":714,"o":"m 349 -11 q 209 24 272 -11 q 109 124 146 60 q 72 272 72 188 q 110 427 72 363 q 210 526 147 492 q 349 560 274 560 q 453 540 407 560 q 535 487 500 521 q 589 408 569 453 l 596 543 l 654 543 l 654 1 q 559 -69 594 -32 q 524 -147 524 -106 q 546 -205 524 -185 q 596 -225 568 -225 q 646 -207 624 -225 q 685 -161 668 -189 l 714 -193 q 662 -251 696 -228 q 590 -275 628 -275 q 503 -241 540 -275 q 465 -151 465 -207 q 503 -57 465 -101 q 593 14 540 -12 l 600 -1 l 589 -8 l 589 165 l 593 143 q 540 69 575 104 q 456 11 504 33 q 349 -11 408 -11 m 363 44 q 474 70 424 44 q 554 142 524 96 q 589 247 585 188 l 589 325 q 545 417 578 376 q 465 481 513 457 q 363 504 418 504 q 250 476 301 504 q 168 396 199 447 q 138 275 138 344 q 168 159 138 211 q 250 76 199 107 q 363 44 301 44 z "},"å":{"ha":776,"x_min":71,"x_max":653,"o":"m 349 -11 q 208 24 271 -11 q 108 124 144 60 q 71 272 71 188 q 110 427 71 363 q 215 526 149 492 q 367 560 282 560 q 503 517 439 560 q 596 408 568 474 l 586 389 l 594 543 l 653 543 l 653 0 l 588 0 l 588 168 l 601 143 q 568 88 592 115 q 510 38 544 61 q 435 2 476 15 q 349 -11 394 -11 m 363 44 q 473 70 424 44 q 553 142 522 96 q 588 247 583 188 l 588 325 q 544 417 576 376 q 464 481 511 457 q 361 504 417 504 q 249 476 300 504 q 167 396 197 447 q 136 275 136 344 q 167 159 136 211 q 249 76 197 107 q 363 44 301 44 m 286 726 q 316 800 286 771 q 392 829 346 829 q 466 800 436 829 q 496 726 496 771 q 466 653 496 682 q 392 624 436 624 q 316 652 346 624 q 286 726 286 681 m 326 725 q 346 679 326 699 q 392 660 365 660 q 437 679 418 660 q 456 725 456 699 q 437 772 456 753 q 392 790 418 790 q 346 772 365 790 q 326 725 326 753 z "},"ǻ":{"ha":776,"x_min":71,"x_max":653,"o":"m 349 -11 q 208 24 271 -11 q 108 124 144 60 q 71 272 71 188 q 110 427 71 363 q 215 526 149 492 q 367 560 282 560 q 503 517 439 560 q 596 408 568 474 l 586 389 l 594 543 l 653 543 l 653 0 l 588 0 l 588 168 l 601 143 q 568 88 592 115 q 510 38 544 61 q 435 2 476 15 q 349 -11 394 -11 m 363 44 q 473 70 424 44 q 553 142 522 96 q 588 247 583 188 l 588 325 q 544 417 576 376 q 464 481 511 457 q 361 504 417 504 q 249 476 300 504 q 167 396 197 447 q 136 275 136 344 q 167 159 136 211 q 249 76 197 107 q 363 44 301 44 m 286 726 q 316 800 286 771 q 392 829 346 829 q 466 800 436 829 q 496 726 496 771 q 466 653 496 682 q 392 624 436 624 q 316 652 346 624 q 286 726 286 681 m 326 725 q 346 679 326 699 q 392 660 365 660 q 437 679 418 660 q 456 725 456 699 q 437 772 456 753 q 392 790 418 790 q 346 772 365 790 q 326 725 326 753 m 508 1119 l 361 935 l 314 935 l 435 1119 l 508 1119 z "},"ã":{"ha":776,"x_min":71,"x_max":653,"o":"m 349 -11 q 208 24 271 -11 q 108 124 144 60 q 71 272 71 188 q 110 427 71 363 q 215 526 149 492 q 367 560 282 560 q 503 517 439 560 q 596 408 568 474 l 586 389 l 594 543 l 653 543 l 653 0 l 588 0 l 588 168 l 601 143 q 568 88 592 115 q 510 38 544 61 q 435 2 476 15 q 349 -11 394 -11 m 363 44 q 473 70 424 44 q 553 142 522 96 q 588 247 583 188 l 588 325 q 544 417 576 376 q 464 481 511 457 q 361 504 417 504 q 249 476 300 504 q 167 396 197 447 q 136 275 136 344 q 167 159 136 211 q 249 76 197 107 q 363 44 301 44 m 500 636 q 433 656 458 636 q 385 700 407 676 q 348 734 367 718 q 304 750 329 750 q 272 738 288 750 q 244 701 256 726 q 232 631 233 675 l 190 632 q 205 724 189 686 q 247 782 221 763 q 307 801 274 801 q 369 781 344 801 q 415 739 394 761 q 453 701 433 718 q 499 685 472 685 q 545 713 526 685 q 567 807 564 740 l 608 806 q 595 712 610 750 q 556 655 581 674 q 500 636 531 636 z "},"æ":{"ha":1083,"x_min":71,"x_max":1026,"o":"m 283 -15 q 161 8 208 -15 q 92 68 114 31 q 71 147 71 106 q 100 240 71 203 q 176 296 129 276 q 274 315 222 315 q 409 285 344 315 q 510 203 474 256 l 496 164 q 400 240 451 214 q 288 267 349 267 q 219 255 253 267 q 165 218 186 243 q 143 151 143 193 q 181 69 143 103 q 299 35 218 35 q 358 42 325 35 q 424 64 392 49 q 476 103 456 79 l 476 225 l 517 225 l 518 76 q 444 19 489 39 q 356 -8 400 0 q 283 -15 313 -15 m 478 233 l 478 365 q 457 451 478 422 q 404 491 436 481 q 338 501 372 501 q 235 480 283 501 q 140 410 186 458 l 106 454 q 208 528 149 499 q 344 558 267 558 q 456 538 413 558 q 520 478 499 517 q 542 383 542 439 l 542 324 l 478 233 m 767 -11 q 617 26 682 -11 q 515 128 551 64 q 478 274 478 193 q 517 418 478 353 q 622 522 556 483 q 768 561 688 561 q 931 504 865 561 q 1026 356 997 447 l 551 172 l 532 219 l 967 389 l 953 369 q 881 465 929 425 q 764 506 833 506 q 651 475 701 506 q 572 393 601 444 q 542 276 542 342 q 570 163 542 215 q 650 78 599 110 q 768 46 701 46 q 853 63 813 46 q 926 106 894 79 l 960 58 q 870 8 921 28 q 767 -11 819 -11 z "},"ǽ":{"ha":1083,"x_min":71,"x_max":1026,"o":"m 283 -15 q 161 8 208 -15 q 92 68 114 31 q 71 147 71 106 q 100 240 71 203 q 176 296 129 276 q 274 315 222 315 q 409 285 344 315 q 510 203 474 256 l 496 164 q 400 240 451 214 q 288 267 349 267 q 219 255 253 267 q 165 218 186 243 q 143 151 143 193 q 181 69 143 103 q 299 35 218 35 q 358 42 325 35 q 424 64 392 49 q 476 103 456 79 l 476 225 l 517 225 l 518 76 q 444 19 489 39 q 356 -8 400 0 q 283 -15 313 -15 m 478 233 l 478 365 q 457 451 478 422 q 404 491 436 481 q 338 501 372 501 q 235 480 283 501 q 140 410 186 458 l 106 454 q 208 528 149 499 q 344 558 267 558 q 456 538 413 558 q 520 478 499 517 q 542 383 542 439 l 542 324 l 478 233 m 767 -11 q 617 26 682 -11 q 515 128 551 64 q 478 274 478 193 q 517 418 478 353 q 622 522 556 483 q 768 561 688 561 q 931 504 865 561 q 1026 356 997 447 l 551 172 l 532 219 l 967 389 l 953 369 q 881 465 929 425 q 764 506 833 506 q 651 475 701 506 q 572 393 601 444 q 542 276 542 342 q 570 163 542 215 q 650 78 599 110 q 768 46 701 46 q 853 63 813 46 q 926 106 894 79 l 960 58 q 870 8 921 28 q 767 -11 819 -11 m 653 833 l 506 649 l 458 649 l 579 833 l 653 833 z "},"b":{"ha":781,"x_min":124,"x_max":710,"o":"m 428 -11 q 276 32 344 -11 q 175 140 207 75 l 189 178 l 189 0 l 124 0 l 124 1056 l 189 1056 l 189 383 l 181 419 q 282 522 213 483 q 435 560 351 560 q 574 523 511 560 q 673 422 636 486 q 710 276 710 358 q 671 120 710 185 q 568 22 632 56 q 428 -11 504 -11 m 417 46 q 537 76 486 46 q 615 158 588 106 q 643 276 643 210 q 615 391 643 339 q 535 474 586 443 q 417 506 485 506 q 312 482 360 506 q 232 418 264 458 q 189 325 200 378 l 189 240 q 225 144 194 189 q 306 73 256 100 q 417 46 356 46 z "},"c":{"ha":601,"x_min":71,"x_max":544,"o":"m 543 53 q 458 6 506 22 q 360 -11 411 -11 q 211 26 276 -11 q 108 126 146 63 q 71 272 71 190 q 110 418 71 354 q 213 519 149 482 q 354 556 278 556 q 460 539 411 556 q 544 492 508 522 l 510 447 q 442 486 481 471 q 358 501 403 501 q 247 471 297 501 q 166 388 196 440 q 136 272 136 336 q 166 158 136 210 q 248 75 196 106 q 364 44 300 44 q 442 58 406 44 q 507 93 478 71 l 543 53 z "},"ć":{"ha":601,"x_min":71,"x_max":544,"o":"m 543 53 q 458 6 506 22 q 360 -11 411 -11 q 211 26 276 -11 q 108 126 146 63 q 71 272 71 190 q 110 418 71 354 q 213 519 149 482 q 354 556 278 556 q 460 539 411 556 q 544 492 508 522 l 510 447 q 442 486 481 471 q 358 501 403 501 q 247 471 297 501 q 166 388 196 440 q 136 272 136 336 q 166 158 136 210 q 248 75 196 106 q 364 44 300 44 q 442 58 406 44 q 507 93 478 71 l 543 53 m 461 838 l 314 653 l 267 653 l 388 838 l 461 838 z "},"č":{"ha":601,"x_min":71,"x_max":556,"o":"m 543 53 q 458 6 506 22 q 360 -11 411 -11 q 211 26 276 -11 q 108 126 146 63 q 71 272 71 190 q 110 418 71 354 q 213 519 149 482 q 354 556 278 556 q 460 539 411 556 q 544 492 508 522 l 510 447 q 442 486 481 471 q 358 501 403 501 q 247 471 297 501 q 166 388 196 440 q 136 272 136 336 q 166 158 136 210 q 248 75 196 106 q 364 44 300 44 q 442 58 406 44 q 507 93 478 71 l 543 53 m 214 839 l 367 668 l 336 664 l 490 839 l 556 839 l 354 618 l 353 618 l 149 839 l 214 839 z "},"ç":{"ha":601,"x_min":71,"x_max":544,"o":"m 543 53 q 458 6 506 22 q 360 -11 411 -11 q 211 26 276 -11 q 108 126 146 63 q 71 272 71 190 q 110 418 71 354 q 213 519 149 482 q 354 556 278 556 q 460 539 411 556 q 544 492 508 522 l 510 447 q 442 486 481 471 q 358 501 403 501 q 247 471 297 501 q 166 388 196 440 q 136 272 136 336 q 166 158 136 210 q 248 75 196 106 q 364 44 300 44 q 442 58 406 44 q 507 93 478 71 l 543 53 m 193 -232 q 234 -258 208 -247 q 294 -268 260 -268 q 376 -248 343 -268 q 408 -192 408 -228 q 383 -136 408 -160 q 303 -112 358 -112 q 251 -119 281 -112 q 206 -132 222 -125 l 185 -97 l 282 11 l 332 1 l 239 -112 l 215 -97 q 260 -81 231 -87 q 315 -75 289 -75 q 426 -103 386 -74 q 467 -190 467 -133 q 444 -257 467 -231 q 385 -296 422 -283 q 301 -308 347 -308 q 224 -296 258 -308 q 169 -265 190 -283 l 193 -232 z "},"ĉ":{"ha":601,"x_min":71,"x_max":553,"o":"m 543 53 q 458 6 506 22 q 360 -11 411 -11 q 211 26 276 -11 q 108 126 146 63 q 71 272 71 190 q 110 418 71 354 q 213 519 149 482 q 354 556 278 556 q 460 539 411 556 q 544 492 508 522 l 510 447 q 442 486 481 471 q 358 501 403 501 q 247 471 297 501 q 166 388 196 440 q 136 272 136 336 q 166 158 136 210 q 248 75 196 106 q 364 44 300 44 q 442 58 406 44 q 507 93 478 71 l 543 53 m 488 674 l 336 843 l 365 847 l 213 674 l 147 674 l 349 894 l 350 894 l 553 674 l 488 674 z "},"ċ":{"ha":601,"x_min":71,"x_max":544,"o":"m 543 53 q 458 6 506 22 q 360 -11 411 -11 q 211 26 276 -11 q 108 126 146 63 q 71 272 71 190 q 110 418 71 354 q 213 519 149 482 q 354 556 278 556 q 460 539 411 556 q 544 492 508 522 l 510 447 q 442 486 481 471 q 358 501 403 501 q 247 471 297 501 q 166 388 196 440 q 136 272 136 336 q 166 158 136 210 q 248 75 196 106 q 364 44 300 44 q 442 58 406 44 q 507 93 478 71 l 543 53 m 301 747 q 317 780 301 767 q 350 793 332 793 q 383 780 369 793 q 397 747 397 767 q 383 713 397 726 q 350 700 369 700 q 317 714 332 700 q 301 747 301 728 z "},"d":{"ha":781,"x_min":71,"x_max":657,"o":"m 346 -11 q 207 26 269 -11 q 108 128 144 63 q 71 275 71 193 q 108 426 71 363 q 210 525 146 490 q 353 560 275 560 q 501 519 431 560 q 603 414 571 479 l 592 383 l 592 1056 l 657 1056 l 657 0 l 590 0 l 590 167 l 604 136 q 500 30 569 71 q 346 -11 431 -11 m 363 46 q 475 73 425 46 q 556 147 525 100 q 590 251 586 193 l 590 321 q 547 415 581 374 q 467 481 514 457 q 363 506 419 506 q 249 476 300 506 q 167 396 197 447 q 136 276 136 344 q 167 160 136 213 q 249 77 197 108 q 363 46 301 46 z "},"ð":{"ha":721,"x_min":71,"x_max":650,"o":"m 354 -11 q 210 26 275 -11 q 108 127 146 63 q 71 275 71 192 q 108 419 71 354 q 208 523 144 485 q 347 561 271 561 q 438 544 397 561 q 512 500 479 528 q 567 438 544 472 q 600 368 589 404 l 579 351 q 538 529 572 439 q 449 704 503 619 q 329 862 396 789 q 192 989 263 935 l 236 1032 q 393 888 318 972 q 526 705 468 803 q 617 506 583 607 q 650 310 650 404 q 628 185 650 243 q 566 83 606 128 q 472 14 526 39 q 354 -11 418 -11 m 360 44 q 473 75 422 44 q 553 158 524 106 q 583 274 583 210 q 553 390 583 338 q 473 473 524 442 q 360 504 422 504 q 245 472 296 504 q 165 386 194 439 q 136 274 136 333 q 166 158 136 210 q 247 75 196 106 q 360 44 297 44 m 497 947 l 228 774 l 203 817 l 472 988 l 497 947 z "},"ď":{"ha":897,"x_min":71,"x_max":890,"o":"m 346 -11 q 207 26 269 -11 q 108 128 144 63 q 71 275 71 193 q 108 426 71 363 q 210 525 146 490 q 353 560 275 560 q 501 519 431 560 q 603 414 571 479 l 592 383 l 592 1056 l 657 1056 l 657 0 l 590 0 l 590 167 l 604 136 q 500 30 569 71 q 346 -11 431 -11 m 363 46 q 475 73 425 46 q 556 147 525 100 q 590 251 586 193 l 590 321 q 547 415 581 374 q 467 481 514 457 q 363 506 419 506 q 249 476 300 506 q 167 396 197 447 q 136 276 136 344 q 167 160 136 213 q 249 77 197 108 q 363 46 301 46 m 806 817 l 774 844 q 817 917 803 872 q 822 1010 832 961 l 882 1019 q 882 944 890 982 q 854 872 874 906 q 806 817 835 839 l 806 817 z "},"đ":{"ha":781,"x_min":71,"x_max":786,"o":"m 346 -11 q 207 26 269 -11 q 108 128 144 63 q 71 275 71 193 q 108 426 71 363 q 210 525 146 490 q 353 560 275 560 q 501 519 431 560 q 603 414 571 479 l 592 383 l 592 1056 l 657 1056 l 657 0 l 590 0 l 590 167 l 604 136 q 500 30 569 71 q 346 -11 431 -11 m 363 46 q 475 73 425 46 q 556 147 525 100 q 590 251 586 193 l 590 321 q 547 415 581 374 q 467 481 514 457 q 363 506 419 506 q 249 476 300 506 q 167 396 197 447 q 136 276 136 344 q 167 160 136 213 q 249 77 197 108 q 363 46 301 46 m 451 904 l 786 904 l 786 842 l 451 842 l 451 904 z "},"ǳ":{"ha":1342,"x_min":71,"x_max":1285,"o":"m 346 -11 q 207 26 269 -11 q 108 128 144 63 q 71 275 71 193 q 108 426 71 363 q 210 525 146 490 q 353 560 275 560 q 501 519 431 560 q 603 414 571 479 l 592 383 l 592 1056 l 657 1056 l 657 0 l 590 0 l 590 167 l 604 136 q 500 30 569 71 q 346 -11 431 -11 m 363 46 q 475 73 425 46 q 556 147 525 100 q 590 251 586 193 l 590 321 q 547 415 581 374 q 467 481 514 457 q 363 506 419 506 q 249 476 300 506 q 167 396 197 447 q 136 276 136 344 q 167 160 136 213 q 249 77 197 108 q 363 46 301 46 m 918 489 q 858 506 882 489 q 835 568 835 524 l 835 594 l 886 594 l 886 578 q 898 552 886 561 q 933 543 910 543 l 1285 543 l 932 42 l 918 56 l 1279 56 l 1279 0 l 831 0 l 1188 507 l 1201 489 l 918 489 z "},"ǆ":{"ha":1342,"x_min":71,"x_max":1285,"o":"m 346 -11 q 207 26 269 -11 q 108 128 144 63 q 71 275 71 193 q 108 426 71 363 q 210 525 146 490 q 353 560 275 560 q 501 519 431 560 q 603 414 571 479 l 592 383 l 592 1056 l 657 1056 l 657 0 l 590 0 l 590 167 l 604 136 q 500 30 569 71 q 346 -11 431 -11 m 363 46 q 475 73 425 46 q 556 147 525 100 q 590 251 586 193 l 590 321 q 547 415 581 374 q 467 481 514 457 q 363 506 419 506 q 249 476 300 506 q 167 396 197 447 q 136 276 136 344 q 167 160 136 213 q 249 77 197 108 q 363 46 301 46 m 918 489 q 858 506 882 489 q 835 568 835 524 l 835 594 l 886 594 l 886 578 q 898 552 886 561 q 933 543 910 543 l 1285 543 l 932 42 l 918 56 l 1279 56 l 1279 0 l 831 0 l 1188 507 l 1201 489 l 918 489 m 935 835 l 1088 664 l 1057 660 l 1211 835 l 1276 835 l 1075 614 l 1074 614 l 869 835 l 935 835 z "},"e":{"ha":676,"x_min":71,"x_max":619,"o":"m 360 -11 q 210 26 275 -11 q 108 128 144 64 q 71 274 71 193 q 110 418 71 353 q 215 522 149 483 q 361 561 281 561 q 524 504 458 561 q 619 356 590 447 l 144 172 l 125 219 l 560 389 l 546 369 q 474 465 522 425 q 357 506 426 506 q 244 475 294 506 q 165 393 194 444 q 135 276 135 342 q 163 163 135 215 q 243 78 192 110 q 361 46 294 46 q 447 63 406 46 q 519 106 488 79 l 553 58 q 463 8 514 28 q 360 -11 413 -11 z "},"é":{"ha":676,"x_min":71,"x_max":619,"o":"m 360 -11 q 210 26 275 -11 q 108 128 144 64 q 71 274 71 193 q 110 418 71 353 q 215 522 149 483 q 361 561 281 561 q 524 504 458 561 q 619 356 590 447 l 144 172 l 125 219 l 560 389 l 546 369 q 474 465 522 425 q 357 506 426 506 q 244 475 294 506 q 165 393 194 444 q 135 276 135 342 q 163 163 135 215 q 243 78 192 110 q 361 46 294 46 q 447 63 406 46 q 519 106 488 79 l 553 58 q 463 8 514 28 q 360 -11 413 -11 m 456 842 l 308 657 l 261 657 l 382 842 l 456 842 z "},"ĕ":{"ha":676,"x_min":71,"x_max":619,"o":"m 360 -11 q 210 26 275 -11 q 108 128 144 64 q 71 274 71 193 q 110 418 71 353 q 215 522 149 483 q 361 561 281 561 q 524 504 458 561 q 619 356 590 447 l 144 172 l 125 219 l 560 389 l 546 369 q 474 465 522 425 q 357 506 426 506 q 244 475 294 506 q 165 393 194 444 q 135 276 135 342 q 163 163 135 215 q 243 78 192 110 q 361 46 294 46 q 447 63 406 46 q 519 106 488 79 l 553 58 q 463 8 514 28 q 360 -11 413 -11 m 339 650 q 247 678 288 650 q 181 759 206 707 q 151 879 157 811 l 199 879 q 221 789 203 831 q 269 723 239 747 q 339 699 300 699 q 408 723 379 699 q 455 789 438 747 q 475 879 472 831 l 524 879 q 495 758 519 810 q 431 678 471 707 q 339 650 390 650 z "},"ě":{"ha":676,"x_min":71,"x_max":619,"o":"m 360 -11 q 210 26 275 -11 q 108 128 144 64 q 71 274 71 193 q 110 418 71 353 q 215 522 149 483 q 361 561 281 561 q 524 504 458 561 q 619 356 590 447 l 144 172 l 125 219 l 560 389 l 546 369 q 474 465 522 425 q 357 506 426 506 q 244 475 294 506 q 165 393 194 444 q 135 276 135 342 q 163 163 135 215 q 243 78 192 110 q 361 46 294 46 q 447 63 406 46 q 519 106 488 79 l 553 58 q 463 8 514 28 q 360 -11 413 -11 m 208 843 l 361 672 l 331 668 l 485 843 l 550 843 l 349 622 l 347 622 l 143 843 l 208 843 z "},"ê":{"ha":676,"x_min":71,"x_max":619,"o":"m 360 -11 q 210 26 275 -11 q 108 128 144 64 q 71 274 71 193 q 110 418 71 353 q 215 522 149 483 q 361 561 281 561 q 524 504 458 561 q 619 356 590 447 l 144 172 l 125 219 l 560 389 l 546 369 q 474 465 522 425 q 357 506 426 506 q 244 475 294 506 q 165 393 194 444 q 135 276 135 342 q 163 163 135 215 q 243 78 192 110 q 361 46 294 46 q 447 63 406 46 q 519 106 488 79 l 553 58 q 463 8 514 28 q 360 -11 413 -11 m 482 678 l 331 847 l 360 851 l 207 678 l 142 678 l 343 899 l 344 899 l 547 678 l 482 678 z "},"ế":{"ha":676,"x_min":71,"x_max":656,"o":"m 360 -11 q 210 26 275 -11 q 108 128 144 64 q 71 274 71 193 q 110 418 71 353 q 215 522 149 483 q 361 561 281 561 q 524 504 458 561 q 619 356 590 447 l 144 172 l 125 219 l 560 389 l 546 369 q 474 465 522 425 q 357 506 426 506 q 244 475 294 506 q 165 393 194 444 q 135 276 135 342 q 163 163 135 215 q 243 78 192 110 q 361 46 294 46 q 447 63 406 46 q 519 106 488 79 l 553 58 q 463 8 514 28 q 360 -11 413 -11 m 479 664 l 328 833 l 357 838 l 204 664 l 139 664 l 340 885 l 342 885 l 544 664 l 479 664 m 656 972 l 508 788 l 461 788 l 582 972 l 656 972 z "},"ệ":{"ha":676,"x_min":71,"x_max":619,"o":"m 360 -11 q 210 26 275 -11 q 108 128 144 64 q 71 274 71 193 q 110 418 71 353 q 215 522 149 483 q 361 561 281 561 q 524 504 458 561 q 619 356 590 447 l 144 172 l 125 219 l 560 389 l 546 369 q 474 465 522 425 q 357 506 426 506 q 244 475 294 506 q 165 393 194 444 q 135 276 135 342 q 163 163 135 215 q 243 78 192 110 q 361 46 294 46 q 447 63 406 46 q 519 106 488 79 l 553 58 q 463 8 514 28 q 360 -11 413 -11 m 292 -137 q 306 -106 292 -118 q 339 -93 321 -93 q 369 -106 356 -93 q 383 -137 383 -118 q 369 -169 383 -157 q 339 -182 356 -182 q 306 -169 321 -182 q 292 -137 292 -156 m 482 678 l 331 847 l 360 851 l 207 678 l 142 678 l 343 899 l 344 899 l 547 678 l 482 678 z "},"ề":{"ha":676,"x_min":-12,"x_max":619,"o":"m 360 -11 q 210 26 275 -11 q 108 128 144 64 q 71 274 71 193 q 110 418 71 353 q 215 522 149 483 q 361 561 281 561 q 524 504 458 561 q 619 356 590 447 l 144 172 l 125 219 l 560 389 l 546 369 q 474 465 522 425 q 357 506 426 506 q 244 475 294 506 q 165 393 194 444 q 135 276 135 342 q 163 163 135 215 q 243 78 192 110 q 361 46 294 46 q 447 63 406 46 q 519 106 488 79 l 553 58 q 463 8 514 28 q 360 -11 413 -11 m 472 656 l 321 825 l 350 829 l 197 656 l 132 656 l 333 876 l 335 876 l 538 656 l 472 656 m -12 983 l 60 983 l 175 799 l 128 799 l -12 983 z "},"ể":{"ha":676,"x_min":71,"x_max":619,"o":"m 360 -11 q 210 26 275 -11 q 108 128 144 64 q 71 274 71 193 q 110 418 71 353 q 215 522 149 483 q 361 561 281 561 q 524 504 458 561 q 619 356 590 447 l 144 172 l 125 219 l 560 389 l 546 369 q 474 465 522 425 q 357 506 426 506 q 244 475 294 506 q 165 393 194 444 q 135 276 135 342 q 163 163 135 215 q 243 78 192 110 q 361 46 294 46 q 447 63 406 46 q 519 106 488 79 l 553 58 q 463 8 514 28 q 360 -11 413 -11 m 474 664 l 322 833 l 351 838 l 199 664 l 133 664 l 335 885 l 336 885 l 539 664 l 474 664 m 504 800 q 554 846 535 825 q 574 894 574 867 q 560 932 574 918 q 524 946 546 946 q 483 934 499 946 q 449 897 467 922 l 419 919 q 470 974 443 957 q 531 992 497 992 q 576 981 557 992 q 608 950 596 971 q 619 897 619 929 q 593 826 619 856 q 529 769 567 797 l 504 800 z "},"ễ":{"ha":676,"x_min":71,"x_max":619,"o":"m 360 -11 q 210 26 275 -11 q 108 128 144 64 q 71 274 71 193 q 110 418 71 353 q 215 522 149 483 q 361 561 281 561 q 524 504 458 561 q 619 356 590 447 l 144 172 l 125 219 l 560 389 l 546 369 q 474 465 522 425 q 357 506 426 506 q 244 475 294 506 q 165 393 194 444 q 135 276 135 342 q 163 163 135 215 q 243 78 192 110 q 361 46 294 46 q 447 63 406 46 q 519 106 488 79 l 553 58 q 463 8 514 28 q 360 -11 413 -11 m 476 643 l 325 813 l 354 817 l 201 643 l 136 643 l 338 864 l 339 864 l 542 643 l 476 643 m 443 893 q 376 913 401 893 q 328 957 350 933 q 291 991 310 975 q 247 1007 272 1007 q 215 995 231 1007 q 188 958 199 983 q 175 888 176 932 l 133 889 q 148 981 132 943 q 190 1039 164 1019 q 250 1058 217 1058 q 313 1038 288 1058 q 358 996 338 1018 q 396 958 376 975 q 442 942 415 942 q 488 969 469 942 q 510 1064 507 997 l 551 1063 q 538 969 553 1007 q 499 912 524 931 q 443 893 474 893 z "},"ȅ":{"ha":676,"x_min":71,"x_max":619,"o":"m 360 -11 q 210 26 275 -11 q 108 128 144 64 q 71 274 71 193 q 110 418 71 353 q 215 522 149 483 q 361 561 281 561 q 524 504 458 561 q 619 356 590 447 l 144 172 l 125 219 l 560 389 l 546 369 q 474 465 522 425 q 357 506 426 506 q 244 475 294 506 q 165 393 194 444 q 135 276 135 342 q 163 163 135 215 q 243 78 192 110 q 361 46 294 46 q 447 63 406 46 q 519 106 488 79 l 553 58 q 463 8 514 28 q 360 -11 413 -11 m 110 863 l 182 863 l 297 678 l 250 678 l 110 863 m 268 863 l 340 863 l 456 678 l 408 678 l 268 863 z "},"ë":{"ha":676,"x_min":71,"x_max":619,"o":"m 360 -11 q 210 26 275 -11 q 108 128 144 64 q 71 274 71 193 q 110 418 71 353 q 215 522 149 483 q 361 561 281 561 q 524 504 458 561 q 619 356 590 447 l 144 172 l 125 219 l 560 389 l 546 369 q 474 465 522 425 q 357 506 426 506 q 244 475 294 506 q 165 393 194 444 q 135 276 135 342 q 163 163 135 215 q 243 78 192 110 q 361 46 294 46 q 447 63 406 46 q 519 106 488 79 l 553 58 q 463 8 514 28 q 360 -11 413 -11 m 175 718 q 189 751 175 738 q 221 765 203 765 q 253 751 239 765 q 268 718 268 738 q 253 685 268 699 q 221 671 239 671 q 189 685 203 671 q 175 718 175 699 l 175 718 m 417 718 q 431 751 417 738 q 464 765 446 765 q 495 751 481 765 q 510 718 510 738 q 495 685 510 699 q 464 671 481 671 q 431 685 446 671 q 417 718 417 699 l 417 718 z "},"ė":{"ha":676,"x_min":71,"x_max":619,"o":"m 360 -11 q 210 26 275 -11 q 108 128 144 64 q 71 274 71 193 q 110 418 71 353 q 215 522 149 483 q 361 561 281 561 q 524 504 458 561 q 619 356 590 447 l 144 172 l 125 219 l 560 389 l 546 369 q 474 465 522 425 q 357 506 426 506 q 244 475 294 506 q 165 393 194 444 q 135 276 135 342 q 163 163 135 215 q 243 78 192 110 q 361 46 294 46 q 447 63 406 46 q 519 106 488 79 l 553 58 q 463 8 514 28 q 360 -11 413 -11 m 296 751 q 311 784 296 771 q 344 797 326 797 q 378 784 364 797 q 392 751 392 771 q 378 717 392 731 q 344 704 364 704 q 311 718 326 704 q 296 751 296 732 z "},"ẹ":{"ha":676,"x_min":71,"x_max":619,"o":"m 360 -11 q 210 26 275 -11 q 108 128 144 64 q 71 274 71 193 q 110 418 71 353 q 215 522 149 483 q 361 561 281 561 q 524 504 458 561 q 619 356 590 447 l 144 172 l 125 219 l 560 389 l 546 369 q 474 465 522 425 q 357 506 426 506 q 244 475 294 506 q 165 393 194 444 q 135 276 135 342 q 163 163 135 215 q 243 78 192 110 q 361 46 294 46 q 447 63 406 46 q 519 106 488 79 l 553 58 q 463 8 514 28 q 360 -11 413 -11 m 292 -137 q 306 -106 292 -118 q 339 -93 321 -93 q 369 -106 356 -93 q 383 -137 383 -118 q 369 -169 383 -157 q 339 -182 356 -182 q 306 -169 321 -182 q 292 -137 292 -156 z "},"è":{"ha":676,"x_min":71,"x_max":619,"o":"m 360 -11 q 210 26 275 -11 q 108 128 144 64 q 71 274 71 193 q 110 418 71 353 q 215 522 149 483 q 361 561 281 561 q 524 504 458 561 q 619 356 590 447 l 144 172 l 125 219 l 560 389 l 546 369 q 474 465 522 425 q 357 506 426 506 q 244 475 294 506 q 165 393 194 444 q 135 276 135 342 q 163 163 135 215 q 243 78 192 110 q 361 46 294 46 q 447 63 406 46 q 519 106 488 79 l 553 58 q 463 8 514 28 q 360 -11 413 -11 m 183 863 l 256 863 l 371 678 l 324 678 l 183 863 z "},"ẻ":{"ha":676,"x_min":71,"x_max":619,"o":"m 360 -11 q 210 26 275 -11 q 108 128 144 64 q 71 274 71 193 q 110 418 71 353 q 215 522 149 483 q 361 561 281 561 q 524 504 458 561 q 619 356 590 447 l 144 172 l 125 219 l 560 389 l 546 369 q 474 465 522 425 q 357 506 426 506 q 244 475 294 506 q 165 393 194 444 q 135 276 135 342 q 163 163 135 215 q 243 78 192 110 q 361 46 294 46 q 447 63 406 46 q 519 106 488 79 l 553 58 q 463 8 514 28 q 360 -11 413 -11 m 326 650 q 376 696 357 675 q 396 744 396 717 q 382 782 396 768 q 346 796 368 796 q 305 784 321 796 q 271 747 289 772 l 242 769 q 292 824 265 807 q 353 842 319 842 q 399 831 379 842 q 430 800 418 821 q 442 747 442 779 q 415 676 442 706 q 351 619 389 647 l 326 650 z "},"ȇ":{"ha":676,"x_min":71,"x_max":619,"o":"m 360 -11 q 210 26 275 -11 q 108 128 144 64 q 71 274 71 193 q 110 418 71 353 q 215 522 149 483 q 361 561 281 561 q 524 504 458 561 q 619 356 590 447 l 144 172 l 125 219 l 560 389 l 546 369 q 474 465 522 425 q 357 506 426 506 q 244 475 294 506 q 165 393 194 444 q 135 276 135 342 q 163 163 135 215 q 243 78 192 110 q 361 46 294 46 q 447 63 406 46 q 519 106 488 79 l 553 58 q 463 8 514 28 q 360 -11 413 -11 m 347 860 q 440 831 400 860 q 506 751 481 803 q 535 631 531 700 l 488 631 q 466 722 485 681 q 417 787 447 763 q 347 811 388 811 q 278 787 308 811 q 231 722 249 763 q 211 631 214 681 l 163 631 q 191 751 167 700 q 256 831 215 803 q 347 860 296 860 z "},"ē":{"ha":676,"x_min":71,"x_max":619,"o":"m 360 -11 q 210 26 275 -11 q 108 128 144 64 q 71 274 71 193 q 110 418 71 353 q 215 522 149 483 q 361 561 281 561 q 524 504 458 561 q 619 356 590 447 l 144 172 l 125 219 l 560 389 l 546 369 q 474 465 522 425 q 357 506 426 506 q 244 475 294 506 q 165 393 194 444 q 135 276 135 342 q 163 163 135 215 q 243 78 192 110 q 361 46 294 46 q 447 63 406 46 q 519 106 488 79 l 553 58 q 463 8 514 28 q 360 -11 413 -11 m 179 732 l 507 732 l 507 682 l 179 682 l 179 732 z "},"ę":{"ha":678,"x_min":72,"x_max":621,"o":"m 465 -275 q 369 -238 408 -275 q 329 -142 329 -201 q 351 -58 329 -99 q 415 13 372 -18 l 475 19 q 444 3 464 10 q 402 -7 424 -3 q 361 -11 381 -11 q 211 26 276 -11 q 109 128 146 64 q 72 274 72 193 q 111 418 72 353 q 216 522 150 483 q 363 561 282 561 q 526 504 460 561 q 621 356 592 447 l 146 172 l 131 214 l 564 383 l 547 369 q 474 467 521 429 q 358 506 426 506 q 246 475 296 506 q 166 393 196 444 q 136 276 136 342 q 166 161 136 214 q 247 77 196 108 q 363 46 299 46 q 448 63 407 46 q 521 106 489 79 l 554 58 q 497 19 526 38 q 443 -19 468 1 q 403 -66 418 -39 q 388 -133 388 -93 q 414 -200 388 -175 q 471 -225 440 -225 q 513 -213 494 -225 q 549 -179 532 -201 l 575 -217 q 527 -258 557 -242 q 465 -275 497 -275 z "},"ẽ":{"ha":676,"x_min":71,"x_max":619,"o":"m 360 -11 q 210 26 275 -11 q 108 128 144 64 q 71 274 71 193 q 110 418 71 353 q 215 522 149 483 q 361 561 281 561 q 524 504 458 561 q 619 356 590 447 l 144 172 l 125 219 l 560 389 l 546 369 q 474 465 522 425 q 357 506 426 506 q 244 475 294 506 q 165 393 194 444 q 135 276 135 342 q 163 163 135 215 q 243 78 192 110 q 361 46 294 46 q 447 63 406 46 q 519 106 488 79 l 553 58 q 463 8 514 28 q 360 -11 413 -11 m 447 636 q 380 656 406 636 q 332 700 354 676 q 295 734 314 718 q 251 750 276 750 q 219 738 235 750 q 192 701 203 726 q 179 631 181 675 l 138 632 q 152 724 136 686 q 194 782 168 763 q 254 801 221 801 q 317 781 292 801 q 363 739 342 761 q 400 701 381 718 q 446 685 419 685 q 492 713 474 685 q 514 807 511 740 l 556 806 q 542 712 557 750 q 503 655 528 674 q 447 636 478 636 z "},"ə":{"ha":676,"x_min":57,"x_max":606,"o":"m 317 554 q 467 517 401 554 q 569 415 532 479 q 606 269 606 350 q 567 125 606 190 q 463 21 528 60 q 315 -18 397 -18 q 152 39 218 -18 q 57 188 86 96 l 532 371 l 551 324 l 117 154 l 131 174 q 202 78 154 118 q 319 38 250 38 q 433 68 382 38 q 513 151 483 99 q 542 267 542 203 q 513 381 542 329 q 434 465 485 433 q 315 497 383 497 q 230 481 271 497 q 157 438 189 465 l 124 485 q 214 535 164 517 q 317 554 264 554 z "},"f":{"ha":450,"x_min":65,"x_max":421,"o":"m 160 0 l 160 482 l 65 482 l 65 542 l 160 542 l 160 815 q 205 1003 160 946 q 339 1061 250 1061 q 381 1056 358 1061 q 421 1040 403 1051 l 393 993 q 372 1003 383 1000 q 344 1007 360 1007 q 255 965 285 1007 q 225 817 225 924 l 225 542 l 407 542 l 407 482 l 225 482 l 225 0 l 160 0 z "},"g":{"ha":783,"x_min":71,"x_max":660,"o":"m 365 -265 q 278 -255 319 -265 q 196 -219 236 -244 q 113 -154 156 -194 l 151 -110 q 263 -187 211 -167 q 363 -207 314 -207 q 497 -180 447 -207 q 569 -108 547 -153 q 593 -7 592 -62 l 594 169 l 610 153 q 510 35 582 81 q 349 -11 439 -11 q 209 27 272 -11 q 108 130 146 65 q 71 274 71 194 q 110 422 71 358 q 215 523 149 486 q 363 560 282 560 q 505 521 438 560 q 603 418 572 482 l 594 388 l 601 543 l 660 543 l 660 -8 q 630 -134 660 -75 q 535 -229 600 -193 q 365 -265 471 -265 m 136 275 q 167 159 136 211 q 249 76 197 107 q 365 44 301 44 q 476 72 426 44 q 558 144 526 99 q 594 243 590 190 l 594 324 q 551 417 583 376 q 470 481 518 457 q 365 504 422 504 q 249 475 301 504 q 167 394 197 446 q 136 275 136 343 z "},"ğ":{"ha":783,"x_min":71,"x_max":660,"o":"m 365 -265 q 278 -255 319 -265 q 196 -219 236 -244 q 113 -154 156 -194 l 151 -110 q 263 -187 211 -167 q 363 -207 314 -207 q 497 -180 447 -207 q 569 -108 547 -153 q 593 -7 592 -62 l 594 169 l 610 153 q 510 35 582 81 q 349 -11 439 -11 q 209 27 272 -11 q 108 130 146 65 q 71 274 71 194 q 110 422 71 358 q 215 523 149 486 q 363 560 282 560 q 505 521 438 560 q 603 418 572 482 l 594 388 l 601 543 l 660 543 l 660 -8 q 630 -134 660 -75 q 535 -229 600 -193 q 365 -265 471 -265 m 136 275 q 167 159 136 211 q 249 76 197 107 q 365 44 301 44 q 476 72 426 44 q 558 144 526 99 q 594 243 590 190 l 594 324 q 551 417 583 376 q 470 481 518 457 q 365 504 422 504 q 249 475 301 504 q 167 394 197 446 q 136 275 136 343 m 388 650 q 295 678 336 650 q 230 759 254 707 q 200 879 206 811 l 247 879 q 269 789 251 831 q 318 723 288 747 q 388 699 349 699 q 457 723 428 699 q 503 789 486 747 q 524 879 521 831 l 572 879 q 544 758 568 810 q 479 678 519 707 q 388 650 439 650 z "},"ǧ":{"ha":783,"x_min":71,"x_max":660,"o":"m 365 -265 q 278 -255 319 -265 q 196 -219 236 -244 q 113 -154 156 -194 l 151 -110 q 263 -187 211 -167 q 363 -207 314 -207 q 497 -180 447 -207 q 569 -108 547 -153 q 593 -7 592 -62 l 594 169 l 610 153 q 510 35 582 81 q 349 -11 439 -11 q 209 27 272 -11 q 108 130 146 65 q 71 274 71 194 q 110 422 71 358 q 215 523 149 486 q 363 560 282 560 q 505 521 438 560 q 603 418 572 482 l 594 388 l 601 543 l 660 543 l 660 -8 q 630 -134 660 -75 q 535 -229 600 -193 q 365 -265 471 -265 m 136 275 q 167 159 136 211 q 249 76 197 107 q 365 44 301 44 q 476 72 426 44 q 558 144 526 99 q 594 243 590 190 l 594 324 q 551 417 583 376 q 470 481 518 457 q 365 504 422 504 q 249 475 301 504 q 167 394 197 446 q 136 275 136 343 m 257 843 l 410 672 l 379 668 l 533 843 l 599 843 l 397 622 l 396 622 l 192 843 l 257 843 z "},"ĝ":{"ha":783,"x_min":71,"x_max":660,"o":"m 365 -265 q 278 -255 319 -265 q 196 -219 236 -244 q 113 -154 156 -194 l 151 -110 q 263 -187 211 -167 q 363 -207 314 -207 q 497 -180 447 -207 q 569 -108 547 -153 q 593 -7 592 -62 l 594 169 l 610 153 q 510 35 582 81 q 349 -11 439 -11 q 209 27 272 -11 q 108 130 146 65 q 71 274 71 194 q 110 422 71 358 q 215 523 149 486 q 363 560 282 560 q 505 521 438 560 q 603 418 572 482 l 594 388 l 601 543 l 660 543 l 660 -8 q 630 -134 660 -75 q 535 -229 600 -193 q 365 -265 471 -265 m 136 275 q 167 159 136 211 q 249 76 197 107 q 365 44 301 44 q 476 72 426 44 q 558 144 526 99 q 594 243 590 190 l 594 324 q 551 417 583 376 q 470 481 518 457 q 365 504 422 504 q 249 475 301 504 q 167 394 197 446 q 136 275 136 343 m 531 678 l 379 847 l 408 851 l 256 678 l 190 678 l 392 899 l 393 899 l 596 678 l 531 678 z "},"ģ":{"ha":746,"x_min":71,"x_max":660,"o":"m 328 704 q 388 849 358 778 q 447 993 417 921 l 503 993 q 450 849 476 921 q 396 704 424 778 l 328 704 m 365 -265 q 278 -255 319 -265 q 196 -219 236 -244 q 113 -154 156 -194 l 151 -110 q 263 -187 211 -167 q 363 -207 314 -207 q 497 -180 447 -207 q 569 -108 547 -153 q 593 -7 592 -62 l 594 169 l 610 153 q 510 35 582 81 q 349 -11 439 -11 q 209 27 272 -11 q 108 130 146 65 q 71 274 71 194 q 110 422 71 358 q 215 523 149 486 q 363 560 282 560 q 505 521 438 560 q 603 418 572 482 l 594 388 l 601 543 l 660 543 l 660 -8 q 630 -134 660 -75 q 535 -229 600 -193 q 365 -265 471 -265 m 136 275 q 167 159 136 211 q 249 76 197 107 q 365 44 301 44 q 476 72 426 44 q 558 144 526 99 q 594 243 590 190 l 594 324 q 551 417 583 376 q 470 481 518 457 q 365 504 422 504 q 249 475 301 504 q 167 394 197 446 q 136 275 136 343 z "},"ġ":{"ha":783,"x_min":71,"x_max":660,"o":"m 365 -265 q 278 -255 319 -265 q 196 -219 236 -244 q 113 -154 156 -194 l 151 -110 q 263 -187 211 -167 q 363 -207 314 -207 q 497 -180 447 -207 q 569 -108 547 -153 q 593 -7 592 -62 l 594 169 l 610 153 q 510 35 582 81 q 349 -11 439 -11 q 209 27 272 -11 q 108 130 146 65 q 71 274 71 194 q 110 422 71 358 q 215 523 149 486 q 363 560 282 560 q 505 521 438 560 q 603 418 572 482 l 594 388 l 601 543 l 660 543 l 660 -8 q 630 -134 660 -75 q 535 -229 600 -193 q 365 -265 471 -265 m 136 275 q 167 159 136 211 q 249 76 197 107 q 365 44 301 44 q 476 72 426 44 q 558 144 526 99 q 594 243 590 190 l 594 324 q 551 417 583 376 q 470 481 518 457 q 365 504 422 504 q 249 475 301 504 q 167 394 197 446 q 136 275 136 343 m 344 751 q 360 784 344 771 q 393 797 375 797 q 426 784 413 797 q 440 751 440 771 q 426 717 440 731 q 393 704 413 704 q 360 718 375 704 q 344 751 344 732 z "},"h":{"ha":711,"x_min":124,"x_max":588,"o":"m 124 0 l 124 1056 l 188 1056 l 188 399 l 183 422 q 273 519 211 479 q 415 558 335 558 q 539 513 492 558 q 588 396 586 468 l 588 0 l 521 0 l 521 378 q 488 465 519 431 q 394 501 456 500 q 293 474 340 501 q 217 399 246 446 q 189 292 189 351 l 189 0 l 124 0 z "},"ħ":{"ha":711,"x_min":-8,"x_max":588,"o":"m 124 0 l 124 1056 l 188 1056 l 188 399 l 183 422 q 273 519 211 479 q 415 558 335 558 q 539 513 492 558 q 588 396 586 468 l 588 0 l 521 0 l 521 378 q 488 465 519 431 q 394 501 456 500 q 293 474 340 501 q 217 399 246 446 q 189 292 189 351 l 189 0 l 124 0 m -8 832 l 326 832 l 326 769 l -8 769 l -8 832 z "},"ĥ":{"ha":711,"x_min":-56,"x_max":588,"o":"m 124 0 l 124 1056 l 188 1056 l 188 399 l 183 422 q 273 519 211 479 q 415 558 335 558 q 539 513 492 558 q 588 396 586 468 l 588 0 l 521 0 l 521 378 q 488 465 519 431 q 394 501 456 500 q 293 474 340 501 q 217 399 246 446 q 189 292 189 351 l 189 0 l 124 0 m 285 1122 l 133 1292 l 163 1296 l 10 1122 l -56 1122 l 146 1343 l 147 1343 l 350 1122 l 285 1122 z "},"i":{"ha":313,"x_min":110,"x_max":206,"o":"m 124 543 l 189 543 l 189 0 l 124 0 l 124 543 m 110 743 q 125 776 110 763 q 158 789 140 789 q 192 776 178 789 q 206 743 206 763 q 192 709 206 722 q 158 696 178 696 q 125 710 140 696 q 110 743 110 724 z "},"ı":{"ha":313,"x_min":124,"x_max":189,"o":"m 124 543 l 189 543 l 189 0 l 124 0 l 124 543 z "},"í":{"ha":313,"x_min":75,"x_max":269,"o":"m 124 543 l 189 543 l 189 0 l 124 0 l 124 543 m 269 833 l 122 649 l 75 649 l 196 833 l 269 833 z "},"ĭ":{"ha":313,"x_min":-35,"x_max":338,"o":"m 124 543 l 189 543 l 189 0 l 124 0 l 124 543 m 153 642 q 60 670 101 642 q -5 751 19 699 q -35 871 -29 803 l 13 871 q 35 781 17 822 q 83 715 53 739 q 153 690 114 690 q 222 715 193 690 q 269 781 251 739 q 289 871 286 822 l 338 871 q 309 750 333 801 q 244 670 285 699 q 153 642 204 642 z "},"î":{"ha":313,"x_min":-44,"x_max":361,"o":"m 124 543 l 189 543 l 189 0 l 124 0 l 124 543 m 296 669 l 144 839 l 174 843 l 21 669 l -44 669 l 157 890 l 158 890 l 361 669 l 296 669 z "},"ȉ":{"ha":313,"x_min":-76,"x_max":269,"o":"m 124 543 l 189 543 l 189 0 l 124 0 l 124 543 m -76 854 l -4 854 l 111 669 l 64 669 l -76 854 m 82 854 l 154 854 l 269 669 l 222 669 l 82 854 z "},"ï":{"ha":313,"x_min":-11,"x_max":324,"o":"m 124 543 l 189 543 l 189 0 l 124 0 l 124 543 m -11 710 q 3 743 -11 729 q 35 757 17 757 q 67 743 53 757 q 82 710 82 729 q 67 676 82 690 q 35 663 53 663 q 3 676 17 663 q -11 710 -11 690 l -11 710 m 231 710 q 245 743 231 729 q 278 757 260 757 q 309 743 294 757 q 324 710 324 729 q 309 676 324 690 q 278 663 294 663 q 245 676 260 663 q 231 710 231 690 l 231 710 z "},"ị":{"ha":313,"x_min":106,"x_max":206,"o":"m 124 543 l 189 543 l 189 0 l 124 0 l 124 543 m 110 743 q 125 776 110 763 q 158 789 140 789 q 192 776 178 789 q 206 743 206 763 q 192 709 206 722 q 158 696 178 696 q 125 710 140 696 q 110 743 110 724 m 106 -137 q 120 -106 106 -118 q 153 -93 135 -93 q 183 -106 169 -93 q 197 -137 197 -118 q 183 -169 197 -157 q 153 -182 169 -182 q 120 -169 135 -182 q 106 -137 106 -156 z "},"ì":{"ha":313,"x_min":-3,"x_max":189,"o":"m 124 543 l 189 543 l 189 0 l 124 0 l 124 543 m -3 854 l 69 854 l 185 669 l 138 669 l -3 854 z "},"ỉ":{"ha":313,"x_min":56,"x_max":256,"o":"m 124 543 l 189 543 l 189 0 l 124 0 l 124 543 m 140 642 q 190 688 171 667 q 210 736 210 708 q 196 774 210 760 q 160 788 182 788 q 119 776 135 788 q 85 739 103 764 l 56 761 q 106 816 79 799 q 167 833 133 833 q 213 823 193 833 q 244 792 232 813 q 256 739 256 771 q 229 668 256 697 q 165 611 203 639 l 140 642 z "},"ȋ":{"ha":313,"x_min":-24,"x_max":349,"o":"m 124 543 l 189 543 l 189 0 l 124 0 l 124 543 m 161 851 q 254 823 214 851 q 319 743 294 794 q 349 622 344 692 l 301 622 q 280 713 299 672 q 231 778 261 754 q 161 803 201 803 q 92 778 122 803 q 45 713 63 754 q 25 622 28 672 l -24 622 q 5 743 -19 692 q 69 823 29 794 q 161 851 110 851 z "},"ĳ":{"ha":624,"x_min":110,"x_max":532,"o":"m 124 543 l 189 543 l 189 0 l 124 0 l 124 543 m 110 743 q 125 776 110 763 q 158 789 140 789 q 192 776 178 789 q 206 743 206 763 q 192 709 206 722 q 158 696 178 696 q 125 710 140 696 q 110 743 110 724 m 413 -261 l 371 -221 q 428 -131 407 -185 q 450 -8 450 -76 l 450 543 l 517 543 l 517 -7 q 491 -158 517 -94 q 413 -261 465 -221 m 436 743 q 451 776 436 763 q 485 789 467 789 q 518 776 504 789 q 532 743 532 763 q 518 709 532 722 q 485 696 504 696 q 451 710 467 696 q 436 743 436 724 z "},"ī":{"ha":313,"x_min":-7,"x_max":321,"o":"m 124 543 l 189 543 l 189 0 l 124 0 l 124 543 m -7 724 l 321 724 l 321 674 l -7 674 l -7 724 z "},"į":{"ha":315,"x_min":1,"x_max":250,"o":"m 125 -275 q 38 -241 75 -275 q 1 -151 1 -207 q 40 -56 1 -100 q 133 15 78 -11 l 176 10 l 190 0 q 93 -69 128 -33 q 58 -147 58 -106 q 81 -205 58 -185 q 131 -225 104 -225 q 181 -207 158 -225 q 219 -161 203 -189 l 250 -193 q 198 -251 232 -228 q 125 -275 164 -275 m 124 543 l 189 543 l 189 0 l 124 0 l 124 543 m 108 692 q 124 724 108 711 q 157 738 139 738 q 190 724 176 738 q 204 692 204 711 q 190 658 204 671 q 157 644 176 644 q 124 658 139 644 q 108 692 108 672 z "},"ĩ":{"ha":313,"x_min":-50,"x_max":371,"o":"m 124 543 l 189 543 l 189 0 l 124 0 l 124 543 m 261 628 q 194 648 219 628 q 146 692 168 668 q 109 726 128 710 q 65 742 90 742 q 33 730 49 742 q 6 692 17 718 q -7 622 -6 667 l -49 624 q -34 716 -50 678 q 8 774 -18 754 q 68 793 35 793 q 131 773 106 793 q 176 731 156 753 q 214 693 194 710 q 260 676 233 676 q 306 704 288 676 q 328 799 325 732 l 369 797 q 356 703 371 742 q 317 647 342 665 q 261 628 292 628 z "},"j":{"ha":311,"x_min":58,"x_max":219,"o":"m 100 -261 l 58 -221 q 116 -131 94 -185 q 138 -8 138 -76 l 138 543 l 204 543 l 204 -7 q 178 -158 204 -94 q 100 -261 153 -221 m 124 743 q 139 776 124 763 q 172 789 154 789 q 206 776 192 789 q 219 743 219 763 q 206 709 219 722 q 172 696 192 696 q 139 710 154 696 q 124 743 124 724 z "},"ȷ":{"ha":311,"x_min":58,"x_max":204,"o":"m 100 -261 l 58 -221 q 116 -131 94 -185 q 138 -8 138 -76 l 138 543 l 204 543 l 204 -7 q 178 -158 204 -94 q 100 -261 153 -221 z "},"ĵ":{"ha":311,"x_min":-31,"x_max":375,"o":"m 100 -261 l 58 -221 q 116 -131 94 -185 q 138 -8 138 -76 l 138 543 l 204 543 l 204 -7 q 178 -158 204 -94 q 100 -261 153 -221 m 310 669 l 158 839 l 188 843 l 35 669 l -31 669 l 171 890 l 172 890 l 375 669 l 310 669 z "},"k":{"ha":626,"x_min":124,"x_max":567,"o":"m 124 0 l 124 1056 l 189 1056 l 189 0 l 124 0 m 314 353 l 567 0 l 490 0 l 268 317 l 314 353 m 167 197 l 161 263 l 493 554 l 533 519 l 167 197 z "},"ķ":{"ha":626,"x_min":124,"x_max":567,"o":"m 124 0 l 124 1056 l 189 1056 l 189 0 l 124 0 m 314 353 l 567 0 l 490 0 l 268 317 l 314 353 m 167 197 l 161 263 l 493 554 l 533 519 l 167 197 m 257 -264 l 224 -239 q 276 -162 261 -211 q 283 -58 290 -114 l 346 -58 q 343 -134 350 -94 q 316 -208 336 -174 q 257 -264 296 -242 z "},"ĸ":{"ha":628,"x_min":124,"x_max":558,"o":"m 181 188 l 169 247 l 469 543 l 550 543 l 181 188 m 189 0 l 124 0 l 124 543 l 189 543 l 189 0 m 281 307 l 558 0 l 478 0 l 233 274 l 281 307 z "},"l":{"ha":313,"x_min":124,"x_max":189,"o":"m 124 1056 l 189 1056 l 189 0 l 124 0 l 124 1056 z "},"ĺ":{"ha":313,"x_min":124,"x_max":335,"o":"m 124 1056 l 189 1056 l 189 0 l 124 0 l 124 1056 m 335 1297 l 188 1113 l 140 1113 l 261 1297 l 335 1297 z "},"ľ":{"ha":501,"x_min":124,"x_max":456,"o":"m 124 1056 l 189 1056 l 189 0 l 124 0 l 124 1056 m 371 813 l 339 840 q 383 913 368 868 q 388 1006 397 957 l 447 1015 q 447 940 456 978 q 419 868 439 901 q 371 813 400 835 l 371 813 z "},"ļ":{"ha":313,"x_min":67,"x_max":193,"o":"m 124 1056 l 189 1056 l 189 0 l 124 0 l 124 1056 m 100 -264 l 67 -239 q 119 -162 104 -211 q 126 -58 133 -114 l 189 -58 q 186 -134 193 -94 q 159 -208 179 -174 q 100 -264 139 -242 z "},"ŀ":{"ha":404,"x_min":124,"x_max":406,"o":"m 124 1056 l 189 1056 l 189 0 l 124 0 l 124 1056 m 313 411 q 326 444 313 431 q 358 458 340 458 q 391 444 376 458 q 406 411 406 431 q 391 377 406 390 q 358 364 376 364 q 326 377 340 364 q 313 411 313 390 l 313 411 z "},"ǉ":{"ha":624,"x_min":124,"x_max":532,"o":"m 124 1056 l 189 1056 l 189 0 l 124 0 l 124 1056 m 413 -261 l 371 -221 q 428 -131 407 -185 q 450 -8 450 -76 l 450 543 l 517 543 l 517 -7 q 491 -158 517 -94 q 413 -261 465 -221 m 436 743 q 451 776 436 763 q 485 789 467 789 q 518 776 504 789 q 532 743 532 763 q 518 709 532 722 q 485 696 504 696 q 451 710 467 696 q 436 743 436 724 z "},"ł":{"ha":304,"x_min":35,"x_max":293,"o":"m 293 508 l 293 450 l 35 368 l 35 426 l 293 508 m 128 1056 l 193 1056 l 193 0 l 128 0 l 128 1056 z "},"m":{"ha":1093,"x_min":124,"x_max":969,"o":"m 181 543 l 188 392 l 178 406 q 270 517 206 476 q 411 558 335 558 q 494 541 457 558 q 553 494 531 524 q 581 425 576 464 l 572 417 q 664 522 601 486 q 799 558 726 558 q 922 513 876 558 q 969 396 968 468 l 969 0 l 904 0 l 904 382 q 874 465 903 431 q 785 501 844 499 q 685 474 731 501 q 610 400 639 446 q 579 297 582 354 l 579 0 l 514 0 l 514 382 q 483 465 513 431 q 393 501 453 499 q 291 474 338 501 q 217 398 244 446 q 189 292 189 350 l 189 0 l 124 0 l 124 543 l 181 543 z "},"n":{"ha":711,"x_min":124,"x_max":588,"o":"m 181 543 l 188 372 l 179 406 q 269 517 203 476 q 415 558 335 558 q 539 513 492 558 q 588 396 586 468 l 588 0 l 521 0 l 521 378 q 488 465 519 431 q 394 501 456 500 q 293 475 340 501 q 217 401 246 449 q 189 292 189 354 l 189 0 l 124 0 l 124 543 l 181 543 z "},"ń":{"ha":711,"x_min":124,"x_max":588,"o":"m 181 543 l 188 372 l 179 406 q 269 517 203 476 q 415 558 335 558 q 539 513 492 558 q 588 396 586 468 l 588 0 l 521 0 l 521 378 q 488 465 519 431 q 394 501 456 500 q 293 475 340 501 q 217 401 246 449 q 189 292 189 354 l 189 0 l 124 0 l 124 543 l 181 543 m 468 838 l 321 653 l 274 653 l 394 838 l 468 838 z "},"ŉ":{"ha":711,"x_min":-60,"x_max":588,"o":"m -26 550 l -60 575 q -8 651 -22 603 q 0 756 7 700 l 63 756 q 60 680 67 719 q 33 606 53 640 q -26 550 13 572 m 181 543 l 188 372 l 179 406 q 269 517 203 476 q 415 558 335 558 q 539 513 492 558 q 588 396 586 468 l 588 0 l 521 0 l 521 378 q 488 465 519 431 q 394 501 456 500 q 293 475 340 501 q 217 401 246 449 q 189 292 189 354 l 189 0 l 124 0 l 124 543 l 181 543 z "},"ň":{"ha":711,"x_min":124,"x_max":588,"o":"m 181 543 l 188 372 l 179 406 q 269 517 203 476 q 415 558 335 558 q 539 513 492 558 q 588 396 586 468 l 588 0 l 521 0 l 521 378 q 488 465 519 431 q 394 501 456 500 q 293 475 340 501 q 217 401 246 449 q 189 292 189 354 l 189 0 l 124 0 l 124 543 l 181 543 m 221 839 l 374 668 l 343 664 l 497 839 l 563 839 l 361 618 l 360 618 l 156 839 l 221 839 z "},"ņ":{"ha":711,"x_min":124,"x_max":588,"o":"m 181 543 l 188 372 l 179 406 q 269 517 203 476 q 415 558 335 558 q 539 513 492 558 q 588 396 586 468 l 588 0 l 521 0 l 521 378 q 488 465 519 431 q 394 501 456 500 q 293 475 340 501 q 217 401 246 449 q 189 292 189 354 l 189 0 l 124 0 l 124 543 l 181 543 m 299 -264 l 265 -239 q 317 -162 303 -211 q 325 -58 332 -114 l 388 -58 q 385 -134 392 -94 q 358 -208 378 -174 q 299 -264 338 -242 z "},"ŋ":{"ha":711,"x_min":124,"x_max":588,"o":"m 588 -4 q 561 -154 588 -89 q 485 -261 535 -219 l 443 -221 q 500 -131 479 -185 q 521 -8 521 -76 l 521 378 q 488 465 519 431 q 394 501 456 500 q 293 475 340 501 q 217 401 246 449 q 189 292 189 354 l 189 0 l 124 0 l 124 543 l 181 543 l 188 406 q 273 517 211 476 q 415 558 335 558 q 539 513 492 558 q 588 396 586 468 l 588 -4 z "},"ɲ":{"ha":711,"x_min":46,"x_max":588,"o":"m 88 -261 l 46 -221 q 103 -131 82 -185 q 125 -8 125 -76 l 125 72 l 190 72 l 190 -7 q 161 -158 190 -94 q 88 -261 132 -221 m 181 543 l 188 372 l 179 406 q 269 517 203 476 q 415 558 335 558 q 539 513 492 558 q 588 396 586 468 l 588 0 l 521 0 l 521 378 q 488 465 519 431 q 394 501 456 500 q 293 475 340 501 q 217 401 246 449 q 189 292 189 354 l 189 0 l 124 0 l 124 543 l 181 543 z "},"ǌ":{"ha":1022,"x_min":124,"x_max":931,"o":"m 181 543 l 188 372 l 179 406 q 269 517 203 476 q 415 558 335 558 q 539 513 492 558 q 588 396 586 468 l 588 0 l 521 0 l 521 378 q 488 465 519 431 q 394 501 456 500 q 293 475 340 501 q 217 401 246 449 q 189 292 189 354 l 189 0 l 124 0 l 124 543 l 181 543 m 811 -261 l 769 -221 q 827 -131 806 -185 q 849 -8 849 -76 l 849 543 l 915 543 l 915 -7 q 890 -158 915 -94 q 811 -261 864 -221 m 835 743 q 850 776 835 763 q 883 789 865 789 q 917 776 903 789 q 931 743 931 763 q 917 709 931 722 q 883 696 903 696 q 850 710 865 696 q 835 743 835 724 z "},"ñ":{"ha":711,"x_min":124,"x_max":588,"o":"m 181 543 l 188 372 l 179 406 q 269 517 203 476 q 415 558 335 558 q 539 513 492 558 q 588 396 586 468 l 588 0 l 521 0 l 521 378 q 488 465 519 431 q 394 501 456 500 q 293 475 340 501 q 217 401 246 449 q 189 292 189 354 l 189 0 l 124 0 l 124 543 l 181 543 m 460 632 q 392 652 418 632 q 344 696 367 672 q 308 730 326 714 q 264 746 289 746 q 231 734 247 746 q 204 697 215 722 q 192 626 193 671 l 150 628 q 165 720 149 682 q 207 778 181 758 q 267 797 233 797 q 329 777 304 797 q 375 735 354 757 q 413 697 393 714 q 458 681 432 681 q 505 708 486 681 q 526 803 524 736 l 568 801 q 555 708 569 746 q 515 651 540 669 q 460 632 490 632 z "},"o":{"ha":721,"x_min":71,"x_max":650,"o":"m 71 275 q 109 419 71 354 q 213 523 147 485 q 361 561 279 561 q 510 523 444 561 q 613 419 575 485 q 650 275 650 354 q 613 131 650 196 q 509 27 575 65 q 361 -11 443 -11 q 213 26 278 -11 q 109 127 147 63 q 71 275 71 192 m 136 274 q 166 158 136 210 q 247 75 196 106 q 360 44 297 44 q 473 75 422 44 q 553 158 524 106 q 583 274 583 210 q 553 390 583 338 q 473 473 524 442 q 360 504 422 504 q 245 472 296 504 q 165 386 194 439 q 136 274 136 333 z "},"ó":{"ha":721,"x_min":71,"x_max":650,"o":"m 71 275 q 109 419 71 354 q 213 523 147 485 q 361 561 279 561 q 510 523 444 561 q 613 419 575 485 q 650 275 650 354 q 613 131 650 196 q 509 27 575 65 q 361 -11 443 -11 q 213 26 278 -11 q 109 127 147 63 q 71 275 71 192 m 136 274 q 166 158 136 210 q 247 75 196 106 q 360 44 297 44 q 473 75 422 44 q 553 158 524 106 q 583 274 583 210 q 553 390 583 338 q 473 473 524 442 q 360 504 422 504 q 245 472 296 504 q 165 386 194 439 q 136 274 136 333 m 474 842 l 326 657 l 279 657 l 400 842 l 474 842 z "},"ŏ":{"ha":721,"x_min":71,"x_max":650,"o":"m 71 275 q 109 419 71 354 q 213 523 147 485 q 361 561 279 561 q 510 523 444 561 q 613 419 575 485 q 650 275 650 354 q 613 131 650 196 q 509 27 575 65 q 361 -11 443 -11 q 213 26 278 -11 q 109 127 147 63 q 71 275 71 192 m 136 274 q 166 158 136 210 q 247 75 196 106 q 360 44 297 44 q 473 75 422 44 q 553 158 524 106 q 583 274 583 210 q 553 390 583 338 q 473 473 524 442 q 360 504 422 504 q 245 472 296 504 q 165 386 194 439 q 136 274 136 333 m 357 650 q 265 678 306 650 q 199 759 224 707 q 169 879 175 811 l 217 879 q 239 789 221 831 q 288 723 257 747 q 357 699 318 699 q 426 723 397 699 q 473 789 456 747 q 493 879 490 831 l 542 879 q 513 758 538 810 q 449 678 489 707 q 357 650 408 650 z "},"ô":{"ha":721,"x_min":71,"x_max":650,"o":"m 71 275 q 109 419 71 354 q 213 523 147 485 q 361 561 279 561 q 510 523 444 561 q 613 419 575 485 q 650 275 650 354 q 613 131 650 196 q 509 27 575 65 q 361 -11 443 -11 q 213 26 278 -11 q 109 127 147 63 q 71 275 71 192 m 136 274 q 166 158 136 210 q 247 75 196 106 q 360 44 297 44 q 473 75 422 44 q 553 158 524 106 q 583 274 583 210 q 553 390 583 338 q 473 473 524 442 q 360 504 422 504 q 245 472 296 504 q 165 386 194 439 q 136 274 136 333 m 500 678 l 349 847 l 378 851 l 225 678 l 160 678 l 361 899 l 363 899 l 565 678 l 500 678 z "},"ố":{"ha":721,"x_min":71,"x_max":674,"o":"m 71 275 q 109 419 71 354 q 213 523 147 485 q 361 561 279 561 q 510 523 444 561 q 613 419 575 485 q 650 275 650 354 q 613 131 650 196 q 509 27 575 65 q 361 -11 443 -11 q 213 26 278 -11 q 109 127 147 63 q 71 275 71 192 m 136 274 q 166 158 136 210 q 247 75 196 106 q 360 44 297 44 q 473 75 422 44 q 553 158 524 106 q 583 274 583 210 q 553 390 583 338 q 473 473 524 442 q 360 504 422 504 q 245 472 296 504 q 165 386 194 439 q 136 274 136 333 m 497 664 l 346 833 l 375 838 l 222 664 l 157 664 l 358 885 l 360 885 l 563 664 l 497 664 m 674 972 l 526 788 l 479 788 l 600 972 l 674 972 z "},"ộ":{"ha":721,"x_min":71,"x_max":650,"o":"m 71 275 q 109 419 71 354 q 213 523 147 485 q 361 561 279 561 q 510 523 444 561 q 613 419 575 485 q 650 275 650 354 q 613 131 650 196 q 509 27 575 65 q 361 -11 443 -11 q 213 26 278 -11 q 109 127 147 63 q 71 275 71 192 m 136 274 q 166 158 136 210 q 247 75 196 106 q 360 44 297 44 q 473 75 422 44 q 553 158 524 106 q 583 274 583 210 q 553 390 583 338 q 473 473 524 442 q 360 504 422 504 q 245 472 296 504 q 165 386 194 439 q 136 274 136 333 m 314 -137 q 328 -106 314 -118 q 361 -93 343 -93 q 392 -106 378 -93 q 406 -137 406 -118 q 392 -169 406 -157 q 361 -182 378 -182 q 328 -169 343 -182 q 314 -137 314 -156 m 500 678 l 349 847 l 378 851 l 225 678 l 160 678 l 361 899 l 363 899 l 565 678 l 500 678 z "},"ồ":{"ha":721,"x_min":6,"x_max":650,"o":"m 71 275 q 109 419 71 354 q 213 523 147 485 q 361 561 279 561 q 510 523 444 561 q 613 419 575 485 q 650 275 650 354 q 613 131 650 196 q 509 27 575 65 q 361 -11 443 -11 q 213 26 278 -11 q 109 127 147 63 q 71 275 71 192 m 136 274 q 166 158 136 210 q 247 75 196 106 q 360 44 297 44 q 473 75 422 44 q 553 158 524 106 q 583 274 583 210 q 553 390 583 338 q 473 473 524 442 q 360 504 422 504 q 245 472 296 504 q 165 386 194 439 q 136 274 136 333 m 490 656 l 339 825 l 368 829 l 215 656 l 150 656 l 351 876 l 353 876 l 556 656 l 490 656 m 6 983 l 78 983 l 193 799 l 146 799 l 6 983 z "},"ổ":{"ha":721,"x_min":71,"x_max":650,"o":"m 71 275 q 109 419 71 354 q 213 523 147 485 q 361 561 279 561 q 510 523 444 561 q 613 419 575 485 q 650 275 650 354 q 613 131 650 196 q 509 27 575 65 q 361 -11 443 -11 q 213 26 278 -11 q 109 127 147 63 q 71 275 71 192 m 136 274 q 166 158 136 210 q 247 75 196 106 q 360 44 297 44 q 473 75 422 44 q 553 158 524 106 q 583 274 583 210 q 553 390 583 338 q 473 473 524 442 q 360 504 422 504 q 245 472 296 504 q 165 386 194 439 q 136 274 136 333 m 492 664 l 340 833 l 369 838 l 217 664 l 151 664 l 353 885 l 354 885 l 557 664 l 492 664 m 522 800 q 572 846 553 825 q 592 894 592 867 q 578 932 592 918 q 542 946 564 946 q 501 934 517 946 q 467 897 485 922 l 438 919 q 488 974 461 957 q 549 992 515 992 q 594 981 575 992 q 626 950 614 971 q 638 897 638 929 q 611 826 638 856 q 547 769 585 797 l 522 800 z "},"ỗ":{"ha":721,"x_min":71,"x_max":650,"o":"m 71 275 q 109 419 71 354 q 213 523 147 485 q 361 561 279 561 q 510 523 444 561 q 613 419 575 485 q 650 275 650 354 q 613 131 650 196 q 509 27 575 65 q 361 -11 443 -11 q 213 26 278 -11 q 109 127 147 63 q 71 275 71 192 m 136 274 q 166 158 136 210 q 247 75 196 106 q 360 44 297 44 q 473 75 422 44 q 553 158 524 106 q 583 274 583 210 q 553 390 583 338 q 473 473 524 442 q 360 504 422 504 q 245 472 296 504 q 165 386 194 439 q 136 274 136 333 m 494 643 l 343 813 l 372 817 l 219 643 l 154 643 l 356 864 l 357 864 l 560 643 l 494 643 m 461 893 q 394 913 419 893 q 346 957 368 933 q 309 991 328 975 q 265 1007 290 1007 q 233 995 249 1007 q 206 958 217 983 q 193 888 194 932 l 151 889 q 166 981 150 943 q 208 1039 182 1019 q 268 1058 235 1058 q 331 1038 306 1058 q 376 996 356 1018 q 414 958 394 975 q 460 942 433 942 q 506 969 488 942 q 528 1064 525 997 l 569 1063 q 556 969 571 1007 q 517 912 542 931 q 461 893 492 893 z "},"ȍ":{"ha":721,"x_min":71,"x_max":650,"o":"m 71 275 q 109 419 71 354 q 213 523 147 485 q 361 561 279 561 q 510 523 444 561 q 613 419 575 485 q 650 275 650 354 q 613 131 650 196 q 509 27 575 65 q 361 -11 443 -11 q 213 26 278 -11 q 109 127 147 63 q 71 275 71 192 m 136 274 q 166 158 136 210 q 247 75 196 106 q 360 44 297 44 q 473 75 422 44 q 553 158 524 106 q 583 274 583 210 q 553 390 583 338 q 473 473 524 442 q 360 504 422 504 q 245 472 296 504 q 165 386 194 439 q 136 274 136 333 m 128 863 l 200 863 l 315 678 l 268 678 l 128 863 m 286 863 l 358 863 l 474 678 l 426 678 l 286 863 z "},"ö":{"ha":721,"x_min":71,"x_max":650,"o":"m 71 275 q 109 419 71 354 q 213 523 147 485 q 361 561 279 561 q 510 523 444 561 q 613 419 575 485 q 650 275 650 354 q 613 131 650 196 q 509 27 575 65 q 361 -11 443 -11 q 213 26 278 -11 q 109 127 147 63 q 71 275 71 192 m 136 274 q 166 158 136 210 q 247 75 196 106 q 360 44 297 44 q 473 75 422 44 q 553 158 524 106 q 583 274 583 210 q 553 390 583 338 q 473 473 524 442 q 360 504 422 504 q 245 472 296 504 q 165 386 194 439 q 136 274 136 333 m 193 718 q 207 751 193 738 q 239 765 221 765 q 272 751 257 765 q 286 718 286 738 q 272 685 286 699 q 239 671 257 671 q 207 685 221 671 q 193 718 193 699 l 193 718 m 435 718 q 449 751 435 738 q 482 765 464 765 q 513 751 499 765 q 528 718 528 738 q 513 685 528 699 q 482 671 499 671 q 449 685 464 671 q 435 718 435 699 l 435 718 z "},"ȫ":{"ha":721,"x_min":71,"x_max":650,"o":"m 71 275 q 109 419 71 354 q 213 523 147 485 q 361 561 279 561 q 510 523 444 561 q 613 419 575 485 q 650 275 650 354 q 613 131 650 196 q 509 27 575 65 q 361 -11 443 -11 q 213 26 278 -11 q 109 127 147 63 q 71 275 71 192 m 136 274 q 166 158 136 210 q 247 75 196 106 q 360 44 297 44 q 473 75 422 44 q 553 158 524 106 q 583 274 583 210 q 553 390 583 338 q 473 473 524 442 q 360 504 422 504 q 245 472 296 504 q 165 386 194 439 q 136 274 136 333 m 193 718 q 207 751 193 738 q 239 765 221 765 q 272 751 257 765 q 286 718 286 738 q 272 685 286 699 q 239 671 257 671 q 207 685 221 671 q 193 718 193 699 l 193 718 m 435 718 q 449 751 435 738 q 482 765 464 765 q 513 751 499 765 q 528 718 528 738 q 513 685 528 699 q 482 671 499 671 q 449 685 464 671 q 435 718 435 699 l 435 718 m 197 946 l 525 946 l 525 896 l 197 896 l 197 946 z "},"ȱ":{"ha":721,"x_min":71,"x_max":650,"o":"m 71 275 q 109 419 71 354 q 213 523 147 485 q 361 561 279 561 q 510 523 444 561 q 613 419 575 485 q 650 275 650 354 q 613 131 650 196 q 509 27 575 65 q 361 -11 443 -11 q 213 26 278 -11 q 109 127 147 63 q 71 275 71 192 m 136 274 q 166 158 136 210 q 247 75 196 106 q 360 44 297 44 q 473 75 422 44 q 553 158 524 106 q 583 274 583 210 q 553 390 583 338 q 473 473 524 442 q 360 504 422 504 q 245 472 296 504 q 165 386 194 439 q 136 274 136 333 m 314 751 q 329 784 314 771 q 363 797 344 797 q 396 784 382 797 q 410 751 410 771 q 396 717 410 731 q 363 704 382 704 q 329 718 344 704 q 314 751 314 732 m 197 978 l 525 978 l 525 928 l 197 928 l 197 978 z "},"ọ":{"ha":721,"x_min":71,"x_max":650,"o":"m 71 275 q 109 419 71 354 q 213 523 147 485 q 361 561 279 561 q 510 523 444 561 q 613 419 575 485 q 650 275 650 354 q 613 131 650 196 q 509 27 575 65 q 361 -11 443 -11 q 213 26 278 -11 q 109 127 147 63 q 71 275 71 192 m 136 274 q 166 158 136 210 q 247 75 196 106 q 360 44 297 44 q 473 75 422 44 q 553 158 524 106 q 583 274 583 210 q 553 390 583 338 q 473 473 524 442 q 360 504 422 504 q 245 472 296 504 q 165 386 194 439 q 136 274 136 333 m 314 -137 q 328 -106 314 -118 q 361 -93 343 -93 q 392 -106 378 -93 q 406 -137 406 -118 q 392 -169 406 -157 q 361 -182 378 -182 q 328 -169 343 -182 q 314 -137 314 -156 z "},"ò":{"ha":721,"x_min":71,"x_max":650,"o":"m 71 275 q 109 419 71 354 q 213 523 147 485 q 361 561 279 561 q 510 523 444 561 q 613 419 575 485 q 650 275 650 354 q 613 131 650 196 q 509 27 575 65 q 361 -11 443 -11 q 213 26 278 -11 q 109 127 147 63 q 71 275 71 192 m 136 274 q 166 158 136 210 q 247 75 196 106 q 360 44 297 44 q 473 75 422 44 q 553 158 524 106 q 583 274 583 210 q 553 390 583 338 q 473 473 524 442 q 360 504 422 504 q 245 472 296 504 q 165 386 194 439 q 136 274 136 333 m 201 863 l 274 863 l 389 678 l 342 678 l 201 863 z "},"ỏ":{"ha":721,"x_min":71,"x_max":650,"o":"m 71 275 q 109 419 71 354 q 213 523 147 485 q 361 561 279 561 q 510 523 444 561 q 613 419 575 485 q 650 275 650 354 q 613 131 650 196 q 509 27 575 65 q 361 -11 443 -11 q 213 26 278 -11 q 109 127 147 63 q 71 275 71 192 m 136 274 q 166 158 136 210 q 247 75 196 106 q 360 44 297 44 q 473 75 422 44 q 553 158 524 106 q 583 274 583 210 q 553 390 583 338 q 473 473 524 442 q 360 504 422 504 q 245 472 296 504 q 165 386 194 439 q 136 274 136 333 m 344 650 q 394 696 375 675 q 414 744 414 717 q 400 782 414 768 q 364 796 386 796 q 323 784 339 796 q 289 747 307 772 l 260 769 q 310 824 283 807 q 371 842 338 842 q 417 831 397 842 q 448 800 436 821 q 460 747 460 779 q 433 676 460 706 q 369 619 407 647 l 344 650 z "},"ơ":{"ha":721,"x_min":71,"x_max":650,"o":"m 71 275 q 109 419 71 354 q 213 523 147 485 q 361 561 279 561 q 510 523 444 561 q 613 419 575 485 q 650 275 650 354 q 613 131 650 196 q 509 27 575 65 q 361 -11 443 -11 q 213 26 278 -11 q 109 127 147 63 q 71 275 71 192 m 136 274 q 166 158 136 210 q 247 75 196 106 q 360 44 297 44 q 473 75 422 44 q 553 158 524 106 q 583 274 583 210 q 553 390 583 338 q 473 473 524 442 q 360 504 422 504 q 245 472 296 504 q 165 386 194 439 q 136 274 136 333 m 453 543 q 553 573 519 543 q 589 682 586 603 l 642 682 q 613 565 638 604 q 547 512 588 525 q 453 499 506 499 l 453 543 z "},"ớ":{"ha":721,"x_min":71,"x_max":650,"o":"m 71 275 q 109 419 71 354 q 213 523 147 485 q 361 561 279 561 q 510 523 444 561 q 613 419 575 485 q 650 275 650 354 q 613 131 650 196 q 509 27 575 65 q 361 -11 443 -11 q 213 26 278 -11 q 109 127 147 63 q 71 275 71 192 m 136 274 q 166 158 136 210 q 247 75 196 106 q 360 44 297 44 q 473 75 422 44 q 553 158 524 106 q 583 274 583 210 q 553 390 583 338 q 473 473 524 442 q 360 504 422 504 q 245 472 296 504 q 165 386 194 439 q 136 274 136 333 m 453 543 q 553 573 519 543 q 589 682 586 603 l 642 682 q 613 565 638 604 q 547 512 588 525 q 453 499 506 499 l 453 543 m 474 842 l 326 657 l 279 657 l 400 842 l 474 842 z "},"ợ":{"ha":721,"x_min":71,"x_max":650,"o":"m 71 275 q 109 419 71 354 q 213 523 147 485 q 361 561 279 561 q 510 523 444 561 q 613 419 575 485 q 650 275 650 354 q 613 131 650 196 q 509 27 575 65 q 361 -11 443 -11 q 213 26 278 -11 q 109 127 147 63 q 71 275 71 192 m 136 274 q 166 158 136 210 q 247 75 196 106 q 360 44 297 44 q 473 75 422 44 q 553 158 524 106 q 583 274 583 210 q 553 390 583 338 q 473 473 524 442 q 360 504 422 504 q 245 472 296 504 q 165 386 194 439 q 136 274 136 333 m 453 543 q 553 573 519 543 q 589 682 586 603 l 642 682 q 613 565 638 604 q 547 512 588 525 q 453 499 506 499 l 453 543 m 314 -137 q 328 -106 314 -118 q 361 -93 343 -93 q 392 -106 378 -93 q 406 -137 406 -118 q 392 -169 406 -157 q 361 -182 378 -182 q 328 -169 343 -182 q 314 -137 314 -156 z "},"ờ":{"ha":721,"x_min":71,"x_max":650,"o":"m 71 275 q 109 419 71 354 q 213 523 147 485 q 361 561 279 561 q 510 523 444 561 q 613 419 575 485 q 650 275 650 354 q 613 131 650 196 q 509 27 575 65 q 361 -11 443 -11 q 213 26 278 -11 q 109 127 147 63 q 71 275 71 192 m 136 274 q 166 158 136 210 q 247 75 196 106 q 360 44 297 44 q 473 75 422 44 q 553 158 524 106 q 583 274 583 210 q 553 390 583 338 q 473 473 524 442 q 360 504 422 504 q 245 472 296 504 q 165 386 194 439 q 136 274 136 333 m 453 543 q 553 573 519 543 q 589 682 586 603 l 642 682 q 613 565 638 604 q 547 512 588 525 q 453 499 506 499 l 453 543 m 201 863 l 274 863 l 389 678 l 342 678 l 201 863 z "},"ở":{"ha":721,"x_min":71,"x_max":650,"o":"m 71 275 q 109 419 71 354 q 213 523 147 485 q 361 561 279 561 q 510 523 444 561 q 613 419 575 485 q 650 275 650 354 q 613 131 650 196 q 509 27 575 65 q 361 -11 443 -11 q 213 26 278 -11 q 109 127 147 63 q 71 275 71 192 m 136 274 q 166 158 136 210 q 247 75 196 106 q 360 44 297 44 q 473 75 422 44 q 553 158 524 106 q 583 274 583 210 q 553 390 583 338 q 473 473 524 442 q 360 504 422 504 q 245 472 296 504 q 165 386 194 439 q 136 274 136 333 m 453 543 q 553 573 519 543 q 589 682 586 603 l 642 682 q 613 565 638 604 q 547 512 588 525 q 453 499 506 499 l 453 543 m 344 650 q 394 696 375 675 q 414 744 414 717 q 400 782 414 768 q 364 796 386 796 q 323 784 339 796 q 289 747 307 772 l 260 769 q 310 824 283 807 q 371 842 338 842 q 417 831 397 842 q 448 800 436 821 q 460 747 460 779 q 433 676 460 706 q 369 619 407 647 l 344 650 z "},"ỡ":{"ha":721,"x_min":71,"x_max":650,"o":"m 461 632 q 397 651 421 632 q 351 693 372 671 q 317 726 335 711 q 274 740 299 740 q 243 729 258 740 q 217 694 228 718 q 206 628 207 669 l 165 628 q 180 717 165 681 q 220 772 194 753 q 276 790 246 790 q 336 771 313 790 q 381 729 360 751 q 417 694 399 710 q 460 679 435 679 q 504 706 486 679 q 524 794 522 732 l 564 794 q 552 704 565 740 q 515 650 539 668 q 461 632 490 632 m 71 275 q 109 419 71 354 q 213 523 147 485 q 361 561 279 561 q 510 523 444 561 q 613 419 575 485 q 650 275 650 354 q 613 131 650 196 q 509 27 575 65 q 361 -11 443 -11 q 213 26 278 -11 q 109 127 147 63 q 71 275 71 192 m 136 274 q 166 158 136 210 q 247 75 196 106 q 360 44 297 44 q 473 75 422 44 q 553 158 524 106 q 583 274 583 210 q 553 390 583 338 q 473 473 524 442 q 360 504 422 504 q 245 472 296 504 q 165 386 194 439 q 136 274 136 333 m 453 543 q 553 573 519 543 q 589 682 586 603 l 642 682 q 613 565 638 604 q 547 512 588 525 q 453 499 506 499 l 453 543 z "},"ő":{"ha":721,"x_min":71,"x_max":650,"o":"m 71 275 q 109 419 71 354 q 213 523 147 485 q 361 561 279 561 q 510 523 444 561 q 613 419 575 485 q 650 275 650 354 q 613 131 650 196 q 509 27 575 65 q 361 -11 443 -11 q 213 26 278 -11 q 109 127 147 63 q 71 275 71 192 m 136 274 q 166 158 136 210 q 247 75 196 106 q 360 44 297 44 q 473 75 422 44 q 553 158 524 106 q 583 274 583 210 q 553 390 583 338 q 473 473 524 442 q 360 504 422 504 q 245 472 296 504 q 165 386 194 439 q 136 274 136 333 m 446 863 l 299 678 l 251 678 l 372 863 l 446 863 m 607 861 l 460 676 l 413 676 l 533 861 l 607 861 z "},"ȏ":{"ha":721,"x_min":71,"x_max":650,"o":"m 71 275 q 109 419 71 354 q 213 523 147 485 q 361 561 279 561 q 510 523 444 561 q 613 419 575 485 q 650 275 650 354 q 613 131 650 196 q 509 27 575 65 q 361 -11 443 -11 q 213 26 278 -11 q 109 127 147 63 q 71 275 71 192 m 136 274 q 166 158 136 210 q 247 75 196 106 q 360 44 297 44 q 473 75 422 44 q 553 158 524 106 q 583 274 583 210 q 553 390 583 338 q 473 473 524 442 q 360 504 422 504 q 245 472 296 504 q 165 386 194 439 q 136 274 136 333 m 365 860 q 458 831 418 860 q 524 751 499 803 q 553 631 549 700 l 506 631 q 484 722 503 681 q 435 787 465 763 q 365 811 406 811 q 297 787 326 811 q 249 722 267 763 q 229 631 232 681 l 181 631 q 209 751 185 700 q 274 831 233 803 q 365 860 314 860 z "},"ō":{"ha":721,"x_min":71,"x_max":650,"o":"m 71 275 q 109 419 71 354 q 213 523 147 485 q 361 561 279 561 q 510 523 444 561 q 613 419 575 485 q 650 275 650 354 q 613 131 650 196 q 509 27 575 65 q 361 -11 443 -11 q 213 26 278 -11 q 109 127 147 63 q 71 275 71 192 m 136 274 q 166 158 136 210 q 247 75 196 106 q 360 44 297 44 q 473 75 422 44 q 553 158 524 106 q 583 274 583 210 q 553 390 583 338 q 473 473 524 442 q 360 504 422 504 q 245 472 296 504 q 165 386 194 439 q 136 274 136 333 m 197 732 l 525 732 l 525 682 l 197 682 l 197 732 z "},"ǫ":{"ha":721,"x_min":71,"x_max":650,"o":"m 486 -275 q 425 -258 453 -275 q 380 -210 397 -240 q 363 -137 363 -179 q 401 -26 363 -71 q 494 51 439 18 l 554 67 q 468 10 515 31 q 360 -11 421 -11 q 213 26 278 -11 q 109 127 147 63 q 71 275 71 192 q 109 419 71 354 q 213 523 147 485 q 361 561 279 561 q 510 523 444 561 q 613 419 575 485 q 650 275 650 354 q 624 156 650 214 q 549 56 597 99 q 458 -35 497 10 q 419 -133 419 -79 q 442 -201 419 -176 q 492 -225 465 -225 q 542 -207 519 -225 q 581 -161 564 -189 l 611 -193 q 559 -251 593 -228 q 486 -275 525 -275 m 360 44 q 473 75 422 44 q 553 158 524 106 q 583 274 583 210 q 553 390 583 338 q 473 473 524 442 q 360 504 422 504 q 245 472 296 504 q 165 386 194 439 q 136 274 136 333 q 166 158 136 210 q 247 75 196 106 q 360 44 297 44 z "},"ø":{"ha":689,"x_min":71,"x_max":650,"o":"m 597 531 l 133 -14 l 100 19 l 563 561 l 597 531 m 71 275 q 109 419 71 354 q 213 523 147 485 q 361 561 279 561 q 510 523 444 561 q 613 419 575 485 q 650 275 650 354 q 613 131 650 196 q 509 27 575 65 q 361 -11 443 -11 q 213 26 278 -11 q 109 127 147 63 q 71 275 71 192 m 136 274 q 166 158 136 210 q 247 75 196 106 q 360 44 297 44 q 473 75 422 44 q 553 158 524 106 q 583 274 583 210 q 553 390 583 338 q 473 473 524 442 q 360 504 422 504 q 245 472 296 504 q 165 386 194 439 q 136 274 136 333 z "},"ǿ":{"ha":689,"x_min":71,"x_max":650,"o":"m 597 531 l 133 -14 l 100 19 l 563 561 l 597 531 m 71 275 q 109 419 71 354 q 213 523 147 485 q 361 561 279 561 q 510 523 444 561 q 613 419 575 485 q 650 275 650 354 q 613 131 650 196 q 509 27 575 65 q 361 -11 443 -11 q 213 26 278 -11 q 109 127 147 63 q 71 275 71 192 m 136 274 q 166 158 136 210 q 247 75 196 106 q 360 44 297 44 q 473 75 422 44 q 553 158 524 106 q 583 274 583 210 q 553 390 583 338 q 473 473 524 442 q 360 504 422 504 q 245 472 296 504 q 165 386 194 439 q 136 274 136 333 m 457 833 l 310 649 l 263 649 l 383 833 l 457 833 z "},"õ":{"ha":721,"x_min":71,"x_max":650,"o":"m 71 275 q 109 419 71 354 q 213 523 147 485 q 361 561 279 561 q 510 523 444 561 q 613 419 575 485 q 650 275 650 354 q 613 131 650 196 q 509 27 575 65 q 361 -11 443 -11 q 213 26 278 -11 q 109 127 147 63 q 71 275 71 192 m 136 274 q 166 158 136 210 q 247 75 196 106 q 360 44 297 44 q 473 75 422 44 q 553 158 524 106 q 583 274 583 210 q 553 390 583 338 q 473 473 524 442 q 360 504 422 504 q 245 472 296 504 q 165 386 194 439 q 136 274 136 333 m 465 636 q 398 656 424 636 q 350 700 372 676 q 313 734 332 718 q 269 750 294 750 q 237 738 253 750 q 210 701 221 726 q 197 631 199 675 l 156 632 q 170 724 154 686 q 213 782 186 763 q 272 801 239 801 q 335 781 310 801 q 381 739 360 761 q 418 701 399 718 q 464 685 438 685 q 510 713 492 685 q 532 807 529 740 l 574 806 q 560 712 575 750 q 521 655 546 674 q 465 636 496 636 z "},"ȭ":{"ha":721,"x_min":71,"x_max":650,"o":"m 71 275 q 109 419 71 354 q 213 523 147 485 q 361 561 279 561 q 510 523 444 561 q 613 419 575 485 q 650 275 650 354 q 613 131 650 196 q 509 27 575 65 q 361 -11 443 -11 q 213 26 278 -11 q 109 127 147 63 q 71 275 71 192 m 136 274 q 166 158 136 210 q 247 75 196 106 q 360 44 297 44 q 473 75 422 44 q 553 158 524 106 q 583 274 583 210 q 553 390 583 338 q 473 473 524 442 q 360 504 422 504 q 245 472 296 504 q 165 386 194 439 q 136 274 136 333 m 465 636 q 398 656 424 636 q 350 700 372 676 q 313 734 332 718 q 269 750 294 750 q 237 738 253 750 q 210 701 221 726 q 197 631 199 675 l 156 632 q 170 724 154 686 q 213 782 186 763 q 272 801 239 801 q 335 781 310 801 q 381 739 360 761 q 418 701 399 718 q 464 685 438 685 q 510 713 492 685 q 532 807 529 740 l 574 806 q 560 712 575 750 q 521 655 546 674 q 465 636 496 636 m 201 965 l 529 965 l 529 915 l 201 915 l 201 965 z "},"œ":{"ha":1032,"x_min":71,"x_max":975,"o":"m 543 53 q 458 6 506 22 q 360 -11 411 -11 q 211 26 276 -11 q 108 126 146 63 q 71 272 71 190 q 110 418 71 354 q 213 519 149 482 q 354 556 278 556 q 460 539 411 556 q 544 492 508 522 l 510 447 q 442 486 481 471 q 358 501 403 501 q 247 471 297 501 q 166 388 196 440 q 136 272 136 336 q 166 158 136 210 q 248 75 196 106 q 364 44 300 44 q 442 58 406 44 q 507 93 478 71 l 543 53 m 715 -11 q 565 26 631 -11 q 463 128 500 64 q 426 274 426 193 q 465 418 426 353 q 570 522 504 483 q 717 561 636 561 q 880 504 814 561 q 975 356 946 447 l 500 172 l 481 219 l 915 389 l 901 369 q 830 465 878 425 q 713 506 782 506 q 600 475 650 506 q 520 393 550 444 q 490 276 490 342 q 519 163 490 215 q 599 78 547 110 q 717 46 650 46 q 802 63 761 46 q 875 106 843 79 l 908 58 q 819 8 869 28 q 715 -11 768 -11 z "},"p":{"ha":781,"x_min":124,"x_max":710,"o":"m 424 -11 q 278 30 346 -11 q 178 136 210 71 l 189 160 l 189 -261 l 124 -261 l 124 547 l 182 547 l 189 369 l 176 410 q 282 517 213 475 q 433 560 351 560 q 574 522 511 560 q 673 420 636 485 q 710 272 710 356 q 672 126 710 190 q 569 25 633 61 q 424 -11 504 -11 m 413 43 q 528 74 476 43 q 612 156 581 104 q 643 272 643 208 q 613 390 643 338 q 531 472 582 442 q 417 503 481 503 q 306 475 356 503 q 225 400 256 447 q 189 293 194 353 l 189 249 q 224 144 193 192 q 305 70 256 97 q 413 43 354 43 z "},"þ":{"ha":756,"x_min":114,"x_max":700,"o":"m 414 -11 q 312 9 363 -11 q 224 64 261 29 q 171 143 186 99 l 179 179 l 179 -261 l 114 -261 l 114 1056 l 181 1056 l 181 376 l 164 396 q 224 480 183 443 q 317 538 264 517 q 425 560 369 560 q 565 522 503 560 q 663 420 626 485 q 700 272 700 356 q 662 125 700 189 q 559 25 624 61 q 414 -11 494 -11 m 404 44 q 520 75 468 44 q 603 157 572 106 q 635 272 635 208 q 603 391 635 339 q 521 473 572 443 q 408 503 469 503 q 296 475 346 503 q 215 400 246 447 q 181 293 185 353 l 181 242 q 217 141 186 186 q 297 70 249 96 q 404 44 346 44 z "},"q":{"ha":781,"x_min":71,"x_max":657,"o":"m 344 -11 q 207 26 269 -11 q 108 126 144 63 q 71 272 71 190 q 109 421 71 356 q 213 523 147 486 q 361 560 279 560 q 506 517 438 560 q 606 408 574 475 l 590 369 l 590 547 l 657 547 l 657 -261 l 592 -261 l 592 176 l 600 131 q 499 28 569 67 q 344 -11 429 -11 m 363 43 q 473 70 424 43 q 554 143 522 97 q 590 246 586 189 l 590 293 q 556 400 586 353 q 475 475 525 447 q 363 503 425 503 q 249 472 301 503 q 167 390 197 442 q 136 272 136 338 q 167 156 136 208 q 249 74 197 104 q 363 43 301 43 z "},"r":{"ha":475,"x_min":124,"x_max":415,"o":"m 181 543 l 188 376 l 179 397 q 236 483 197 447 q 323 539 275 519 q 415 558 371 558 l 413 494 q 299 467 350 494 q 219 392 249 439 q 189 288 189 346 l 189 0 l 124 0 l 124 543 l 181 543 z "},"ŕ":{"ha":475,"x_min":124,"x_max":415,"o":"m 181 543 l 188 376 l 179 397 q 236 483 197 447 q 323 539 275 519 q 415 558 371 558 l 413 494 q 299 467 350 494 q 219 392 249 439 q 189 288 189 346 l 189 0 l 124 0 l 124 543 l 181 543 m 346 833 l 199 649 l 151 649 l 272 833 l 346 833 z "},"ř":{"ha":475,"x_min":33,"x_max":440,"o":"m 181 543 l 188 376 l 179 397 q 236 483 197 447 q 323 539 275 519 q 415 558 371 558 l 413 494 q 299 467 350 494 q 219 392 249 439 q 189 288 189 346 l 189 0 l 124 0 l 124 543 l 181 543 m 99 835 l 251 664 l 221 660 l 375 835 l 440 835 l 239 614 l 238 614 l 33 835 l 99 835 z "},"ŗ":{"ha":475,"x_min":119,"x_max":415,"o":"m 181 543 l 188 376 l 179 397 q 236 483 197 447 q 323 539 275 519 q 415 558 371 558 l 413 494 q 299 467 350 494 q 219 392 249 439 q 189 288 189 346 l 189 0 l 124 0 l 124 543 l 181 543 m 153 -264 l 119 -239 q 172 -162 157 -211 q 179 -58 186 -114 l 242 -58 q 239 -134 246 -94 q 212 -208 232 -174 q 153 -264 192 -242 z "},"ȑ":{"ha":475,"x_min":0,"x_max":415,"o":"m 181 543 l 188 376 l 179 397 q 236 483 197 447 q 323 539 275 519 q 415 558 371 558 l 413 494 q 299 467 350 494 q 219 392 249 439 q 189 288 189 346 l 189 0 l 124 0 l 124 543 l 181 543 m 0 854 l 72 854 l 188 669 l 140 669 l 0 854 m 158 854 l 231 854 l 346 669 l 299 669 l 158 854 z "},"ȓ":{"ha":475,"x_min":53,"x_max":425,"o":"m 181 543 l 188 376 l 179 397 q 236 483 197 447 q 323 539 275 519 q 415 558 371 558 l 413 494 q 299 467 350 494 q 219 392 249 439 q 189 288 189 346 l 189 0 l 124 0 l 124 543 l 181 543 m 238 851 q 331 823 290 851 q 396 743 371 794 q 425 622 421 692 l 378 622 q 356 713 375 672 q 308 778 338 754 q 238 803 278 803 q 169 778 199 803 q 122 713 139 754 q 101 622 104 672 l 53 622 q 81 743 57 692 q 146 823 106 794 q 238 851 186 851 z "},"s":{"ha":511,"x_min":69,"x_max":438,"o":"m 251 -11 q 153 6 204 -11 q 69 63 101 24 l 100 106 q 166 59 128 76 q 247 42 204 42 q 308 51 279 42 q 354 82 336 60 q 372 142 372 104 q 351 201 372 181 q 297 235 329 222 q 228 260 264 249 q 130 313 168 279 q 92 407 92 346 q 113 485 92 451 q 172 537 135 518 q 257 556 210 556 q 342 542 300 556 q 419 494 385 528 l 390 449 q 331 490 368 479 q 267 503 294 501 q 217 493 243 503 q 174 465 192 483 q 157 415 157 446 q 175 363 157 383 q 222 331 193 343 q 281 307 250 318 q 356 277 321 294 q 415 231 392 260 q 438 156 438 203 q 417 70 438 108 q 355 10 396 32 q 251 -11 314 -11 z "},"ś":{"ha":511,"x_min":69,"x_max":438,"o":"m 251 -11 q 153 6 204 -11 q 69 63 101 24 l 100 106 q 166 59 128 76 q 247 42 204 42 q 308 51 279 42 q 354 82 336 60 q 372 142 372 104 q 351 201 372 181 q 297 235 329 222 q 228 260 264 249 q 130 313 168 279 q 92 407 92 346 q 113 485 92 451 q 172 537 135 518 q 257 556 210 556 q 342 542 300 556 q 419 494 385 528 l 390 449 q 331 490 368 479 q 267 503 294 501 q 217 493 243 503 q 174 465 192 483 q 157 415 157 446 q 175 363 157 383 q 222 331 193 343 q 281 307 250 318 q 356 277 321 294 q 415 231 392 260 q 438 156 438 203 q 417 70 438 108 q 355 10 396 32 q 251 -11 314 -11 m 369 838 l 222 653 l 175 653 l 296 838 l 369 838 z "},"š":{"ha":511,"x_min":57,"x_max":464,"o":"m 251 -11 q 153 6 204 -11 q 69 63 101 24 l 100 106 q 166 59 128 76 q 247 42 204 42 q 308 51 279 42 q 354 82 336 60 q 372 142 372 104 q 351 201 372 181 q 297 235 329 222 q 228 260 264 249 q 130 313 168 279 q 92 407 92 346 q 113 485 92 451 q 172 537 135 518 q 257 556 210 556 q 342 542 300 556 q 419 494 385 528 l 390 449 q 331 490 368 479 q 267 503 294 501 q 217 493 243 503 q 174 465 192 483 q 157 415 157 446 q 175 363 157 383 q 222 331 193 343 q 281 307 250 318 q 356 277 321 294 q 415 231 392 260 q 438 156 438 203 q 417 70 438 108 q 355 10 396 32 q 251 -11 314 -11 m 122 839 l 275 668 l 244 664 l 399 839 l 464 839 l 263 618 l 261 618 l 57 839 l 122 839 z "},"ş":{"ha":511,"x_min":69,"x_max":438,"o":"m 251 -11 q 153 6 204 -11 q 69 63 101 24 l 100 106 q 166 59 128 76 q 247 42 204 42 q 308 51 279 42 q 354 82 336 60 q 372 142 372 104 q 351 201 372 181 q 297 235 329 222 q 228 260 264 249 q 130 313 168 279 q 92 407 92 346 q 113 485 92 451 q 172 537 135 518 q 257 556 210 556 q 342 542 300 556 q 419 494 385 528 l 390 449 q 331 490 368 479 q 267 503 294 501 q 217 493 243 503 q 174 465 192 483 q 157 415 157 446 q 175 363 157 383 q 222 331 193 343 q 281 307 250 318 q 356 277 321 294 q 415 231 392 260 q 438 156 438 203 q 417 70 438 108 q 355 10 396 32 q 251 -11 314 -11 m 146 -236 q 187 -262 161 -251 q 247 -272 213 -272 q 328 -252 296 -272 q 361 -196 361 -232 q 336 -140 361 -164 q 256 -117 311 -117 q 204 -123 233 -117 q 158 -136 175 -129 l 138 -101 l 235 7 l 285 -3 l 192 -117 l 168 -101 q 213 -85 183 -92 q 268 -79 242 -79 q 379 -108 339 -78 q 419 -194 419 -137 q 397 -261 419 -235 q 338 -300 375 -287 q 254 -312 300 -312 q 177 -300 211 -312 q 122 -269 143 -287 l 146 -236 z "},"ŝ":{"ha":511,"x_min":56,"x_max":461,"o":"m 251 -11 q 153 6 204 -11 q 69 63 101 24 l 100 106 q 166 59 128 76 q 247 42 204 42 q 308 51 279 42 q 354 82 336 60 q 372 142 372 104 q 351 201 372 181 q 297 235 329 222 q 228 260 264 249 q 130 313 168 279 q 92 407 92 346 q 113 485 92 451 q 172 537 135 518 q 257 556 210 556 q 342 542 300 556 q 419 494 385 528 l 390 449 q 331 490 368 479 q 267 503 294 501 q 217 493 243 503 q 174 465 192 483 q 157 415 157 446 q 175 363 157 383 q 222 331 193 343 q 281 307 250 318 q 356 277 321 294 q 415 231 392 260 q 438 156 438 203 q 417 70 438 108 q 355 10 396 32 q 251 -11 314 -11 m 396 674 l 244 843 l 274 847 l 121 674 l 56 674 l 257 894 l 258 894 l 461 674 l 396 674 z "},"ș":{"ha":511,"x_min":69,"x_max":438,"o":"m 251 -11 q 153 6 204 -11 q 69 63 101 24 l 100 106 q 166 59 128 76 q 247 42 204 42 q 308 51 279 42 q 354 82 336 60 q 372 142 372 104 q 351 201 372 181 q 297 235 329 222 q 228 260 264 249 q 130 313 168 279 q 92 407 92 346 q 113 485 92 451 q 172 537 135 518 q 257 556 210 556 q 342 542 300 556 q 419 494 385 528 l 390 449 q 331 490 368 479 q 267 503 294 501 q 217 493 243 503 q 174 465 192 483 q 157 415 157 446 q 175 363 157 383 q 222 331 193 343 q 281 307 250 318 q 356 277 321 294 q 415 231 392 260 q 438 156 438 203 q 417 70 438 108 q 355 10 396 32 q 251 -11 314 -11 m 197 -268 l 164 -243 q 216 -167 201 -215 q 224 -62 231 -118 l 286 -62 q 283 -138 290 -99 q 256 -212 276 -178 q 197 -268 236 -246 z "},"ß":{"ha":801,"x_min":65,"x_max":728,"o":"m 156 607 q 188 774 156 706 q 278 880 219 843 q 415 918 336 917 q 546 890 494 918 q 623 817 597 861 q 649 725 649 774 q 617 613 649 660 q 531 543 586 567 q 632 490 588 528 q 702 398 676 453 q 728 272 728 343 q 690 124 728 189 q 590 24 653 60 q 447 -12 526 -12 q 362 1 400 -12 q 296 33 324 15 l 322 75 q 378 49 349 57 q 440 40 408 40 q 554 72 504 40 q 633 158 604 104 q 663 275 663 211 q 633 394 663 342 q 554 478 604 447 q 440 508 504 510 l 433 508 l 433 569 q 539 607 496 569 q 582 708 582 644 q 564 784 582 749 q 510 841 546 819 q 418 863 474 863 q 270 790 318 863 q 222 593 222 717 l 222 0 l 156 0 l 156 499 l 65 499 l 65 554 l 156 554 l 156 607 z "},"t":{"ha":451,"x_min":63,"x_max":413,"o":"m 178 782 l 244 782 l 244 536 l 413 536 l 413 483 l 244 483 l 244 0 l 178 0 l 178 483 l 63 483 l 63 536 l 178 536 l 178 782 z "},"ŧ":{"ha":451,"x_min":56,"x_max":413,"o":"m 178 782 l 244 782 l 244 536 l 413 536 l 413 483 l 244 483 l 244 0 l 178 0 l 178 483 l 63 483 l 63 536 l 178 536 l 178 782 m 56 308 l 390 308 l 390 246 l 56 246 l 56 308 z "},"ť":{"ha":451,"x_min":63,"x_max":433,"o":"m 178 782 l 244 782 l 244 536 l 413 536 l 413 483 l 244 483 l 244 0 l 178 0 l 178 483 l 63 483 l 63 536 l 178 536 l 178 782 m 340 651 l 307 676 q 359 753 344 704 q 367 857 374 801 l 429 857 q 426 781 433 821 q 399 708 419 742 q 340 651 379 674 z "}}}
